ultracondensed-thin-italic.ufo
<glyph name="exclam" format="2">
  <advance height="1920" width="275"/>
  <unicode hex="0021"/>
  <outline>
    <contour>
      <point x="28.0" y="0.0" type="curve" smooth="yes"/>
      <point x="8.0" y="0.0" type="line" smooth="yes"/>
      <point x="1.0" y="0.0"/>
      <point x="-2.0" y="3.0"/>
      <point x="0.0" y="10.0" type="curve" smooth="yes"/>
      <point x="44.0" y="200.0" type="line" smooth="yes"/>
      <point x="46.0" y="207.0"/>
      <point x="49.0" y="210.0"/>
      <point x="56.0" y="210.0" type="curve" smooth="yes"/>
      <point x="76.0" y="210.0" type="line" smooth="yes"/>
      <point x="83.0" y="210.0"/>
      <point x="86.0" y="207.0"/>
      <point x="84.0" y="200.0" type="curve" smooth="yes"/>
      <point x="40.0" y="10.0" type="line" smooth="yes"/>
      <point x="38.0" y="3.0"/>
      <point x="35.0" y="0.0"/>
    </contour>
    <contour>
      <point x="221.0" y="950.0" type="curve" smooth="yes"/>
      <point x="334.0" y="1440.0" type="line" smooth="yes"/>
      <point x="336.0" y="1447.0"/>
      <point x="340.0" y="1450.0"/>
      <point x="347.0" y="1450.0" type="curve" smooth="yes"/>
      <point x="357.0" y="1450.0" type="line" smooth="yes"/>
      <point x="364.0" y="1450.0"/>
      <point x="366.0" y="1447.0"/>
      <point x="364.0" y="1440.0" type="curve" smooth="yes"/>
      <point x="251.0" y="950.0" type="line" smooth="yes"/>
      <point x="249.0" y="943.0"/>
      <point x="231.0" y="857.0"/>
      <point x="228.0" y="850.0" type="curve" smooth="yes"/>
      <point x="130.0" y="440.0" type="line" smooth="yes"/>
      <point x="128.0" y="433.0"/>
      <point x="124.0" y="430.0"/>
      <point x="117.0" y="430.0" type="curve" smooth="yes"/>
      <point x="115.0" y="430.0" type="line" smooth="yes"/>
      <point x="108.0" y="430.0"/>
      <point x="106.0" y="433.0"/>
      <point x="108.0" y="440.0" type="curve" smooth="yes"/>
      <point x="200.0" y="850.0" type="line" smooth="yes"/>
      <point x="202.0" y="857.0"/>
      <point x="219.0" y="943.0"/>
    </contour>
  </outline>
</glyph>
<glyph name="numbersign" format="2">
  <advance height="1920" width="502"/>
  <unicode hex="0023"/>
  <outline>
    <contour>
      <point x="53.0" y="485.0" type="curve" smooth="yes"/>
      <point x="393.0" y="485.0" type="line" smooth="yes"/>
      <point x="397.0" y="485.0"/>
      <point x="398.0" y="484.0"/>
      <point x="397.0" y="480.0" type="curve" smooth="yes"/>
      <point x="392.0" y="460.0" type="line" smooth="yes"/>
      <point x="391.0" y="456.0"/>
      <point x="390.0" y="455.0"/>
      <point x="386.0" y="455.0" type="curve" smooth="yes"/>
      <point x="46.0" y="455.0" type="line" smooth="yes"/>
      <point x="42.0" y="455.0"/>
      <point x="41.0" y="456.0"/>
      <point x="42.0" y="460.0" type="curve" smooth="yes"/>
      <point x="47.0" y="480.0" type="line" smooth="yes"/>
      <point x="48.0" y="484.0"/>
      <point x="49.0" y="485.0"/>
    </contour>
    <contour>
      <point x="218.0" y="1025.0" type="curve" smooth="yes"/>
      <point x="558.0" y="1025.0" type="line" smooth="yes"/>
      <point x="562.0" y="1025.0"/>
      <point x="562.0" y="1024.0"/>
      <point x="561.0" y="1020.0" type="curve" smooth="yes"/>
      <point x="557.0" y="1000.0" type="line" smooth="yes"/>
      <point x="556.0" y="996.0"/>
      <point x="555.0" y="995.0"/>
      <point x="551.0" y="995.0" type="curve" smooth="yes"/>
      <point x="211.0" y="995.0" type="line" smooth="yes"/>
      <point x="207.0" y="995.0"/>
      <point x="206.0" y="996.0"/>
      <point x="207.0" y="1000.0" type="curve" smooth="yes"/>
      <point x="211.0" y="1020.0" type="line" smooth="yes"/>
      <point x="212.0" y="1024.0"/>
      <point x="214.0" y="1025.0"/>
    </contour>
    <contour>
      <point x="584.0" y="1400.0" type="curve" smooth="yes"/>
      <point x="604.0" y="1400.0" type="line" smooth="yes"/>
      <point x="609.0" y="1400.0"/>
      <point x="609.0" y="1399.0"/>
      <point x="607.0" y="1395.0" type="curve" smooth="yes"/>
      <point x="123.0" y="5.0" type="line" smooth="yes"/>
      <point x="121.0" y="1.0"/>
      <point x="121.0" y="0.0"/>
      <point x="116.0" y="0.0" type="curve" smooth="yes"/>
      <point x="96.0" y="0.0" type="line" smooth="yes"/>
      <point x="91.0" y="0.0"/>
      <point x="91.0" y="1.0"/>
      <point x="93.0" y="5.0" type="curve" smooth="yes"/>
      <point x="577.0" y="1395.0" type="line" smooth="yes"/>
      <point x="579.0" y="1399.0"/>
      <point x="579.0" y="1400.0"/>
    </contour>
    <contour>
      <point x="459.0" y="1400.0" type="curve" smooth="yes"/>
      <point x="479.0" y="1400.0" type="line" smooth="yes"/>
      <point x="483.0" y="1400.0"/>
      <point x="484.0" y="1399.0"/>
      <point x="482.0" y="1395.0" type="curve" smooth="yes"/>
      <point x="-2.0" y="5.0" type="line" smooth="yes"/>
      <point x="-4.0" y="1.0"/>
      <point x="-5.0" y="0.0"/>
      <point x="-9.0" y="0.0" type="curve" smooth="yes"/>
      <point x="-29.0" y="0.0" type="line" smooth="yes"/>
      <point x="-33.0" y="0.0"/>
      <point x="-34.0" y="1.0"/>
      <point x="-32.0" y="5.0" type="curve" smooth="yes"/>
      <point x="452.0" y="1395.0" type="line" smooth="yes"/>
      <point x="454.0" y="1399.0"/>
      <point x="455.0" y="1400.0"/>
    </contour>
  </outline>
</glyph>
<glyph name="dollar" format="2">
  <advance height="960" width="374"/>
  <unicode hex="0024"/>
  <outline>
    <contour>
      <point x="61.0" y="524.0" type="curve" smooth="yes"/>
      <point x="81.0" y="524.0" type="line" smooth="yes"/>
      <point x="82.0" y="524.0"/>
      <point x="86.0" y="524.0"/>
      <point x="85.0" y="520.0" type="curve" smooth="yes"/>
      <point x="26.0" y="258.0" type="line" smooth="yes"/>
      <point x="-13.0" y="87.0"/>
      <point x="10.0" y="25.0"/>
      <point x="66.0" y="25.0" type="curve" smooth="yes"/>
      <point x="119.0" y="25.0"/>
      <point x="197.0" y="88.0"/>
      <point x="245.0" y="294.0" type="curve" smooth="yes"/>
      <point x="278.0" y="439.0"/>
      <point x="241.0" y="595.0"/>
      <point x="215.0" y="712.0" type="curve" smooth="yes"/>
      <point x="183.0" y="855.0"/>
      <point x="179.0" y="971.0"/>
      <point x="224.0" y="1166.0" type="curve" smooth="yes"/>
      <point x="263.0" y="1336.0"/>
      <point x="307.0" y="1405.0"/>
      <point x="396.0" y="1405.0" type="curve" smooth="yes"/>
      <point x="489.0" y="1405.0"/>
      <point x="487.0" y="1328.0"/>
      <point x="446.0" y="1150.0" type="curve" smooth="yes"/>
      <point x="390.0" y="906.0" type="line" smooth="yes"/>
      <point x="389.0" y="902.0"/>
      <point x="387.0" y="902.0"/>
      <point x="384.0" y="902.0" type="curve" smooth="yes"/>
      <point x="364.0" y="902.0" type="line" smooth="yes"/>
      <point x="361.0" y="902.0"/>
      <point x="359.0" y="903.0"/>
      <point x="360.0" y="906.0" type="curve" smooth="yes"/>
      <point x="416.0" y="1146.0" type="line" smooth="yes"/>
      <point x="457.0" y="1324.0"/>
      <point x="448.0" y="1375.0"/>
      <point x="389.0" y="1375.0" type="curve" smooth="yes"/>
      <point x="318.0" y="1375.0"/>
      <point x="287.0" y="1311.0"/>
      <point x="254.0" y="1166.0" type="curve" smooth="yes"/>
      <point x="210.0" y="976.0"/>
      <point x="214.0" y="869.0"/>
      <point x="247.0" y="732.0" type="curve" smooth="yes"/>
      <point x="276.0" y="611.0"/>
      <point x="316.0" y="472.0"/>
      <point x="275.0" y="294.0" type="curve" smooth="yes"/>
      <point x="224.0" y="71.0"/>
      <point x="134.0" y="-5.0"/>
      <point x="59.0" y="-5.0" type="curve" smooth="yes"/>
      <point x="-12.0" y="-5.0"/>
      <point x="-52.0" y="55.0"/>
      <point x="-11.0" y="234.0" type="curve" smooth="yes"/>
      <point x="55.0" y="520.0" type="line" smooth="yes"/>
      <point x="56.0" y="524.0"/>
      <point x="60.0" y="524.0"/>
    </contour>
    <contour>
      <point x="426.0" y="1590.0" type="curve" smooth="yes"/>
      <point x="436.0" y="1590.0" type="line" smooth="yes"/>
      <point x="440.0" y="1590.0"/>
      <point x="441.0" y="1589.0"/>
      <point x="440.0" y="1585.0" type="curve" smooth="yes"/>
      <point x="31.0" y="-185.0" type="line" smooth="yes"/>
      <point x="30.0" y="-189.0"/>
      <point x="29.0" y="-190.0"/>
      <point x="25.0" y="-190.0" type="curve" smooth="yes"/>
      <point x="15.0" y="-190.0" type="line" smooth="yes"/>
      <point x="11.0" y="-190.0"/>
      <point x="10.0" y="-189.0"/>
      <point x="11.0" y="-185.0" type="curve" smooth="yes"/>
      <point x="420.0" y="1585.0" type="line" smooth="yes"/>
      <point x="421.0" y="1589.0"/>
      <point x="422.0" y="1590.0"/>
    </contour>
  </outline>
</glyph>
<glyph name="percent" format="2">
  <advance height="2048" width="677"/>
  <unicode hex="0025"/>
  <outline>
    <contour>
      <point x="197.0" y="985.0" type="curve" smooth="yes"/>
      <point x="251.0" y="1216.0" type="line" smooth="yes"/>
      <point x="280.0" y="1341.0"/>
      <point x="308.0" y="1405.0"/>
      <point x="396.0" y="1405.0" type="curve" smooth="yes"/>
      <point x="484.0" y="1405.0"/>
      <point x="490.0" y="1341.0"/>
      <point x="461.0" y="1216.0" type="curve" smooth="yes"/>
      <point x="407.0" y="985.0" type="line" smooth="yes"/>
      <point x="378.0" y="860.0"/>
      <point x="344.0" y="795.0"/>
      <point x="256.0" y="795.0" type="curve" smooth="yes"/>
      <point x="168.0" y="795.0"/>
      <point x="168.0" y="860.0"/>
    </contour>
    <contour>
      <point x="225.0" y="975.0" type="line" smooth="yes"/>
      <point x="205.0" y="890.0"/>
      <point x="198.0" y="825.0"/>
      <point x="262.0" y="825.0" type="curve" smooth="yes"/>
      <point x="326.0" y="825.0"/>
      <point x="355.0" y="890.0"/>
      <point x="375.0" y="975.0" type="curve" smooth="yes"/>
      <point x="433.0" y="1226.0" type="line" smooth="yes"/>
      <point x="453.0" y="1311.0"/>
      <point x="453.0" y="1375.0"/>
      <point x="389.0" y="1375.0" type="curve" smooth="yes"/>
      <point x="325.0" y="1375.0"/>
      <point x="303.0" y="1311.0"/>
      <point x="283.0" y="1226.0" type="curve" smooth="yes"/>
    </contour>
    <contour>
      <point x="300.0" y="185.0" type="curve" smooth="yes"/>
      <point x="359.0" y="442.0" type="line" smooth="yes"/>
      <point x="388.0" y="567.0"/>
      <point x="418.0" y="631.0"/>
      <point x="506.0" y="631.0" type="curve" smooth="yes"/>
      <point x="594.0" y="631.0"/>
      <point x="598.0" y="567.0"/>
      <point x="569.0" y="442.0" type="curve" smooth="yes"/>
      <point x="510.0" y="185.0" type="line" smooth="yes"/>
      <point x="481.0" y="60.0"/>
      <point x="447.0" y="-5.0"/>
      <point x="359.0" y="-5.0" type="curve" smooth="yes"/>
      <point x="271.0" y="-5.0"/>
      <point x="271.0" y="60.0"/>
    </contour>
    <contour>
      <point x="327.0" y="175.0" type="line" smooth="yes"/>
      <point x="307.0" y="90.0"/>
      <point x="302.0" y="25.0"/>
      <point x="366.0" y="25.0" type="curve" smooth="yes"/>
      <point x="430.0" y="25.0"/>
      <point x="457.0" y="90.0"/>
      <point x="477.0" y="175.0" type="curve" smooth="yes"/>
      <point x="541.0" y="452.0" type="line" smooth="yes"/>
      <point x="561.0" y="537.0"/>
      <point x="563.0" y="601.0"/>
      <point x="499.0" y="601.0" type="curve" smooth="yes"/>
      <point x="435.0" y="601.0"/>
      <point x="411.0" y="537.0"/>
      <point x="391.0" y="452.0" type="curve" smooth="yes"/>
    </contour>
    <contour>
      <point x="816.0" y="1395.0" type="curve" smooth="yes"/>
      <point x="-27.0" y="5.0" type="line" smooth="yes"/>
      <point x="-30.0" y="1.0"/>
      <point x="-32.0" y="0.0"/>
      <point x="-36.0" y="0.0" type="curve" smooth="yes"/>
      <point x="-56.0" y="0.0" type="line" smooth="yes"/>
      <point x="-60.0" y="0.0"/>
      <point x="-60.0" y="1.0"/>
      <point x="-57.0" y="5.0" type="curve" smooth="yes"/>
      <point x="786.0" y="1395.0" type="line" smooth="yes"/>
      <point x="789.0" y="1399.0"/>
      <point x="791.0" y="1400.0"/>
      <point x="795.0" y="1400.0" type="curve" smooth="yes"/>
      <point x="815.0" y="1400.0" type="line" smooth="yes"/>
      <point x="819.0" y="1400.0"/>
      <point x="819.0" y="1399.0"/>
    </contour>
  </outline>
</glyph>
<glyph name="ampersand" format="2">
  <advance height="1920" width="555"/>
  <unicode hex="0026"/>
  <outline>
    <contour>
      <point x="354.0" y="5.0" type="curve" smooth="yes"/>
      <point x="334.0" y="1036.0" type="line" smooth="yes"/>
      <point x="329.0" y="1125.0"/>
      <point x="326.0" y="1175.0"/>
      <point x="341.0" y="1241.0" type="curve" smooth="yes"/>
      <point x="362.0" y="1331.0"/>
      <point x="418.0" y="1405.0"/>
      <point x="522.0" y="1405.0" type="curve" smooth="yes"/>
      <point x="626.0" y="1405.0"/>
      <point x="654.0" y="1336.0"/>
      <point x="630.0" y="1231.0" type="curve" smooth="yes"/>
      <point x="598.0" y="1094.0"/>
      <point x="506.0" y="1013.0"/>
      <point x="343.0" y="948.0" type="curve" smooth="yes"/>
      <point x="202.0" y="892.0"/>
      <point x="144.0" y="826.0"/>
      <point x="116.0" y="704.0" type="curve" smooth="yes"/>
      <point x="107.0" y="665.0"/>
      <point x="103.0" y="570.0"/>
      <point x="106.0" y="503.0" type="curve" smooth="yes"/>
      <point x="115.0" y="236.0" type="line" smooth="yes"/>
      <point x="119.0" y="107.0"/>
      <point x="107.0" y="25.0"/>
      <point x="177.0" y="25.0" type="curve" smooth="yes"/>
      <point x="293.0" y="25.0"/>
      <point x="448.0" y="360.0"/>
      <point x="521.0" y="644.0" type="curve" smooth="yes"/>
      <point x="522.0" y="647.0"/>
      <point x="525.0" y="648.0"/>
      <point x="528.0" y="648.0" type="curve" smooth="yes"/>
      <point x="538.0" y="648.0" type="line" smooth="yes"/>
      <point x="542.0" y="648.0"/>
      <point x="543.0" y="646.0"/>
      <point x="542.0" y="642.0" type="curve" smooth="yes"/>
      <point x="464.0" y="347.0"/>
      <point x="314.0" y="-5.0"/>
      <point x="170.0" y="-5.0" type="curve" smooth="yes"/>
      <point x="82.0" y="-5.0"/>
      <point x="88.0" y="75.0"/>
      <point x="83.0" y="249.0" type="curve" smooth="yes"/>
      <point x="77.0" y="489.0" type="line" smooth="yes"/>
      <point x="75.0" y="578.0"/>
      <point x="73.0" y="646.0"/>
      <point x="86.0" y="704.0" type="curve" smooth="yes"/>
      <point x="122.0" y="858.0"/>
      <point x="208.0" y="916.0"/>
      <point x="345.0" y="975.0" type="curve" smooth="yes"/>
      <point x="497.0" y="1041.0"/>
      <point x="570.0" y="1099.0"/>
      <point x="599.0" y="1226.0" type="curve" smooth="yes"/>
      <point x="622.0" y="1326.0"/>
      <point x="598.0" y="1375.0"/>
      <point x="515.0" y="1375.0" type="curve" smooth="yes"/>
      <point x="437.0" y="1375.0"/>
      <point x="388.0" y="1316.0"/>
      <point x="371.0" y="1241.0" type="curve" smooth="yes"/>
      <point x="357.0" y="1181.0"/>
      <point x="365.0" y="1087.0"/>
      <point x="365.0" y="1056.0" type="curve" smooth="yes"/>
      <point x="384.0" y="5.0" type="line" smooth="yes"/>
      <point x="384.0" y="2.0"/>
      <point x="385.0" y="0.0"/>
      <point x="381.0" y="0.0" type="curve" smooth="yes"/>
      <point x="361.0" y="0.0" type="line" smooth="yes"/>
      <point x="357.0" y="0.0"/>
      <point x="355.0" y="2.0"/>
    </contour>
  </outline>
</glyph>
<glyph name="quotesingle" format="2">
  <advance height="1920" width="275"/>
  <unicode hex="0027"/>
  <outline>
    <contour>
      <point x="235.0" y="930.0" type="curve" smooth="yes"/>
      <point x="231.0" y="930.0" type="line" smooth="yes"/>
      <point x="224.0" y="930.0"/>
      <point x="222.0" y="933.0"/>
      <point x="223.0" y="940.0" type="curve" smooth="yes"/>
      <point x="269.0" y="1150.0" type="line" smooth="yes"/>
      <point x="278.0" y="1187.0"/>
      <point x="280.0" y="1203.0"/>
      <point x="286.0" y="1230.0" type="curve" smooth="yes"/>
      <point x="328.0" y="1410.0" type="line" smooth="yes"/>
      <point x="330.0" y="1417.0"/>
      <point x="333.0" y="1420.0"/>
      <point x="340.0" y="1420.0" type="curve" smooth="yes"/>
      <point x="350.0" y="1420.0" type="line" smooth="yes"/>
      <point x="357.0" y="1420.0"/>
      <point x="360.0" y="1417.0"/>
      <point x="358.0" y="1410.0" type="curve" smooth="yes"/>
      <point x="316.0" y="1230.0" type="line" smooth="yes"/>
      <point x="310.0" y="1203.0"/>
      <point x="306.0" y="1187.0"/>
      <point x="297.0" y="1150.0" type="curve" smooth="yes"/>
      <point x="247.0" y="940.0" type="line" smooth="yes"/>
      <point x="244.0" y="933.0"/>
      <point x="242.0" y="930.0"/>
    </contour>
  </outline>
</glyph>
<glyph name="parenleft" format="2">
  <advance height="2048" width="295"/>
  <unicode hex="0028"/>
  <outline>
    <contour>
      <point x="236.0" y="1219.0" type="line" smooth="yes"/>
      <point x="283.0" y="1421.0"/>
      <point x="350.0" y="1581.0"/>
      <point x="496.0" y="1609.0" type="curve" smooth="yes"/>
      <point x="500.0" y="1610.0"/>
      <point x="502.0" y="1609.0"/>
      <point x="501.0" y="1605.0" type="curve" smooth="yes"/>
      <point x="499.0" y="1600.0" type="line" smooth="yes"/>
      <point x="498.0" y="1597.0"/>
      <point x="496.0" y="1594.0"/>
      <point x="493.0" y="1593.0" type="curve" smooth="yes"/>
      <point x="377.0" y="1562.0"/>
      <point x="315.0" y="1429.0"/>
      <point x="269.0" y="1229.0" type="curve" smooth="yes"/>
      <point x="-11.0" y="16.0" type="line" smooth="yes"/>
      <point x="-57.0" y="-184.0"/>
      <point x="-57.0" y="-317.0"/>
      <point x="45.0" y="-348.0" type="curve" smooth="yes"/>
      <point x="48.0" y="-349.0"/>
      <point x="49.0" y="-352.0"/>
      <point x="48.0" y="-355.0" type="curve" smooth="yes"/>
      <point x="47.0" y="-360.0" type="line" smooth="yes"/>
      <point x="46.0" y="-364.0"/>
      <point x="45.0" y="-365.0"/>
      <point x="41.0" y="-364.0" type="curve" smooth="yes"/>
      <point x="-93.0" y="-336.0"/>
      <point x="-86.0" y="-176.0"/>
      <point x="-39.0" y="26.0" type="curve" smooth="yes"/>
    </contour>
  </outline>
</glyph>
<glyph name="parenright" format="2">
  <advance height="2048" width="294"/>
  <unicode hex="0029"/>
  <outline>
    <contour>
      <point x="145.0" y="26.0" type="line" smooth="yes"/>
      <point x="98.0" y="-176.0"/>
      <point x="-8.0" y="-336.0"/>
      <point x="-154.0" y="-364.0" type="curve" smooth="yes"/>
      <point x="-158.0" y="-365.0"/>
      <point x="-159.0" y="-364.0"/>
      <point x="-158.0" y="-360.0" type="curve" smooth="yes"/>
      <point x="-157.0" y="-355.0" type="line" smooth="yes"/>
      <point x="-156.0" y="-352.0"/>
      <point x="-154.0" y="-349.0"/>
      <point x="-151.0" y="-348.0" type="curve" smooth="yes"/>
      <point x="-35.0" y="-317.0"/>
      <point x="67.0" y="-184.0"/>
      <point x="113.0" y="16.0" type="curve" smooth="yes"/>
      <point x="393.0" y="1229.0" type="line" smooth="yes"/>
      <point x="439.0" y="1429.0"/>
      <point x="399.0" y="1562.0"/>
      <point x="297.0" y="1593.0" type="curve" smooth="yes"/>
      <point x="294.0" y="1594.0"/>
      <point x="293.0" y="1597.0"/>
      <point x="294.0" y="1600.0" type="curve" smooth="yes"/>
      <point x="296.0" y="1605.0" type="line" smooth="yes"/>
      <point x="297.0" y="1609.0"/>
      <point x="297.0" y="1610.0"/>
      <point x="301.0" y="1609.0" type="curve" smooth="yes"/>
      <point x="435.0" y="1581.0"/>
      <point x="467.0" y="1421.0"/>
      <point x="420.0" y="1219.0" type="curve" smooth="yes"/>
    </contour>
  </outline>
</glyph>
<glyph name="asterisk" format="2">
  <advance height="2048" width="500"/>
  <unicode hex="002A"/>
  <outline>
    <contour>
      <point x="409.0" y="1205.0" type="line"/>
      <point x="409.0" y="1215.0" type="line"/>
      <point x="586.0" y="1283.0" type="line" smooth="yes"/>
      <point x="590.0" y="1284.0"/>
      <point x="592.0" y="1285.0"/>
      <point x="596.0" y="1286.0" type="curve" smooth="yes"/>
      <point x="622.0" y="1290.0" type="line" smooth="yes"/>
      <point x="626.0" y="1291.0"/>
      <point x="628.0" y="1289.0"/>
      <point x="628.0" y="1285.0" type="curve" smooth="yes"/>
      <point x="630.0" y="1267.0" type="line" smooth="yes"/>
      <point x="630.0" y="1263.0"/>
      <point x="629.0" y="1262.0"/>
      <point x="625.0" y="1261.0" type="curve" smooth="yes"/>
      <point x="600.0" y="1250.0" type="line" smooth="yes"/>
      <point x="596.0" y="1249.0"/>
      <point x="594.0" y="1247.0"/>
      <point x="590.0" y="1246.0" type="curve" smooth="yes"/>
    </contour>
    <contour>
      <point x="404.0" y="1207.0" type="line"/>
      <point x="414.0" y="1213.0" type="line"/>
      <point x="497.0" y="1080.0" type="line" smooth="yes"/>
      <point x="498.0" y="1077.0"/>
      <point x="500.0" y="1075.0"/>
      <point x="501.0" y="1072.0" type="curve" smooth="yes"/>
      <point x="507.0" y="1049.0" type="line" smooth="yes"/>
      <point x="508.0" y="1046.0"/>
      <point x="508.0" y="1044.0"/>
      <point x="505.0" y="1042.0" type="curve" smooth="yes"/>
      <point x="486.0" y="1030.0" type="line" smooth="yes"/>
      <point x="483.0" y="1028.0"/>
      <point x="480.0" y="1029.0"/>
      <point x="479.0" y="1032.0" type="curve" smooth="yes"/>
      <point x="465.0" y="1049.0" type="line" smooth="yes"/>
      <point x="464.0" y="1052.0"/>
      <point x="462.0" y="1055.0"/>
      <point x="461.0" y="1058.0" type="curve" smooth="yes"/>
    </contour>
    <contour>
      <point x="405.0" y="1213.0" type="line"/>
      <point x="413.0" y="1207.0" type="line"/>
      <point x="286.0" y="1057.0" type="line" smooth="yes"/>
      <point x="283.0" y="1054.0"/>
      <point x="282.0" y="1052.0"/>
      <point x="279.0" y="1049.0" type="curve" smooth="yes"/>
      <point x="257.0" y="1031.0" type="line" smooth="yes"/>
      <point x="254.0" y="1028.0"/>
      <point x="252.0" y="1028.0"/>
      <point x="249.0" y="1030.0" type="curve" smooth="yes"/>
      <point x="236.0" y="1042.0" type="line" smooth="yes"/>
      <point x="233.0" y="1044.0"/>
      <point x="233.0" y="1046.0"/>
      <point x="236.0" y="1049.0" type="curve" smooth="yes"/>
      <point x="253.0" y="1071.0" type="line" smooth="yes"/>
      <point x="256.0" y="1074.0"/>
      <point x="258.0" y="1076.0"/>
      <point x="261.0" y="1079.0" type="curve" smooth="yes"/>
    </contour>
    <contour>
      <point x="412.0" y="1215.0" type="line"/>
      <point x="406.0" y="1205.0" type="line"/>
      <point x="245.0" y="1246.0" type="line" smooth="yes"/>
      <point x="241.0" y="1247.0"/>
      <point x="240.0" y="1248.0"/>
      <point x="236.0" y="1249.0" type="curve" smooth="yes"/>
      <point x="216.0" y="1260.0" type="line" smooth="yes"/>
      <point x="212.0" y="1261.0"/>
      <point x="213.0" y="1263.0"/>
      <point x="215.0" y="1267.0" type="curve" smooth="yes"/>
      <point x="225.0" y="1285.0" type="line" smooth="yes"/>
      <point x="227.0" y="1289.0"/>
      <point x="228.0" y="1290.0"/>
      <point x="232.0" y="1289.0" type="curve" smooth="yes"/>
      <point x="256.0" y="1285.0" type="line" smooth="yes"/>
      <point x="260.0" y="1284.0"/>
      <point x="261.0" y="1283.0"/>
      <point x="265.0" y="1282.0" type="curve" smooth="yes"/>
    </contour>
    <contour>
      <point x="414.0" y="1210.0" type="line"/>
      <point x="403.0" y="1210.0" type="line"/>
      <point x="430.0" y="1385.0" type="line" smooth="yes"/>
      <point x="431.0" y="1389.0"/>
      <point x="431.0" y="1391.0"/>
      <point x="432.0" y="1395.0" type="curve" smooth="yes"/>
      <point x="442.0" y="1420.0" type="line" smooth="yes"/>
      <point x="443.0" y="1424.0"/>
      <point x="445.0" y="1425.0"/>
      <point x="449.0" y="1425.0" type="curve" smooth="yes"/>
      <point x="468.0" y="1425.0" type="line" smooth="yes"/>
      <point x="472.0" y="1425.0"/>
      <point x="473.0" y="1424.0"/>
      <point x="472.0" y="1420.0" type="curve" smooth="yes"/>
      <point x="470.0" y="1395.0" type="line" smooth="yes"/>
      <point x="469.0" y="1391.0"/>
      <point x="469.0" y="1389.0"/>
      <point x="468.0" y="1385.0" type="curve" smooth="yes"/>
    </contour>
  </outline>
</glyph>
<glyph name="plus" format="2">
  <advance height="1920" width="540"/>
  <unicode hex="002B"/>
  <outline>
    <contour>
      <point x="81.0" y="675.0" type="curve" smooth="yes"/>
      <point x="86.0" y="697.0" type="line" smooth="yes"/>
      <point x="87.0" y="701.0"/>
      <point x="89.0" y="702.0"/>
      <point x="93.0" y="702.0" type="curve" smooth="yes"/>
      <point x="531.0" y="702.0" type="line" smooth="yes"/>
      <point x="535.0" y="702.0"/>
      <point x="537.0" y="701.0"/>
      <point x="536.0" y="697.0" type="curve" smooth="yes"/>
      <point x="531.0" y="675.0" type="line" smooth="yes"/>
      <point x="530.0" y="671.0"/>
      <point x="528.0" y="671.0"/>
      <point x="524.0" y="671.0" type="curve" smooth="yes"/>
      <point x="86.0" y="671.0" type="line" smooth="yes"/>
      <point x="82.0" y="671.0"/>
      <point x="80.0" y="671.0"/>
    </contour>
    <contour>
      <point x="357.0" y="935.0" type="curve" smooth="yes"/>
      <point x="375.0" y="935.0" type="line" smooth="yes"/>
      <point x="379.0" y="935.0"/>
      <point x="381.0" y="934.0"/>
      <point x="380.0" y="930.0" type="curve" smooth="yes"/>
      <point x="264.0" y="430.0" type="line" smooth="yes"/>
      <point x="263.0" y="426.0"/>
      <point x="261.0" y="425.0"/>
      <point x="257.0" y="425.0" type="curve" smooth="yes"/>
      <point x="239.0" y="425.0" type="line" smooth="yes"/>
      <point x="235.0" y="425.0"/>
      <point x="233.0" y="426.0"/>
      <point x="234.0" y="430.0" type="curve" smooth="yes"/>
      <point x="350.0" y="930.0" type="line" smooth="yes"/>
      <point x="351.0" y="934.0"/>
      <point x="353.0" y="935.0"/>
    </contour>
  </outline>
</glyph>
<glyph name="comma" format="2">
  <advance height="1920" width="275"/>
  <unicode hex="002C"/>
  <outline>
    <contour>
      <point x="-64.0" y="-210.0" type="curve" smooth="yes"/>
      <point x="-66.0" y="-210.0" type="line" smooth="yes"/>
      <point x="-73.0" y="-210.0"/>
      <point x="-74.0" y="-208.0"/>
      <point x="-70.0" y="-200.0" type="curve" smooth="yes"/>
      <point x="14.0" y="0.0" type="line"/>
      <point x="8.0" y="0.0" type="line" smooth="yes"/>
      <point x="-1.0" y="0.0"/>
      <point x="-2.0" y="1.0"/>
      <point x="0.0" y="10.0" type="curve" smooth="yes"/>
      <point x="44.0" y="200.0" type="line" smooth="yes"/>
      <point x="46.0" y="207.0"/>
      <point x="49.0" y="210.0"/>
      <point x="56.0" y="210.0" type="curve" smooth="yes"/>
      <point x="76.0" y="210.0" type="line" smooth="yes"/>
      <point x="83.0" y="210.0"/>
      <point x="86.0" y="207.0"/>
      <point x="84.0" y="200.0" type="curve" smooth="yes"/>
      <point x="43.0" y="20.0" type="line" smooth="yes"/>
      <point x="41.0" y="13.0"/>
      <point x="40.0" y="7.0"/>
      <point x="36.0" y="0.0" type="curve" smooth="yes"/>
      <point x="-52.0" y="-200.0" type="line" smooth="yes"/>
      <point x="-56.0" y="-209.0"/>
      <point x="-58.0" y="-210.0"/>
    </contour>
  </outline>
</glyph>
<glyph name="hyphen" format="2">
  <advance height="1920" width="329"/>
  <unicode hex="002D"/>
  <outline>
    <contour>
      <point x="61.0" y="603.0" type="curve" smooth="yes"/>
      <point x="66.0" y="622.0" type="line" smooth="yes"/>
      <point x="67.0" y="626.0"/>
      <point x="69.0" y="627.0"/>
      <point x="73.0" y="627.0" type="curve" smooth="yes"/>
      <point x="307.0" y="627.0" type="line" smooth="yes"/>
      <point x="311.0" y="627.0"/>
      <point x="313.0" y="626.0"/>
      <point x="312.0" y="622.0" type="curve" smooth="yes"/>
      <point x="307.0" y="603.0" type="line" smooth="yes"/>
      <point x="306.0" y="599.0"/>
      <point x="304.0" y="598.0"/>
      <point x="300.0" y="598.0" type="curve" smooth="yes"/>
      <point x="66.0" y="598.0" type="line" smooth="yes"/>
      <point x="62.0" y="598.0"/>
      <point x="60.0" y="599.0"/>
    </contour>
  </outline>
</glyph>
<glyph name="period" format="2">
  <advance height="1920" width="275"/>
  <unicode hex="002E"/>
  <outline>
    <contour>
      <point x="28.0" y="0.0" type="curve" smooth="yes"/>
      <point x="8.0" y="0.0" type="line" smooth="yes"/>
      <point x="1.0" y="0.0"/>
      <point x="-2.0" y="3.0"/>
      <point x="0.0" y="10.0" type="curve" smooth="yes"/>
      <point x="44.0" y="200.0" type="line" smooth="yes"/>
      <point x="46.0" y="207.0"/>
      <point x="49.0" y="210.0"/>
      <point x="56.0" y="210.0" type="curve" smooth="yes"/>
      <point x="76.0" y="210.0" type="line" smooth="yes"/>
      <point x="83.0" y="210.0"/>
      <point x="86.0" y="207.0"/>
      <point x="84.0" y="200.0" type="curve" smooth="yes"/>
      <point x="40.0" y="10.0" type="line" smooth="yes"/>
      <point x="38.0" y="3.0"/>
      <point x="35.0" y="0.0"/>
    </contour>
  </outline>
</glyph>
<glyph name="slash" format="2">
  <advance height="2048" width="380"/>
  <unicode hex="002F"/>
  <outline>
    <contour>
      <point x="564.0" y="1395.0" type="curve" smooth="yes"/>
      <point x="-89.0" y="-95.0" type="line" smooth="yes"/>
      <point x="-92.0" y="-99.0"/>
      <point x="-93.0" y="-100.0"/>
      <point x="-97.0" y="-100.0" type="curve" smooth="yes"/>
      <point x="-115.0" y="-100.0" type="line" smooth="yes"/>
      <point x="-119.0" y="-100.0"/>
      <point x="-121.0" y="-99.0"/>
      <point x="-119.0" y="-95.0" type="curve" smooth="yes"/>
      <point x="534.0" y="1395.0" type="line" smooth="yes"/>
      <point x="536.0" y="1399.0"/>
      <point x="539.0" y="1400.0"/>
      <point x="542.0" y="1400.0" type="curve" smooth="yes"/>
      <point x="560.0" y="1400.0" type="line" smooth="yes"/>
      <point x="564.0" y="1400.0"/>
      <point x="566.0" y="1399.0"/>
    </contour>
  </outline>
</glyph>
<glyph name="zero" format="2">
  <advance height="1920" width="380"/>
  <unicode hex="0030"/>
  <outline>
    <contour>
      <point x="4.0" y="244.0" type="curve" smooth="yes"/>
      <point x="215.0" y="1155.0" type="line" smooth="yes"/>
      <point x="253.0" y="1318.0"/>
      <point x="283.0" y="1405.0"/>
      <point x="394.0" y="1405.0" type="curve" smooth="yes"/>
      <point x="505.0" y="1405.0"/>
      <point x="497.0" y="1318.0"/>
      <point x="459.0" y="1155.0" type="curve" smooth="yes"/>
      <point x="248.0" y="244.0" type="line" smooth="yes"/>
      <point x="210.0" y="81.0"/>
      <point x="180.0" y="-5.0"/>
      <point x="69.0" y="-5.0" type="curve" smooth="yes"/>
      <point x="-42.0" y="-5.0"/>
      <point x="-34.0" y="81.0"/>
    </contour>
    <contour>
      <point x="37.0" y="254.0" type="line" smooth="yes"/>
      <point x="8.0" y="130.0"/>
      <point x="-11.0" y="25.0"/>
      <point x="76.0" y="25.0" type="curve" smooth="yes"/>
      <point x="163.0" y="25.0"/>
      <point x="192.0" y="130.0"/>
      <point x="221.0" y="254.0" type="curve" smooth="yes"/>
      <point x="426.0" y="1145.0" type="line" smooth="yes"/>
      <point x="455.0" y="1269.0"/>
      <point x="474.0" y="1375.0"/>
      <point x="387.0" y="1375.0" type="curve" smooth="yes"/>
      <point x="300.0" y="1375.0"/>
      <point x="271.0" y="1269.0"/>
      <point x="242.0" y="1145.0" type="curve" smooth="yes"/>
    </contour>
  </outline>
</glyph>
<glyph name="one" format="2">
  <advance height="1920" width="232"/>
  <unicode hex="0031"/>
  <outline>
    <contour>
      <point x="305.0" y="1376.0" type="curve" smooth="yes"/>
      <point x="315.0" y="1384.0"/>
      <point x="317.0" y="1400.0"/>
      <point x="327.0" y="1440.0" type="curve" smooth="yes"/>
      <point x="329.0" y="1447.0"/>
      <point x="330.0" y="1450.0"/>
      <point x="337.0" y="1450.0" type="curve" smooth="yes"/>
      <point x="339.0" y="1450.0" type="line" smooth="yes"/>
      <point x="346.0" y="1450.0"/>
      <point x="345.0" y="1447.0"/>
      <point x="343.0" y="1440.0" type="curve" smooth="yes"/>
      <point x="13.0" y="10.0" type="line" smooth="yes"/>
      <point x="11.0" y="3.0"/>
      <point x="8.0" y="0.0"/>
      <point x="1.0" y="0.0" type="curve" smooth="yes"/>
      <point x="-9.0" y="0.0" type="line" smooth="yes"/>
      <point x="-16.0" y="0.0"/>
      <point x="-19.0" y="3.0"/>
      <point x="-17.0" y="10.0" type="curve" smooth="yes"/>
      <point x="296.0" y="1364.0" type="line" smooth="yes"/>
      <point x="298.0" y="1371.0"/>
      <point x="301.0" y="1373.0"/>
    </contour>
  </outline>
</glyph>
<glyph name="two" format="2">
  <advance height="1920" width="357"/>
  <unicode hex="0032"/>
  <outline>
    <contour>
      <point x="-30.0" y="130.0" type="line" smooth="yes"/>
      <point x="51.0" y="482.0"/>
      <point x="292.0" y="668.0"/>
      <point x="361.0" y="967.0" type="curve" smooth="yes"/>
      <point x="401.0" y="1138.0" type="line" smooth="yes"/>
      <point x="444.0" y="1323.0"/>
      <point x="444.0" y="1375.0"/>
      <point x="382.0" y="1375.0" type="curve" smooth="yes"/>
      <point x="312.0" y="1375.0"/>
      <point x="275.0" y="1270.0"/>
      <point x="245.0" y="1140.0" type="curve" smooth="yes"/>
      <point x="171.0" y="817.0" type="line" smooth="yes"/>
      <point x="170.0" y="813.0"/>
      <point x="169.0" y="812.0"/>
      <point x="165.0" y="812.0" type="curve" smooth="yes"/>
      <point x="145.0" y="812.0" type="line" smooth="yes"/>
      <point x="141.0" y="812.0"/>
      <point x="140.0" y="813.0"/>
      <point x="141.0" y="817.0" type="curve" smooth="yes"/>
      <point x="215.0" y="1140.0" type="line" smooth="yes"/>
      <point x="257.0" y="1321.0"/>
      <point x="305.0" y="1405.0"/>
      <point x="389.0" y="1405.0" type="curve" smooth="yes"/>
      <point x="478.0" y="1405.0"/>
      <point x="477.0" y="1340.0"/>
      <point x="430.0" y="1135.0" type="curve" smooth="yes"/>
      <point x="400.0" y="1005.0" type="line" smooth="yes"/>
      <point x="317.0" y="647.0"/>
      <point x="77.0" y="460.0"/>
      <point x="5.0" y="150.0" type="curve" smooth="yes"/>
      <point x="-23.0" y="30.0" type="line"/>
      <point x="187.0" y="30.0" type="line" smooth="yes"/>
      <point x="191.0" y="30.0"/>
      <point x="192.0" y="29.0"/>
      <point x="191.0" y="25.0" type="curve" smooth="yes"/>
      <point x="186.0" y="5.0" type="line" smooth="yes"/>
      <point x="185.0" y="1.0"/>
      <point x="184.0" y="0.0"/>
      <point x="180.0" y="0.0" type="curve" smooth="yes"/>
      <point x="-55.0" y="0.0" type="line" smooth="yes"/>
      <point x="-59.0" y="0.0"/>
      <point x="-60.0" y="1.0"/>
      <point x="-59.0" y="5.0" type="curve" smooth="yes"/>
    </contour>
  </outline>
</glyph>
<glyph name="four" format="2">
  <advance height="1920" width="425"/>
  <unicode hex="0034"/>
  <outline>
    <contour>
      <point x="363.0" y="430.0" type="curve" smooth="yes"/>
      <point x="359.0" y="410.0" type="line" smooth="yes"/>
      <point x="358.0" y="406.0"/>
      <point x="357.0" y="405.0"/>
      <point x="353.0" y="405.0" type="curve" smooth="yes"/>
      <point x="263.0" y="405.0" type="line"/>
      <point x="170.0" y="5.0" type="line" smooth="yes"/>
      <point x="169.0" y="1.0"/>
      <point x="168.0" y="0.0"/>
      <point x="164.0" y="0.0" type="curve" smooth="yes"/>
      <point x="144.0" y="0.0" type="line" smooth="yes"/>
      <point x="140.0" y="0.0"/>
      <point x="139.0" y="1.0"/>
      <point x="140.0" y="5.0" type="curve" smooth="yes"/>
      <point x="233.0" y="405.0" type="line"/>
      <point x="-2.0" y="405.0" type="line" smooth="yes"/>
      <point x="-6.0" y="405.0"/>
      <point x="-7.0" y="406.0"/>
      <point x="-6.0" y="410.0" type="curve" smooth="yes"/>
      <point x="-4.0" y="420.0" type="line" smooth="yes"/>
      <point x="-3.0" y="424.0"/>
      <point x="0.0" y="431.0"/>
      <point x="2.0" y="435.0" type="curve" smooth="yes"/>
      <point x="472.0" y="1395.0" type="line" smooth="yes"/>
      <point x="474.0" y="1398.0"/>
      <point x="475.0" y="1400.0"/>
      <point x="479.0" y="1400.0" type="curve" smooth="yes"/>
      <point x="487.0" y="1400.0" type="line" smooth="yes"/>
      <point x="491.0" y="1400.0"/>
      <point x="492.0" y="1399.0"/>
      <point x="491.0" y="1395.0" type="curve" smooth="yes"/>
      <point x="269.0" y="435.0" type="line"/>
      <point x="359.0" y="435.0" type="line" smooth="yes"/>
      <point x="363.0" y="435.0"/>
      <point x="364.0" y="434.0"/>
    </contour>
    <contour>
      <point x="239.0" y="435.0" type="line"/>
      <point x="430.0" y="1260.0" type="line"/>
      <point x="26.0" y="435.0" type="line"/>
    </contour>
  </outline>
</glyph>
<glyph name="five" format="2">
  <advance height="1920" width="366"/>
  <unicode hex="0035"/>
  <outline>
    <contour>
      <point x="40.0" y="364.0" type="curve" smooth="yes"/>
      <point x="60.0" y="364.0" type="line" smooth="yes"/>
      <point x="63.0" y="364.0"/>
      <point x="65.0" y="363.0"/>
      <point x="64.0" y="360.0" type="curve" smooth="yes"/>
      <point x="2.0" y="91.0"/>
      <point x="12.0" y="25.0"/>
      <point x="64.0" y="25.0" type="curve" smooth="yes"/>
      <point x="128.0" y="25.0"/>
      <point x="167.0" y="133.0"/>
      <point x="210.0" y="319.0" type="curve" smooth="yes"/>
      <point x="277.0" y="612.0" type="line" smooth="yes"/>
      <point x="328.0" y="832.0"/>
      <point x="328.0" y="908.0"/>
      <point x="286.0" y="908.0" type="curve" smooth="yes"/>
      <point x="241.0" y="908.0"/>
      <point x="200.0" y="827.0"/>
      <point x="152.0" y="659.0" type="curve" smooth="yes"/>
      <point x="151.0" y="655.0"/>
      <point x="146.0" y="653.0"/>
      <point x="143.0" y="653.0" type="curve" smooth="yes"/>
      <point x="117.0" y="653.0" type="line" smooth="yes"/>
      <point x="113.0" y="653.0"/>
      <point x="112.0" y="655.0"/>
      <point x="114.0" y="659.0" type="curve" smooth="yes"/>
      <point x="318.0" y="1395.0" type="line" smooth="yes"/>
      <point x="320.0" y="1398.0"/>
      <point x="321.0" y="1400.0"/>
      <point x="325.0" y="1400.0" type="curve" smooth="yes"/>
      <point x="535.0" y="1400.0" type="line" smooth="yes"/>
      <point x="539.0" y="1400.0"/>
      <point x="539.0" y="1399.0"/>
      <point x="538.0" y="1395.0" type="curve" smooth="yes"/>
      <point x="537.0" y="1392.0" type="line" smooth="yes"/>
      <point x="533.0" y="1376.0"/>
      <point x="517.0" y="1370.0"/>
      <point x="432.0" y="1370.0" type="curve" smooth="yes"/>
      <point x="341.0" y="1370.0" type="line"/>
      <point x="152.0" y="690.0" type="line"/>
      <point x="144.0" y="690.0" type="line"/>
      <point x="177.0" y="802.0"/>
      <point x="223.0" y="938.0"/>
      <point x="293.0" y="938.0" type="curve" smooth="yes"/>
      <point x="368.0" y="938.0"/>
      <point x="364.0" y="854.0"/>
      <point x="304.0" y="596.0" type="curve" smooth="yes"/>
      <point x="234.0" y="294.0" type="line" smooth="yes"/>
      <point x="184.0" y="76.0"/>
      <point x="138.0" y="-5.0"/>
      <point x="57.0" y="-5.0" type="curve" smooth="yes"/>
      <point x="-20.0" y="-5.0"/>
      <point x="-33.0" y="51.0"/>
      <point x="34.0" y="359.0" type="curve" smooth="yes"/>
      <point x="35.0" y="363.0"/>
      <point x="36.0" y="364.0"/>
    </contour>
  </outline>
</glyph>
<glyph name="seven" format="2">
  <advance height="1920" width="334"/>
  <unicode hex="0037"/>
  <outline>
    <contour>
      <point x="506.0" y="1395.0" type="curve" smooth="yes"/>
      <point x="-1.0" y="5.0" type="line" smooth="yes"/>
      <point x="-4.0" y="1.0"/>
      <point x="-6.0" y="0.0"/>
      <point x="-10.0" y="0.0" type="curve" smooth="yes"/>
      <point x="-28.0" y="0.0" type="line" smooth="yes"/>
      <point x="-32.0" y="0.0"/>
      <point x="-34.0" y="2.0"/>
      <point x="-31.0" y="5.0" type="curve" smooth="yes"/>
      <point x="472.0" y="1370.0" type="line"/>
      <point x="226.0" y="1370.0" type="line" smooth="yes"/>
      <point x="222.0" y="1370.0"/>
      <point x="222.0" y="1371.0"/>
      <point x="223.0" y="1375.0" type="curve" smooth="yes"/>
      <point x="228.0" y="1395.0" type="line" smooth="yes"/>
      <point x="229.0" y="1399.0"/>
      <point x="229.0" y="1400.0"/>
      <point x="233.0" y="1400.0" type="curve" smooth="yes"/>
      <point x="503.0" y="1400.0" type="line" smooth="yes"/>
      <point x="507.0" y="1400.0"/>
      <point x="509.0" y="1398.0"/>
    </contour>
  </outline>
</glyph>
<glyph name="nine" format="2">
  <advance height="1920" width="406"/>
  <unicode hex="0039"/>
  <outline>
    <contour>
      <point x="217.0" y="636.0" type="curve" smooth="yes"/>
      <point x="297.0" y="636.0"/>
      <point x="353.0" y="713.0"/>
      <point x="374.0" y="805.0" type="curve" smooth="yes"/>
      <point x="382.0" y="840.0" type="line"/>
      <point x="378.0" y="790.0" type="line"/>
      <point x="352.0" y="678.0"/>
      <point x="298.0" y="606.0"/>
      <point x="210.0" y="606.0" type="curve" smooth="yes"/>
      <point x="122.0" y="606.0"/>
      <point x="104.0" y="666.0"/>
      <point x="140.0" y="823.0" type="curve" smooth="yes"/>
      <point x="226.0" y="1196.0" type="line" smooth="yes"/>
      <point x="258.0" y="1335.0"/>
      <point x="298.0" y="1405.0"/>
      <point x="404.0" y="1405.0" type="curve" smooth="yes"/>
      <point x="542.0" y="1405.0"/>
      <point x="522.0" y="1316.0"/>
      <point x="480.0" y="1136.0" type="curve" smooth="yes"/>
      <point x="282.0" y="279.0" type="line" smooth="yes"/>
      <point x="236.0" y="79.0"/>
      <point x="193.0" y="-5.0"/>
      <point x="85.0" y="-5.0" type="curve" smooth="yes"/>
      <point x="-23.0" y="-5.0"/>
      <point x="-28.0" y="78.0"/>
      <point x="2.0" y="210.0" type="curve" smooth="yes"/>
      <point x="57.0" y="445.0" type="line" smooth="yes"/>
      <point x="58.0" y="449.0"/>
      <point x="58.0" y="450.0"/>
      <point x="62.0" y="450.0" type="curve" smooth="yes"/>
      <point x="82.0" y="450.0" type="line" smooth="yes"/>
      <point x="86.0" y="450.0"/>
      <point x="88.0" y="449.0"/>
      <point x="87.0" y="445.0" type="curve" smooth="yes"/>
      <point x="32.0" y="210.0" type="line" smooth="yes"/>
      <point x="4.0" y="89.0"/>
      <point x="13.0" y="25.0"/>
      <point x="92.0" y="25.0" type="curve" smooth="yes"/>
      <point x="169.0" y="25.0"/>
      <point x="209.0" y="92.0"/>
      <point x="253.0" y="282.0" type="curve" smooth="yes"/>
      <point x="463.0" y="1189.0" type="line" smooth="yes"/>
      <point x="492.0" y="1314.0"/>
      <point x="491.0" y="1375.0"/>
      <point x="397.0" y="1375.0" type="curve" smooth="yes"/>
      <point x="317.0" y="1375.0"/>
      <point x="283.0" y="1312.0"/>
      <point x="255.0" y="1192.0" type="curve" smooth="yes"/>
      <point x="170.0" y="823.0" type="line" smooth="yes"/>
      <point x="137.0" y="681.0"/>
      <point x="155.0" y="636.0"/>
    </contour>
  </outline>
</glyph>
<glyph name="less" format="2">
  <advance height="1920" width="489"/>
  <unicode hex="003C"/>
  <outline>
    <contour>
      <point x="399.0" y="362.0" type="curve" smooth="yes"/>
      <point x="65.0" y="591.0" type="line" smooth="yes"/>
      <point x="62.0" y="593.0"/>
      <point x="62.0" y="595.0"/>
      <point x="63.0" y="599.0" type="curve" smooth="yes"/>
      <point x="64.0" y="601.0" type="line" smooth="yes"/>
      <point x="65.0" y="605.0"/>
      <point x="67.0" y="607.0"/>
      <point x="70.0" y="609.0" type="curve" smooth="yes"/>
      <point x="508.0" y="838.0" type="line" smooth="yes"/>
      <point x="511.0" y="840.0"/>
      <point x="513.0" y="840.0"/>
      <point x="512.0" y="836.0" type="curve" smooth="yes"/>
      <point x="508.0" y="818.0" type="line" smooth="yes"/>
      <point x="507.0" y="814.0"/>
      <point x="505.0" y="812.0"/>
      <point x="502.0" y="810.0" type="curve" smooth="yes"/>
      <point x="98.0" y="600.0" type="line"/>
      <point x="405.0" y="390.0" type="line" smooth="yes"/>
      <point x="408.0" y="388.0"/>
      <point x="408.0" y="386.0"/>
      <point x="407.0" y="382.0" type="curve" smooth="yes"/>
      <point x="403.0" y="364.0" type="line" smooth="yes"/>
      <point x="402.0" y="360.0"/>
      <point x="402.0" y="360.0"/>
    </contour>
  </outline>
</glyph>
<glyph name="equal" format="2">
  <advance height="1920" width="530"/>
  <unicode hex="003D"/>
  <outline>
    <contour>
      <point x="22.0" y="419.0" type="curve" smooth="yes"/>
      <point x="26.0" y="439.0" type="line" smooth="yes"/>
      <point x="27.0" y="443.0"/>
      <point x="29.0" y="444.0"/>
      <point x="33.0" y="444.0" type="curve" smooth="yes"/>
      <point x="463.0" y="444.0" type="line" smooth="yes"/>
      <point x="467.0" y="444.0"/>
      <point x="467.0" y="443.0"/>
      <point x="466.0" y="439.0" type="curve" smooth="yes"/>
      <point x="462.0" y="419.0" type="line" smooth="yes"/>
      <point x="461.0" y="415.0"/>
      <point x="460.0" y="414.0"/>
      <point x="456.0" y="414.0" type="curve" smooth="yes"/>
      <point x="26.0" y="414.0" type="line" smooth="yes"/>
      <point x="22.0" y="414.0"/>
      <point x="21.0" y="415.0"/>
    </contour>
    <contour>
      <point x="53.0" y="556.0" type="curve" smooth="yes"/>
      <point x="58.0" y="576.0" type="line" smooth="yes"/>
      <point x="59.0" y="580.0"/>
      <point x="60.0" y="581.0"/>
      <point x="64.0" y="581.0" type="curve" smooth="yes"/>
      <point x="494.0" y="581.0" type="line" smooth="yes"/>
      <point x="498.0" y="581.0"/>
      <point x="499.0" y="580.0"/>
      <point x="498.0" y="576.0" type="curve" smooth="yes"/>
      <point x="493.0" y="556.0" type="line" smooth="yes"/>
      <point x="492.0" y="552.0"/>
      <point x="491.0" y="551.0"/>
      <point x="487.0" y="551.0" type="curve" smooth="yes"/>
      <point x="57.0" y="551.0" type="line" smooth="yes"/>
      <point x="53.0" y="551.0"/>
      <point x="52.0" y="552.0"/>
    </contour>
  </outline>
</glyph>
<glyph name="greater" format="2">
  <advance height="1920" width="489"/>
  <unicode hex="003E"/>
  <outline>
    <contour>
      <point x="127.0" y="838.0" type="curve" smooth="yes"/>
      <point x="461.0" y="609.0" type="line" smooth="yes"/>
      <point x="464.0" y="607.0"/>
      <point x="464.0" y="605.0"/>
      <point x="463.0" y="601.0" type="curve" smooth="yes"/>
      <point x="462.0" y="599.0" type="line" smooth="yes"/>
      <point x="461.0" y="595.0"/>
      <point x="459.0" y="593.0"/>
      <point x="456.0" y="591.0" type="curve" smooth="yes"/>
      <point x="18.0" y="362.0" type="line" smooth="yes"/>
      <point x="15.0" y="360.0"/>
      <point x="13.0" y="360.0"/>
      <point x="14.0" y="364.0" type="curve" smooth="yes"/>
      <point x="18.0" y="382.0" type="line" smooth="yes"/>
      <point x="19.0" y="386.0"/>
      <point x="21.0" y="388.0"/>
      <point x="24.0" y="390.0" type="curve" smooth="yes"/>
      <point x="429.0" y="600.0" type="line"/>
      <point x="121.0" y="810.0" type="line" smooth="yes"/>
      <point x="118.0" y="812.0"/>
      <point x="118.0" y="814.0"/>
      <point x="119.0" y="818.0" type="curve" smooth="yes"/>
      <point x="123.0" y="836.0" type="line" smooth="yes"/>
      <point x="124.0" y="840.0"/>
      <point x="124.0" y="840.0"/>
    </contour>
  </outline>
</glyph>
<glyph name="question" format="2">
  <advance height="1920" width="396"/>
  <unicode hex="003F"/>
  <outline>
    <contour>
      <point x="78.0" y="0.0" type="curve" smooth="yes"/>
      <point x="58.0" y="0.0" type="line" smooth="yes"/>
      <point x="51.0" y="0.0"/>
      <point x="48.0" y="3.0"/>
      <point x="50.0" y="10.0" type="curve" smooth="yes"/>
      <point x="94.0" y="200.0" type="line" smooth="yes"/>
      <point x="96.0" y="207.0"/>
      <point x="99.0" y="210.0"/>
      <point x="106.0" y="210.0" type="curve" smooth="yes"/>
      <point x="126.0" y="210.0" type="line" smooth="yes"/>
      <point x="133.0" y="210.0"/>
      <point x="136.0" y="207.0"/>
      <point x="134.0" y="200.0" type="curve" smooth="yes"/>
      <point x="90.0" y="10.0" type="line" smooth="yes"/>
      <point x="88.0" y="3.0"/>
      <point x="85.0" y="0.0"/>
    </contour>
    <contour>
      <point x="162.0" y="400.0" type="curve" smooth="yes"/>
      <point x="160.0" y="400.0" type="line" smooth="yes"/>
      <point x="156.0" y="400.0"/>
      <point x="154.0" y="401.0"/>
      <point x="155.0" y="404.0" type="curve" smooth="yes"/>
      <point x="196.0" y="585.0"/>
      <point x="305.0" y="645.0"/>
      <point x="383.0" y="982.0" type="curve" smooth="yes"/>
      <point x="441.0" y="1233.0" type="line" smooth="yes"/>
      <point x="464.0" y="1333.0"/>
      <point x="468.0" y="1437.0"/>
      <point x="410.0" y="1437.0" type="curve" smooth="yes"/>
      <point x="340.0" y="1437.0"/>
      <point x="305.0" y="1321.0"/>
      <point x="283.0" y="1225.0" type="curve" smooth="yes"/>
      <point x="221.0" y="957.0" type="line" smooth="yes"/>
      <point x="220.0" y="953.0"/>
      <point x="220.0" y="952.0"/>
      <point x="216.0" y="952.0" type="curve" smooth="yes"/>
      <point x="196.0" y="952.0" type="line" smooth="yes"/>
      <point x="192.0" y="952.0"/>
      <point x="190.0" y="953.0"/>
      <point x="191.0" y="957.0" type="curve" smooth="yes"/>
      <point x="253.0" y="1225.0" type="line" smooth="yes"/>
      <point x="279.0" y="1337.0"/>
      <point x="323.0" y="1467.0"/>
      <point x="417.0" y="1467.0" type="curve" smooth="yes"/>
      <point x="505.0" y="1467.0"/>
      <point x="496.0" y="1345.0"/>
      <point x="471.0" y="1235.0" type="curve" smooth="yes"/>
      <point x="415.0" y="994.0" type="line" smooth="yes"/>
      <point x="344.0" y="687.0"/>
      <point x="203.0" y="557.0"/>
      <point x="169.0" y="404.0" type="curve" smooth="yes"/>
      <point x="168.0" y="401.0"/>
      <point x="165.0" y="400.0"/>
    </contour>
  </outline>
</glyph>
<glyph name="at" format="2">
  <advance height="1920" width="770"/>
  <unicode hex="0040"/>
  <outline>
    <contour>
      <point x="399.0" y="199.0" type="line"/>
      <point x="372.0" y="84.0"/>
      <point x="327.0" y="-5.0"/>
      <point x="249.0" y="-5.0" type="curve" smooth="yes"/>
      <point x="185.0" y="-5.0"/>
      <point x="172.0" y="61.0"/>
      <point x="207.0" y="211.0" type="curve" smooth="yes"/>
      <point x="351.0" y="838.0" type="line" smooth="yes"/>
      <point x="388.0" y="998.0"/>
      <point x="425.0" y="1055.0"/>
      <point x="489.0" y="1055.0" type="curve" smooth="yes"/>
      <point x="558.0" y="1055.0"/>
      <point x="582.0" y="966.0"/>
      <point x="555.0" y="851.0" type="curve"/>
      <point x="536.0" y="841.0" type="line"/>
      <point x="560.0" y="946.0"/>
      <point x="535.0" y="1025.0"/>
      <point x="487.0" y="1025.0" type="curve" smooth="yes"/>
      <point x="433.0" y="1025.0"/>
      <point x="408.0" y="956.0"/>
      <point x="384.0" y="851.0" type="curve" smooth="yes"/>
      <point x="234.0" y="199.0" type="line" smooth="yes"/>
      <point x="210.0" y="94.0"/>
      <point x="217.0" y="25.0"/>
      <point x="261.0" y="25.0" type="curve" smooth="yes"/>
      <point x="319.0" y="25.0"/>
      <point x="366.0" y="104.0"/>
      <point x="390.0" y="209.0" type="curve"/>
    </contour>
    <contour>
      <point x="374.0" y="-312.0" type="curve" smooth="yes"/>
      <point x="333.0" y="-342.0"/>
      <point x="268.0" y="-365.0"/>
      <point x="188.0" y="-365.0" type="curve" smooth="yes"/>
      <point x="-56.0" y="-365.0"/>
      <point x="-74.0" y="-191.0"/>
      <point x="-19.0" y="49.0" type="curve" smooth="yes"/>
      <point x="199.0" y="990.0" type="line" smooth="yes"/>
      <point x="258.0" y="1245.0"/>
      <point x="372.0" y="1405.0"/>
      <point x="596.0" y="1405.0" type="curve" smooth="yes"/>
      <point x="844.0" y="1405.0"/>
      <point x="845.0" y="1232.0"/>
      <point x="795.0" y="1016.0" type="curve" smooth="yes"/>
      <point x="614.0" y="235.0" type="line" smooth="yes"/>
      <point x="572.0" y="55.0"/>
      <point x="531.0" y="-5.0"/>
      <point x="453.0" y="-5.0" type="curve" smooth="yes"/>
      <point x="375.0" y="-5.0"/>
      <point x="355.0" y="55.0"/>
      <point x="380.0" y="165.0" type="curve" smooth="yes"/>
      <point x="559.0" y="941.0" type="line"/>
      <point x="598.0" y="1061.0" type="line" smooth="yes"/>
      <point x="599.0" y="1064.0"/>
      <point x="601.0" y="1067.0"/>
      <point x="605.0" y="1067.0" type="curve" smooth="yes"/>
      <point x="612.0" y="1067.0" type="line" smooth="yes"/>
      <point x="616.0" y="1067.0"/>
      <point x="618.0" y="1065.0"/>
      <point x="617.0" y="1061.0" type="curve" smooth="yes"/>
      <point x="415.0" y="185.0" type="line" smooth="yes"/>
      <point x="393.0" y="88.0"/>
      <point x="396.0" y="25.0"/>
      <point x="460.0" y="25.0" type="curve" smooth="yes"/>
      <point x="514.0" y="25.0"/>
      <point x="552.0" y="95.0"/>
      <point x="584.0" y="235.0" type="curve" smooth="yes"/>
      <point x="765.0" y="1016.0" type="line" smooth="yes"/>
      <point x="813.0" y="1226.0"/>
      <point x="797.0" y="1375.0"/>
      <point x="589.0" y="1375.0" type="curve" smooth="yes"/>
      <point x="391.0" y="1375.0"/>
      <point x="283.0" y="1226.0"/>
      <point x="230.0" y="996.0" type="curve" smooth="yes"/>
      <point x="10.0" y="45.0" type="line" smooth="yes"/>
      <point x="-38.0" y="-165.0"/>
      <point x="-29.0" y="-335.0"/>
      <point x="195.0" y="-335.0" type="curve" smooth="yes"/>
      <point x="271.0" y="-335.0"/>
      <point x="323.0" y="-312.0"/>
      <point x="365.0" y="-284.0" type="curve" smooth="yes"/>
      <point x="370.0" y="-281.0"/>
      <point x="372.0" y="-282.0"/>
      <point x="372.0" y="-286.0" type="curve" smooth="yes"/>
      <point x="378.0" y="-303.0" type="line" smooth="yes"/>
      <point x="378.0" y="-307.0"/>
      <point x="378.0" y="-309.0"/>
    </contour>
  </outline>
</glyph>
<glyph name="A" format="2">
  <advance height="960" width="351"/>
  <unicode hex="0041"/>
  <anchor x="67.0" y="0.0" name="bottom"/>
  <anchor x="210.0" y="0.0" name="ogonek"/>
  <anchor x="394.0" y="1400.0" name="top"/>
  <outline>
    <contour>
      <point x="85.8232421875" y="475.0" type="line"/>
      <point x="263.615234375" y="475.0" type="line"/>
      <point x="256.623046875" y="445.0" type="line"/>
      <point x="78.8310546875" y="445.0" type="line"/>
    </contour>
    <contour>
      <point x="376.157226562" y="1345.0" type="line"/>
      <point x="-46.59375" y="5.0" type="line" smooth="yes"/>
      <point x="-48.466796875" y="2.0"/>
      <point x="-50.31640625" y="0.0"/>
      <point x="-53.92578125" y="0.0" type="curve" smooth="yes"/>
      <point x="-70.92578125" y="0.0" type="line" smooth="yes"/>
      <point x="-74.92578125" y="0.0"/>
      <point x="-74.92578125" y="2.0"/>
      <point x="-72.92578125" y="5.0" type="curve" smooth="yes"/>
      <point x="367.354492188" y="1395.0" type="line" smooth="yes"/>
      <point x="369.227539062" y="1398.0"/>
      <point x="371.077148438" y="1400.0"/>
      <point x="374.686523438" y="1400.0" type="curve" smooth="yes"/>
      <point x="402.665039062" y="1400.0" type="line" smooth="yes"/>
      <point x="406.274414062" y="1400.0"/>
      <point x="407.1328125" y="1398.0"/>
      <point x="407.064453125" y="1395.0" type="curve" smooth="yes"/>
      <point x="218.846679688" y="5.0" type="line" smooth="yes"/>
      <point x="218.846679688" y="2.0"/>
      <point x="218.846679688" y="0.0"/>
      <point x="214.846679688" y="0.0" type="curve" smooth="yes"/>
      <point x="188.846679688" y="0.0" type="line" smooth="yes"/>
      <point x="185.236328125" y="0.0"/>
      <point x="183.454101562" y="1.0"/>
      <point x="183.543945312" y="5.0" type="curve" smooth="yes"/>
    </contour>
  </outline>
</glyph>
<glyph name="B" format="2">
  <advance height="960" width="352"/>
  <unicode hex="0042"/>
  <anchor x="72.0" y="0.0" name="bottom"/>
  <anchor x="395.0" y="1400.0" name="top"/>
  <outline>
    <contour>
      <point x="157.305664062" y="725.0" type="line"/>
      <point x="230.408203125" y="725.0" type="line" smooth="yes"/>
      <point x="292.680664062" y="725.0"/>
      <point x="341.375" y="802.0"/>
      <point x="373.375" y="942.0" type="curve" smooth="yes"/>
      <point x="418.375" y="1134.0" type="line" smooth="yes"/>
      <point x="455.375" y="1294.0"/>
      <point x="450.696289062" y="1370.0"/>
      <point x="379.399414062" y="1370.0" type="curve" smooth="yes"/>
      <point x="306.295898438" y="1370.0" type="line"/>
    </contour>
    <contour>
      <point x="241.915039062" y="715.0" type="line"/>
      <point x="322.375" y="715.0"/>
      <point x="358.375" y="655.0"/>
      <point x="316.23828125" y="481.0" type="curve" smooth="yes"/>
      <point x="266.23828125" y="264.0" type="line" smooth="yes"/>
      <point x="220.23828125" y="64.0"/>
      <point x="161.743164062" y="0.0"/>
      <point x="76.908203125" y="0.0" type="curve" smooth="yes"/>
      <point x="-34.6943359375" y="0.0" type="line" smooth="yes"/>
      <point x="-38.6943359375" y="0.0"/>
      <point x="-39.6943359375" y="1.0"/>
      <point x="-38.6943359375" y="5.0" type="curve" smooth="yes"/>
      <point x="282.305664062" y="1395.0" type="line" smooth="yes"/>
      <point x="283.305664062" y="1399.0"/>
      <point x="284.305664062" y="1400.0"/>
      <point x="288.305664062" y="1400.0" type="curve" smooth="yes"/>
      <point x="390.904296875" y="1400.0" type="line" smooth="yes"/>
      <point x="475.739257812" y="1400.0"/>
      <point x="490.375" y="1317.0"/>
      <point x="447.375" y="1132.0" type="curve" smooth="yes"/>
      <point x="403.375" y="939.0" type="line" smooth="yes"/>
      <point x="370.375" y="794.0"/>
      <point x="312.197265625" y="710.0"/>
      <point x="231.875" y="710.0" type="curve"/>
    </contour>
    <contour>
      <point x="227.926757812" y="695.0" type="curve" smooth="yes"/>
      <point x="150.305664062" y="695.0" type="line"/>
      <point x="-2.73828125" y="30.0" type="line"/>
      <point x="74.8759765625" y="30.0" type="line" smooth="yes"/>
      <point x="159.711914062" y="30.0"/>
      <point x="198.23828125" y="96.0"/>
      <point x="238.23828125" y="271.0" type="curve" smooth="yes"/>
      <point x="283.28515625" y="468.0" type="line" smooth="yes"/>
      <point x="319.264648438" y="623.0"/>
      <point x="304.639648438" y="695.0"/>
    </contour>
  </outline>
</glyph>
<glyph name="C" format="2">
  <advance height="960" width="378"/>
  <unicode hex="0043"/>
  <anchor x="106.0" y="0.0" name="bottom"/>
  <anchor x="409.0" y="1400.0" name="top"/>
  <outline>
    <contour>
      <point x="363.290039062" y="603.0" type="curve" smooth="yes"/>
      <point x="354.290039062" y="563.0"/>
      <point x="345.290039062" y="525.0"/>
      <point x="337.290039062" y="490.0" type="curve" smooth="yes"/>
      <point x="244.290039062" y="95.0"/>
      <point x="204.290039062" y="-5.0"/>
      <point x="73.22265625" y="-5.0" type="curve" smooth="yes"/>
      <point x="-54.673828125" y="-5.0"/>
      <point x="-28.673828125" y="129.0"/>
      <point x="24.326171875" y="359.0" type="curve" smooth="yes"/>
      <point x="182.326171875" y="1042.0" type="line" smooth="yes"/>
      <point x="240.326171875" y="1292.0"/>
      <point x="308.926757812" y="1405.0"/>
      <point x="402.786132812" y="1405.0" type="curve" smooth="yes"/>
      <point x="494.975585938" y="1405.0"/>
      <point x="492.7578125" y="1257.26074219"/>
      <point x="452.46484375" y="1103.0" type="curve" smooth="yes"/>
      <point x="430.299804688" y="1018.13671875"/>
      <point x="397.134765625" y="931.299804688"/>
      <point x="362.67578125" y="866.0" type="curve" smooth="yes"/>
      <point x="360.778320312" y="862.40234375"/>
      <point x="360.780273438" y="862.0"/>
      <point x="357.170898438" y="862.0" type="curve" smooth="yes"/>
      <point x="349.048828125" y="862.0" type="line" smooth="yes"/>
      <point x="345.438476562" y="862.0"/>
      <point x="343.766601562" y="862.3203125"/>
      <point x="345.528320312" y="866.0" type="curve" smooth="yes"/>
      <point x="473.290039062" y="1129.0"/>
      <point x="494.166015625" y="1375.0"/>
      <point x="395.79296875" y="1375.0" type="curve" smooth="yes"/>
      <point x="324.49609375" y="1375.0"/>
      <point x="257.326171875" y="1241.0"/>
      <point x="212.326171875" y="1046.0" type="curve" smooth="yes"/>
      <point x="53.326171875" y="354.0" type="line" smooth="yes"/>
      <point x="10.326171875" y="169.0"/>
      <point x="-20.8642578125" y="25.0"/>
      <point x="80.21484375" y="25.0" type="curve" smooth="yes"/>
      <point x="194.833007812" y="25.0"/>
      <point x="228.290039062" y="137.0"/>
      <point x="333.290039062" y="603.0" type="curve" smooth="yes"/>
      <point x="334.290039062" y="607.0"/>
      <point x="335.290039062" y="608.0"/>
      <point x="339.290039062" y="608.0" type="curve" smooth="yes"/>
      <point x="359.290039062" y="608.0" type="line" smooth="yes"/>
      <point x="363.290039062" y="608.0"/>
      <point x="364.290039062" y="607.0"/>
    </contour>
  </outline>
</glyph>
<glyph name="D" format="2">
  <advance height="960" width="367"/>
  <unicode hex="0044"/>
  <anchor x="42.0" y="0.0" name="bottom"/>
  <anchor x="380.0" y="1400.0" name="top"/>
  <outline>
    <contour>
      <point x="50.7802734375" y="0.0" type="curve" smooth="yes"/>
      <point x="-34.6943359375" y="0.0" type="line" smooth="yes"/>
      <point x="-38.6943359375" y="0.0"/>
      <point x="-39.6943359375" y="1.0"/>
      <point x="-38.6943359375" y="5.0" type="curve" smooth="yes"/>
      <point x="282.305664062" y="1395.0" type="line" smooth="yes"/>
      <point x="283.305664062" y="1399.0"/>
      <point x="284.305664062" y="1400.0"/>
      <point x="288.305664062" y="1400.0" type="curve" smooth="yes"/>
      <point x="373.80078125" y="1400.0" type="line" smooth="yes"/>
      <point x="484.80859375" y="1400.0"/>
      <point x="510.158203125" y="1275.0"/>
      <point x="452.158203125" y="1022.0" type="curve" smooth="yes"/>
      <point x="301.158203125" y="369.0" type="line" smooth="yes"/>
      <point x="243.158203125" y="116.0"/>
      <point x="179.837890625" y="0.0"/>
    </contour>
    <contour>
      <point x="57.7724609375" y="30.0" type="line" smooth="yes"/>
      <point x="169.68359375" y="30.0"/>
      <point x="222.158203125" y="155.0"/>
      <point x="270.158203125" y="364.0" type="curve" smooth="yes"/>
      <point x="423.158203125" y="1026.0" type="line" smooth="yes"/>
      <point x="471.166992188" y="1235.0"/>
      <point x="459.765625" y="1370.0"/>
      <point x="366.80859375" y="1370.0" type="curve" smooth="yes"/>
      <point x="306.305664062" y="1370.0" type="line"/>
      <point x="-2.6943359375" y="30.0" type="line"/>
    </contour>
  </outline>
</glyph>
<glyph name="E" format="2">
  <advance height="960" width="355"/>
  <unicode hex="0045"/>
  <anchor x="72.0" y="0.0" name="bottom"/>
  <anchor x="180.0" y="0.0" name="ogonek"/>
  <anchor x="395.0" y="1400.0" name="top"/>
  <outline>
    <contour>
      <point x="156.305664062" y="720.0" type="line"/>
      <point x="301.305664062" y="720.0" type="line" smooth="yes"/>
      <point x="305.305664062" y="720.0"/>
      <point x="306.305664062" y="719.0"/>
      <point x="305.305664062" y="715.0" type="curve" smooth="yes"/>
      <point x="302.305664062" y="700.0" type="line" smooth="yes"/>
      <point x="301.305664062" y="696.0"/>
      <point x="299.305664062" y="695.0"/>
      <point x="295.305664062" y="695.0" type="curve" smooth="yes"/>
      <point x="150.305664062" y="695.0" type="line"/>
      <point x="-2.6943359375" y="30.0" type="line"/>
      <point x="227.305664062" y="30.0" type="line" smooth="yes"/>
      <point x="231.305664062" y="30.0"/>
      <point x="232.305664062" y="29.0"/>
      <point x="231.305664062" y="25.0" type="curve" smooth="yes"/>
      <point x="226.305664062" y="5.0" type="line" smooth="yes"/>
      <point x="225.305664062" y="1.0"/>
      <point x="224.305664062" y="0.0"/>
      <point x="220.305664062" y="0.0" type="curve" smooth="yes"/>
      <point x="-34.6943359375" y="0.0" type="line" smooth="yes"/>
      <point x="-38.6943359375" y="0.0"/>
      <point x="-39.6943359375" y="1.0"/>
      <point x="-38.6943359375" y="5.0" type="curve" smooth="yes"/>
      <point x="282.305664062" y="1395.0" type="line" smooth="yes"/>
      <point x="283.305664062" y="1399.0"/>
      <point x="284.305664062" y="1400.0"/>
      <point x="288.305664062" y="1400.0" type="curve" smooth="yes"/>
      <point x="533.305664062" y="1400.0" type="line" smooth="yes"/>
      <point x="537.305664062" y="1400.0"/>
      <point x="538.305664062" y="1399.0"/>
      <point x="537.305664062" y="1395.0" type="curve" smooth="yes"/>
      <point x="532.305664062" y="1375.0" type="line" smooth="yes"/>
      <point x="531.305664062" y="1371.0"/>
      <point x="530.305664062" y="1370.0"/>
      <point x="526.305664062" y="1370.0" type="curve" smooth="yes"/>
      <point x="306.305664062" y="1370.0" type="line"/>
    </contour>
  </outline>
</glyph>
<glyph name="F" format="2">
  <advance height="960" width="311"/>
  <unicode hex="0046"/>
  <anchor x="52.0" y="0.0" name="bottom"/>
  <anchor x="375.0" y="1400.0" name="top"/>
  <outline>
    <contour>
      <point x="156.305664062" y="720.0" type="line"/>
      <point x="306.305664062" y="720.0" type="line" smooth="yes"/>
      <point x="310.305664062" y="720.0"/>
      <point x="311.305664062" y="719.0"/>
      <point x="310.305664062" y="715.0" type="curve" smooth="yes"/>
      <point x="307.305664062" y="700.0" type="line" smooth="yes"/>
      <point x="306.305664062" y="696.0"/>
      <point x="304.305664062" y="695.0"/>
      <point x="300.305664062" y="695.0" type="curve" smooth="yes"/>
      <point x="150.305664062" y="695.0" type="line"/>
      <point x="-8.6943359375" y="5.0" type="line" smooth="yes"/>
      <point x="-9.6943359375" y="1.0"/>
      <point x="-10.6943359375" y="0.0"/>
      <point x="-14.6943359375" y="0.0" type="curve" smooth="yes"/>
      <point x="-34.6943359375" y="0.0" type="line" smooth="yes"/>
      <point x="-38.6943359375" y="0.0"/>
      <point x="-39.6943359375" y="1.0"/>
      <point x="-38.6943359375" y="5.0" type="curve" smooth="yes"/>
      <point x="282.305664062" y="1395.0" type="line" smooth="yes"/>
      <point x="283.305664062" y="1399.0"/>
      <point x="284.305664062" y="1400.0"/>
      <point x="288.305664062" y="1400.0" type="curve" smooth="yes"/>
      <point x="508.305664062" y="1400.0" type="line" smooth="yes"/>
      <point x="512.305664062" y="1400.0"/>
      <point x="513.305664062" y="1399.0"/>
      <point x="512.305664062" y="1395.0" type="curve" smooth="yes"/>
      <point x="507.305664062" y="1375.0" type="line" smooth="yes"/>
      <point x="506.305664062" y="1371.0"/>
      <point x="505.305664062" y="1370.0"/>
      <point x="501.305664062" y="1370.0" type="curve" smooth="yes"/>
      <point x="306.305664062" y="1370.0" type="line"/>
    </contour>
  </outline>
</glyph>
<glyph name="G" format="2">
  <advance height="960" width="379"/>
  <unicode hex="0047"/>
  <anchor x="92.0" y="0.0" name="bottom"/>
  <anchor x="414.0" y="1400.0" name="top"/>
  <outline>
    <contour>
      <point x="259.125976562" y="636.0" type="curve" smooth="yes"/>
      <point x="263.1640625" y="655.0" type="line" smooth="yes"/>
      <point x="264.15625" y="659.0"/>
      <point x="265.08203125" y="660.0"/>
      <point x="268.69140625" y="660.0" type="curve" smooth="yes"/>
      <point x="372.749023438" y="660.0" type="line" smooth="yes"/>
      <point x="376.749023438" y="660.0"/>
      <point x="377.749023438" y="659.0"/>
      <point x="376.749023438" y="655.0" type="curve" smooth="yes"/>
      <point x="225.275390625" y="5.0" type="line" smooth="yes"/>
      <point x="224.275390625" y="1.0"/>
      <point x="223.275390625" y="0.0"/>
      <point x="219.275390625" y="0.0" type="curve" smooth="yes"/>
      <point x="214.275390625" y="0.0" type="line" smooth="yes"/>
      <point x="210.275390625" y="0.0"/>
      <point x="209.275390625" y="1.0"/>
      <point x="209.275390625" y="5.0" type="curve" smooth="yes"/>
      <point x="314.275390625" y="520.0" type="line"/>
      <point x="362.275390625" y="640.0" type="line"/>
      <point x="242.275390625" y="165.0"/>
      <point x="176.107421875" y="-5.0"/>
      <point x="59.6845703125" y="-5.0" type="curve" smooth="yes"/>
      <point x="-35.61328125" y="-5.0"/>
      <point x="-38.61328125" y="89.0"/>
      <point x="28.38671875" y="379.0" type="curve" smooth="yes"/>
      <point x="177.38671875" y="1022.0" type="line" smooth="yes"/>
      <point x="235.38671875" y="1272.0"/>
      <point x="289.38671875" y="1405.0"/>
      <point x="402.786132812" y="1405.0" type="curve" smooth="yes"/>
      <point x="510.749023438" y="1405.0"/>
      <point x="509.749023438" y="1310.0"/>
      <point x="467.749023438" y="1124.0" type="curve" smooth="yes"/>
      <point x="448.749023438" y="1040.0"/>
      <point x="427.749023438" y="951.0"/>
      <point x="410.749023438" y="867.0" type="curve" smooth="yes"/>
      <point x="409.749023438" y="863.0"/>
      <point x="408.749023438" y="863.0"/>
      <point x="404.749023438" y="863.0" type="curve" smooth="yes"/>
      <point x="384.749023438" y="863.0" type="line" smooth="yes"/>
      <point x="380.749023438" y="863.0"/>
      <point x="379.755859375" y="863.0"/>
      <point x="380.749023438" y="867.0" type="curve" smooth="yes"/>
      <point x="463.171875" y="1241.0"/>
      <point x="503.749023438" y="1375.0"/>
      <point x="395.793945312" y="1375.0" type="curve" smooth="yes"/>
      <point x="300.127929688" y="1375.0"/>
      <point x="253.341796875" y="1221.0"/>
      <point x="208.33984375" y="1026.0" type="curve" smooth="yes"/>
      <point x="57.38671875" y="374.0" type="line" smooth="yes"/>
      <point x="3.3623046875" y="139.0"/>
      <point x="-10.03515625" y="25.0"/>
      <point x="66.677734375" y="25.0" type="curve" smooth="yes"/>
      <point x="160.538085938" y="25.0"/>
      <point x="223.501953125" y="176.0"/>
      <point x="341.298828125" y="638.0" type="curve"/>
      <point x="345.275390625" y="630.0" type="line"/>
      <point x="261.69921875" y="630.0" type="line" smooth="yes"/>
      <point x="258.087890625" y="630.0"/>
      <point x="258.133789062" y="632.0"/>
    </contour>
  </outline>
</glyph>
<glyph name="H" format="2">
  <advance height="960" width="361"/>
  <unicode hex="0048"/>
  <anchor x="62.0" y="0.0" name="bottom"/>
  <anchor x="384.0" y="1400.0" name="top"/>
  <outline>
    <contour>
      <point x="495.19921875" y="1400.0" type="curve" smooth="yes"/>
      <point x="515.19921875" y="1400.0" type="line" smooth="yes"/>
      <point x="519.19921875" y="1400.0"/>
      <point x="520.19921875" y="1399.0"/>
      <point x="519.19921875" y="1395.0" type="curve" smooth="yes"/>
      <point x="198.19921875" y="5.0" type="line" smooth="yes"/>
      <point x="197.19921875" y="1.0"/>
      <point x="196.19921875" y="0.0"/>
      <point x="192.19921875" y="0.0" type="curve" smooth="yes"/>
      <point x="172.19921875" y="0.0" type="line" smooth="yes"/>
      <point x="168.19921875" y="0.0"/>
      <point x="167.203125" y="1.0"/>
      <point x="168.19921875" y="5.0" type="curve" smooth="yes"/>
      <point x="327.224609375" y="695.0" type="line"/>
      <point x="144.890625" y="695.0" type="line"/>
      <point x="-14.109375" y="5.0" type="line" smooth="yes"/>
      <point x="-15.109375" y="1.0"/>
      <point x="-16.109375" y="0.0"/>
      <point x="-20.109375" y="0.0" type="curve" smooth="yes"/>
      <point x="-40.109375" y="0.0" type="line" smooth="yes"/>
      <point x="-44.109375" y="0.0"/>
      <point x="-45.109375" y="1.0"/>
      <point x="-44.109375" y="5.0" type="curve" smooth="yes"/>
      <point x="276.890625" y="1395.0" type="line" smooth="yes"/>
      <point x="277.890625" y="1399.0"/>
      <point x="278.890625" y="1400.0"/>
      <point x="282.890625" y="1400.0" type="curve" smooth="yes"/>
      <point x="302.890625" y="1400.0" type="line" smooth="yes"/>
      <point x="306.890625" y="1400.0"/>
      <point x="307.873046875" y="1399.0"/>
      <point x="306.880859375" y="1395.0" type="curve" smooth="yes"/>
      <point x="150.890625" y="720.0" type="line"/>
      <point x="333.202148438" y="720.0" type="line"/>
      <point x="489.19921875" y="1395.0" type="line" smooth="yes"/>
      <point x="490.19921875" y="1399.0"/>
      <point x="491.19921875" y="1400.0"/>
    </contour>
  </outline>
</glyph>
<glyph name="I" format="2">
  <advance height="960" width="156"/>
  <unicode hex="0049"/>
  <anchor x="-51.0" y="0.0" name="bottom"/>
  <anchor x="-51.0" y="0.0" name="ogonek"/>
  <anchor x="273.0" y="1400.0" name="top"/>
  <outline>
    <contour>
      <point x="269.352539062" y="1400.0" type="curve" smooth="yes"/>
      <point x="289.352539062" y="1400.0" type="line" smooth="yes"/>
      <point x="293.352539062" y="1400.0"/>
      <point x="294.352539062" y="1399.0"/>
      <point x="293.352539062" y="1395.0" type="curve" smooth="yes"/>
      <point x="-27.6474609375" y="5.0" type="line" smooth="yes"/>
      <point x="-28.6474609375" y="1.0"/>
      <point x="-29.6474609375" y="0.0"/>
      <point x="-33.6474609375" y="0.0" type="curve" smooth="yes"/>
      <point x="-53.6474609375" y="0.0" type="line" smooth="yes"/>
      <point x="-57.6474609375" y="0.0"/>
      <point x="-58.6474609375" y="1.0"/>
      <point x="-57.6474609375" y="5.0" type="curve" smooth="yes"/>
      <point x="263.352539062" y="1395.0" type="line" smooth="yes"/>
      <point x="264.352539062" y="1399.0"/>
      <point x="265.352539062" y="1400.0"/>
    </contour>
  </outline>
</glyph>
<glyph name="J" format="2">
  <advance height="960" width="315"/>
  <unicode hex="004A"/>
  <anchor x="9.0" y="0.0" name="bottom"/>
  <anchor x="431.0" y="1400.0" name="top"/>
  <outline>
    <contour>
      <point x="414.0" y="1400.0" type="curve" smooth="yes"/>
      <point x="434.0" y="1400.0" type="line" smooth="yes"/>
      <point x="438.0" y="1400.0"/>
      <point x="440.0" y="1399.0"/>
      <point x="439.0" y="1395.0" type="curve" smooth="yes"/>
      <point x="179.0" y="269.0" type="line" smooth="yes"/>
      <point x="130.0" y="56.0"/>
      <point x="105.0" y="-5.0"/>
      <point x="16.0" y="-5.0" type="curve" smooth="yes"/>
      <point x="-68.0" y="-5.0"/>
      <point x="-73.1446521041" y="78.0708215847"/>
      <point x="-5.0" y="239.0" type="curve" smooth="yes"/>
      <point x="172.0" y="657.0" type="line" smooth="yes"/>
      <point x="173.0" y="661.0"/>
      <point x="175.0" y="663.0"/>
      <point x="179.0" y="663.0" type="curve" smooth="yes"/>
      <point x="183.0" y="663.0" type="line" smooth="yes"/>
      <point x="187.0" y="663.0"/>
      <point x="189.0" y="661.0"/>
      <point x="188.0" y="657.0" type="curve" smooth="yes"/>
      <point x="15.0" y="244.0" type="line" smooth="yes"/>
      <point x="-42.4020588734" y="106.965027083"/>
      <point x="-38.0" y="25.0"/>
      <point x="23.0" y="25.0" type="curve" smooth="yes"/>
      <point x="88.0" y="25.0"/>
      <point x="107.0" y="84.0"/>
      <point x="146.0" y="254.0" type="curve" smooth="yes"/>
      <point x="409.0" y="1395.0" type="line" smooth="yes"/>
      <point x="410.0" y="1399.0"/>
      <point x="410.0" y="1400.0"/>
    </contour>
  </outline>
</glyph>
<glyph name="K" format="2">
  <advance height="960" width="347"/>
  <unicode hex="004B"/>
  <anchor x="46.0" y="0.0" name="bottom"/>
  <anchor x="369.0" y="1400.0" name="top"/>
  <outline>
    <contour>
      <point x="282.890625" y="1400.0" type="curve" smooth="yes"/>
      <point x="302.890625" y="1400.0" type="line" smooth="yes"/>
      <point x="306.890625" y="1400.0"/>
      <point x="307.873046875" y="1399.0"/>
      <point x="306.880859375" y="1395.0" type="curve" smooth="yes"/>
      <point x="-14.109375" y="5.0" type="line" smooth="yes"/>
      <point x="-15.109375" y="1.0"/>
      <point x="-16.109375" y="0.0"/>
      <point x="-20.109375" y="0.0" type="curve" smooth="yes"/>
      <point x="-40.109375" y="0.0" type="line" smooth="yes"/>
      <point x="-44.109375" y="0.0"/>
      <point x="-45.109375" y="1.0"/>
      <point x="-44.109375" y="5.0" type="curve" smooth="yes"/>
      <point x="276.890625" y="1395.0" type="line" smooth="yes"/>
      <point x="277.890625" y="1399.0"/>
      <point x="278.890625" y="1400.0"/>
    </contour>
    <contour>
      <point x="205.879882812" y="757.0" type="line"/>
      <point x="236.626953125" y="815.0" type="line"/>
      <point x="207.717773438" y="5.0" type="line" smooth="yes"/>
      <point x="209.717773438" y="1.0"/>
      <point x="209.717773438" y="0.0"/>
      <point x="205.717773438" y="0.0" type="curve" smooth="yes"/>
      <point x="180.717773438" y="0.0" type="line" smooth="yes"/>
      <point x="177.108398438" y="0.0"/>
      <point x="173.520507812" y="1.0"/>
      <point x="173.610351562" y="5.0" type="curve" smooth="yes"/>
    </contour>
    <contour>
      <point x="507.626953125" y="1395.0" type="line" smooth="yes"/>
      <point x="510.626953125" y="1397.0"/>
      <point x="513.626953125" y="1400.0"/>
      <point x="518.626953125" y="1400.0" type="curve" smooth="yes"/>
      <point x="535.626953125" y="1400.0" type="line" smooth="yes"/>
      <point x="541.626953125" y="1400.0"/>
      <point x="542.626953125" y="1399.0"/>
      <point x="537.626953125" y="1395.0" type="curve" smooth="yes"/>
      <point x="209.626953125" y="715.0" type="line"/>
      <point x="209.626953125" y="723.0" type="line"/>
      <point x="51.890625" y="385.0" type="line"/>
      <point x="65.890625" y="460.0" type="line"/>
    </contour>
  </outline>
</glyph>
<glyph name="L" format="2">
  <advance height="960" width="259"/>
  <unicode hex="004C"/>
  <anchor x="46.0" y="0.0" name="bottom"/>
  <anchor x="289.0" y="1400.0" name="top"/>
  <outline>
    <contour>
      <point x="282.890625" y="1400.0" type="curve" smooth="yes"/>
      <point x="302.890625" y="1400.0" type="line" smooth="yes"/>
      <point x="306.890625" y="1400.0"/>
      <point x="307.890625" y="1399.0"/>
      <point x="306.890625" y="1395.0" type="curve" smooth="yes"/>
      <point x="-8.109375" y="30.0" type="line"/>
      <point x="141.890625" y="30.0" type="line" smooth="yes"/>
      <point x="145.890625" y="30.0"/>
      <point x="146.890625" y="29.0"/>
      <point x="145.890625" y="25.0" type="curve" smooth="yes"/>
      <point x="140.890625" y="5.0" type="line" smooth="yes"/>
      <point x="139.890625" y="1.0"/>
      <point x="138.890625" y="0.0"/>
      <point x="134.890625" y="0.0" type="curve" smooth="yes"/>
      <point x="-40.109375" y="0.0" type="line" smooth="yes"/>
      <point x="-44.109375" y="0.0"/>
      <point x="-45.109375" y="1.0"/>
      <point x="-44.109375" y="5.0" type="curve" smooth="yes"/>
      <point x="276.890625" y="1395.0" type="line" smooth="yes"/>
      <point x="277.890625" y="1399.0"/>
      <point x="278.890625" y="1400.0"/>
    </contour>
  </outline>
</glyph>
<glyph name="M" format="2">
  <advance height="960" width="461"/>
  <unicode hex="004D"/>
  <anchor x="134.0" y="0.0" name="bottom"/>
  <anchor x="459.0" y="1400.0" name="top"/>
  <outline>
    <contour>
      <point x="270.865234375" y="1260.0" type="line"/>
      <point x="-19.109375" y="5.0" type="line" smooth="yes"/>
      <point x="-20.109375" y="1.0"/>
      <point x="-21.109375" y="0.0"/>
      <point x="-25.109375" y="0.0" type="curve" smooth="yes"/>
      <point x="-40.109375" y="0.0" type="line" smooth="yes"/>
      <point x="-44.109375" y="0.0"/>
      <point x="-45.109375" y="1.0"/>
      <point x="-44.109375" y="5.0" type="curve" smooth="yes"/>
      <point x="276.890625" y="1395.0" type="line" smooth="yes"/>
      <point x="277.890625" y="1399.0"/>
      <point x="278.890625" y="1400.0"/>
      <point x="282.890625" y="1400.0" type="curve" smooth="yes"/>
      <point x="306.505859375" y="1400.0" type="line" smooth="yes"/>
      <point x="310.1171875" y="1400.0"/>
      <point x="311.8984375" y="1399.0"/>
      <point x="311.80859375" y="1395.0" type="curve" smooth="yes"/>
      <point x="158.9765625" y="134.0" type="line"/>
      <point x="582.55859375" y="1395.0" type="line" smooth="yes"/>
      <point x="584.454101562" y="1399.0"/>
      <point x="586.28125" y="1400.0"/>
      <point x="589.891601562" y="1400.0" type="curve" smooth="yes"/>
      <point x="614.8828125" y="1400.0" type="line" smooth="yes"/>
      <point x="618.8828125" y="1400.0"/>
      <point x="619.8828125" y="1399.0"/>
      <point x="618.8828125" y="1395.0" type="curve" smooth="yes"/>
      <point x="297.983398438" y="5.0" type="line" smooth="yes"/>
      <point x="296.983398438" y="1.0"/>
      <point x="295.983398438" y="0.0"/>
      <point x="291.983398438" y="0.0" type="curve" smooth="yes"/>
      <point x="271.983398438" y="0.0" type="line" smooth="yes"/>
      <point x="267.983398438" y="0.0"/>
      <point x="266.990234375" y="1.0"/>
      <point x="267.983398438" y="5.0" type="curve" smooth="yes"/>
      <point x="556.8828125" y="1254.0" type="line"/>
      <point x="132.608398438" y="5.0" type="line" smooth="yes"/>
      <point x="130.712890625" y="1.0"/>
      <point x="129.788085938" y="0.0"/>
      <point x="126.177734375" y="0.0" type="curve" smooth="yes"/>
      <point x="125.177734375" y="0.0" type="line" smooth="yes"/>
      <point x="121.568359375" y="0.0"/>
      <point x="119.78515625" y="1.0"/>
      <point x="119.875" y="5.0" type="curve" smooth="yes"/>
    </contour>
  </outline>
</glyph>
<glyph name="N" format="2">
  <advance height="960" width="361"/>
  <unicode hex="004E"/>
  <anchor x="76.0" y="0.0" name="bottom"/>
  <anchor x="404.0" y="1400.0" name="top"/>
  <outline>
    <contour>
      <point x="495.186523438" y="1400.0" type="curve" smooth="yes"/>
      <point x="515.186523438" y="1400.0" type="line" smooth="yes"/>
      <point x="519.186523438" y="1400.0"/>
      <point x="520.186523438" y="1399.0"/>
      <point x="519.186523438" y="1395.0" type="curve" smooth="yes"/>
      <point x="198.186523438" y="5.0" type="line" smooth="yes"/>
      <point x="197.186523438" y="1.0"/>
      <point x="196.186523438" y="0.0"/>
      <point x="192.186523438" y="0.0" type="curve" smooth="yes"/>
      <point x="187.186523438" y="0.0" type="line" smooth="yes"/>
      <point x="183.186523438" y="0.0"/>
      <point x="179.186523438" y="1.0"/>
      <point x="179.186523438" y="5.0" type="curve" smooth="yes"/>
      <point x="280.890625" y="1388.0" type="line"/>
      <point x="291.834960938" y="1328.0" type="line"/>
      <point x="-14.109375" y="5.0" type="line" smooth="yes"/>
      <point x="-15.109375" y="1.0"/>
      <point x="-16.109375" y="0.0"/>
      <point x="-20.109375" y="0.0" type="curve" smooth="yes"/>
      <point x="-40.109375" y="0.0" type="line" smooth="yes"/>
      <point x="-44.109375" y="0.0"/>
      <point x="-45.109375" y="1.0"/>
      <point x="-44.109375" y="5.0" type="curve" smooth="yes"/>
      <point x="276.890625" y="1395.0" type="line" smooth="yes"/>
      <point x="277.890625" y="1399.0"/>
      <point x="278.890625" y="1400.0"/>
      <point x="282.890625" y="1400.0" type="curve" smooth="yes"/>
      <point x="297.890625" y="1400.0" type="line" smooth="yes"/>
      <point x="301.890625" y="1400.0"/>
      <point x="305.890625" y="1399.0"/>
      <point x="305.890625" y="1395.0" type="curve" smooth="yes"/>
      <point x="209.186523438" y="76.0" type="line"/>
      <point x="198.21875" y="136.0" type="line"/>
      <point x="489.186523438" y="1395.0" type="line" smooth="yes"/>
      <point x="490.186523438" y="1399.0"/>
      <point x="491.186523438" y="1400.0"/>
    </contour>
  </outline>
</glyph>
<glyph name="O" format="2">
  <advance height="960" width="373"/>
  <unicode hex="004F"/>
  <anchor x="86.0" y="0.0" name="bottom"/>
  <anchor x="409.0" y="1400.0" name="top"/>
  <outline>
    <contour>
      <point x="12.3701171875" y="309.0" type="curve" smooth="yes"/>
      <point x="193.370117188" y="1092.0" type="line" smooth="yes"/>
      <point x="248.370117188" y="1329.0"/>
      <point x="297.194335938" y="1405.0"/>
      <point x="406.396484375" y="1405.0" type="curve" smooth="yes"/>
      <point x="515.598632812" y="1405.0"/>
      <point x="530.288085938" y="1328.0"/>
      <point x="476.288085938" y="1092.0" type="curve" smooth="yes"/>
      <point x="295.288085938" y="309.0" type="line" smooth="yes"/>
      <point x="240.288085938" y="72.0"/>
      <point x="190.547851562" y="-5.0"/>
      <point x="81.345703125" y="-5.0" type="curve" smooth="yes"/>
      <point x="-27.857421875" y="-5.0"/>
      <point x="-42.6298828125" y="72.0"/>
    </contour>
    <contour>
      <point x="41.3701171875" y="304.0" type="line" smooth="yes"/>
      <point x="-4.6298828125" y="106.0"/>
      <point x="1.6982421875" y="25.0"/>
      <point x="88.337890625" y="25.0" type="curve" smooth="yes"/>
      <point x="174.978515625" y="25.0"/>
      <point x="219.288085938" y="107.0"/>
      <point x="264.288085938" y="304.0" type="curve" smooth="yes"/>
      <point x="447.288085938" y="1096.0" type="line" smooth="yes"/>
      <point x="492.3203125" y="1293.0"/>
      <point x="486.043945312" y="1375.0"/>
      <point x="399.403320312" y="1375.0" type="curve" smooth="yes"/>
      <point x="312.763671875" y="1375.0"/>
      <point x="270.328125" y="1294.0"/>
      <point x="224.356445312" y="1096.0" type="curve" smooth="yes"/>
    </contour>
  </outline>
</glyph>
<glyph name="P" format="2">
  <advance height="960" width="322"/>
  <unicode hex="0050"/>
  <anchor x="-32.0" y="0.0" name="bottom"/>
  <anchor x="365.0" y="1400.0" name="top"/>
  <outline>
    <contour>
      <point x="306.305664062" y="1370.0" type="line"/>
      <point x="144.244140625" y="665.0" type="line"/>
      <point x="189.369140625" y="665.0" type="line" smooth="yes"/>
      <point x="244.421875" y="665.0"/>
      <point x="294.374023438" y="679.0"/>
      <point x="336.331054688" y="859.0" type="curve" smooth="yes"/>
      <point x="406.331054688" y="1161.0" type="line" smooth="yes"/>
      <point x="443.331054688" y="1321.0"/>
      <point x="415.521484375" y="1370.0"/>
      <point x="342.418945312" y="1370.0" type="curve" smooth="yes"/>
    </contour>
    <contour>
      <point x="326.848632812" y="1400.0" type="line" smooth="yes"/>
      <point x="447.783203125" y="1400.0"/>
      <point x="480.331054688" y="1351.0"/>
      <point x="433.331054688" y="1146.0" type="curve" smooth="yes"/>
      <point x="370.331054688" y="874.0" type="line" smooth="yes"/>
      <point x="323.331054688" y="669.0"/>
      <point x="264.50390625" y="635.0"/>
      <point x="168.83984375" y="635.0" type="curve" smooth="yes"/>
      <point x="137.251953125" y="635.0" type="line"/>
      <point x="-8.6943359375" y="5.0" type="line" smooth="yes"/>
      <point x="-9.6943359375" y="1.0"/>
      <point x="-10.6943359375" y="0.0"/>
      <point x="-14.6943359375" y="0.0" type="curve" smooth="yes"/>
      <point x="-34.6943359375" y="0.0" type="line" smooth="yes"/>
      <point x="-38.6943359375" y="0.0"/>
      <point x="-39.6943359375" y="1.0"/>
      <point x="-38.6943359375" y="5.0" type="curve" smooth="yes"/>
      <point x="282.305664062" y="1395.0" type="line" smooth="yes"/>
      <point x="283.305664062" y="1399.0"/>
      <point x="284.305664062" y="1400.0"/>
      <point x="288.305664062" y="1400.0" type="curve" smooth="yes"/>
    </contour>
  </outline>
</glyph>
<glyph name="R" format="2">
  <advance height="960" width="371"/>
  <unicode hex="0052"/>
  <anchor x="68.0" y="0.0" name="bottom"/>
  <anchor x="390.0" y="1400.0" name="top"/>
  <outline>
    <contour>
      <point x="306.305664062" y="1370.0" type="line"/>
      <point x="156.305664062" y="720.0" type="line"/>
      <point x="214.970703125" y="720.0" type="line" smooth="yes"/>
      <point x="273.6328125" y="720.0"/>
      <point x="337.833984375" y="779.0"/>
      <point x="367.833984375" y="909.0" type="curve" smooth="yes"/>
      <point x="425.833984375" y="1161.0" type="line" smooth="yes"/>
      <point x="453.833984375" y="1281.0"/>
      <point x="459.740234375" y="1370.0"/>
      <point x="364.977539062" y="1370.0" type="curve" smooth="yes"/>
    </contour>
    <contour>
      <point x="371.970703125" y="1400.0" type="line" smooth="yes"/>
      <point x="484.833984375" y="1400.0"/>
      <point x="492.833984375" y="1321.0"/>
      <point x="453.833984375" y="1151.0" type="curve" smooth="yes"/>
      <point x="401.833984375" y="929.0" type="line" smooth="yes"/>
      <point x="359.833984375" y="749.0"/>
      <point x="274.198242188" y="705.0"/>
      <point x="211.926757812" y="705.0" type="curve"/>
      <point x="212.94140625" y="710.0" type="line"/>
      <point x="275.213867188" y="710.0"/>
      <point x="339.833984375" y="681.0"/>
      <point x="311.80859375" y="561.0" type="curve" smooth="yes"/>
      <point x="235.833984375" y="234.0" type="line" smooth="yes"/>
      <point x="208.822265625" y="116.0"/>
      <point x="211.274414062" y="64.0"/>
      <point x="225.418945312" y="30.0" type="curve" smooth="yes"/>
      <point x="228.418945312" y="24.0"/>
      <point x="228.418945312" y="23.0"/>
      <point x="227.418945312" y="20.0" type="curve" smooth="yes"/>
      <point x="223.418945312" y="5.0" type="line" smooth="yes"/>
      <point x="222.418945312" y="1.0"/>
      <point x="221.418945312" y="0.0"/>
      <point x="217.418945312" y="0.0" type="curve" smooth="yes"/>
      <point x="204.418945312" y="0.0" type="line" smooth="yes"/>
      <point x="200.80859375" y="0.0"/>
      <point x="199.90625" y="0.0"/>
      <point x="198.19140625" y="4.0" type="curve" smooth="yes"/>
      <point x="180.833984375" y="44.0"/>
      <point x="172.833984375" y="90.0"/>
      <point x="205.8359375" y="234.0" type="curve" smooth="yes"/>
      <point x="284.833984375" y="576.0" type="line" smooth="yes"/>
      <point x="300.84765625" y="646.0"/>
      <point x="276.680664062" y="695.0"/>
      <point x="208.993164062" y="695.0" type="curve" smooth="yes"/>
      <point x="150.305664062" y="695.0" type="line"/>
      <point x="-8.6982421875" y="5.0" type="line" smooth="yes"/>
      <point x="-9.6943359375" y="1.0"/>
      <point x="-10.6943359375" y="0.0"/>
      <point x="-14.6943359375" y="0.0" type="curve" smooth="yes"/>
      <point x="-34.6943359375" y="0.0" type="line" smooth="yes"/>
      <point x="-38.6943359375" y="0.0"/>
      <point x="-39.6943359375" y="1.0"/>
      <point x="-38.6943359375" y="5.0" type="curve" smooth="yes"/>
      <point x="282.305664062" y="1395.0" type="line" smooth="yes"/>
      <point x="283.305664062" y="1399.0"/>
      <point x="284.305664062" y="1400.0"/>
      <point x="288.305664062" y="1400.0" type="curve" smooth="yes"/>
    </contour>
  </outline>
</glyph>
<glyph name="S" format="2">
  <advance height="960" width="339"/>
  <unicode hex="0053"/>
  <anchor x="56.0" y="0.0" name="bottom"/>
  <anchor x="369.0" y="1400.0" name="top"/>
  <outline>
    <contour>
      <point x="106.131835938" y="524.0" type="curve" smooth="yes"/>
      <point x="113.131835938" y="524.0" type="line" smooth="yes"/>
      <point x="114.131835938" y="524.0"/>
      <point x="118.124023438" y="524.0"/>
      <point x="117.131835938" y="520.0" type="curve" smooth="yes"/>
      <point x="97.1318359375" y="434.0"/>
      <point x="68.6162109375" y="338.102539062"/>
      <point x="46.1318359375" y="258.0" type="curve" smooth="yes"/>
      <point x="-1.8681640625" y="87.0"/>
      <point x="13.9345703125" y="25.0"/>
      <point x="64.474609375" y="25.0" type="curve" smooth="yes"/>
      <point x="112.306640625" y="25.0"/>
      <point x="184.120117188" y="88.0"/>
      <point x="232.077148438" y="294.0" type="curve" smooth="yes"/>
      <point x="265.123046875" y="439.0"/>
      <point x="235.243164062" y="595.0"/>
      <point x="214.411132812" y="712.0" type="curve" smooth="yes"/>
      <point x="188.131835938" y="855.0"/>
      <point x="184.131835938" y="971.0"/>
      <point x="229.131835938" y="1166.0" type="curve" smooth="yes"/>
      <point x="268.131835938" y="1336.0"/>
      <point x="312.131835938" y="1405.0"/>
      <point x="393.362304688" y="1405.0" type="curve" smooth="yes"/>
      <point x="467.368164062" y="1405.0"/>
      <point x="484.983398438" y="1323.71386719"/>
      <point x="414.698242188" y="1150.0" type="curve" smooth="yes"/>
      <point x="318.052734375" y="906.0" type="line" smooth="yes"/>
      <point x="317.060546875" y="902.0"/>
      <point x="315.254882812" y="902.0"/>
      <point x="312.547851562" y="902.0" type="curve" smooth="yes"/>
      <point x="299.010742188" y="902.0" type="line" smooth="yes"/>
      <point x="296.302734375" y="902.0"/>
      <point x="294.250976562" y="903.118164062"/>
      <point x="295.490234375" y="906.0" type="curve" smooth="yes"/>
      <point x="330.728515625" y="988.0"/>
      <point x="357.631835938" y="1065.70019531"/>
      <point x="387.533203125" y="1146.0" type="curve" smooth="yes"/>
      <point x="453.8125" y="1324.0"/>
      <point x="439.6171875" y="1375.0"/>
      <point x="386.370117188" y="1375.0" type="curve" smooth="yes"/>
      <point x="322.291992188" y="1375.0"/>
      <point x="292.131835938" y="1311.0"/>
      <point x="259.131835938" y="1166.0" type="curve" smooth="yes"/>
      <point x="215.131835938" y="976.0"/>
      <point x="217.04296875" y="869.0"/>
      <point x="243.741210938" y="732.0" type="curve" smooth="yes"/>
      <point x="267.190429688" y="611.0"/>
      <point x="303.077148438" y="472.0"/>
      <point x="262.077148438" y="294.0" type="curve" smooth="yes"/>
      <point x="211.077148438" y="71.0"/>
      <point x="125.169921875" y="-5.0"/>
      <point x="57.482421875" y="-5.0" type="curve" smooth="yes"/>
      <point x="-6.8681640625" y="-5.0"/>
      <point x="-45.5283203125" y="62.2099609375"/>
      <point x="9.1318359375" y="234.0" type="curve" smooth="yes"/>
      <point x="100.131835938" y="520.0" type="line" smooth="yes"/>
      <point x="101.131835938" y="524.0"/>
      <point x="105.131835938" y="524.0"/>
    </contour>
  </outline>
</glyph>
<glyph name="T" format="2">
  <advance height="960" width="356"/>
  <unicode hex="0054"/>
  <anchor x="64.0" y="0.0" name="bottom"/>
  <anchor x="387.0" y="1400.0" name="top"/>
  <outline>
    <contour>
      <point x="230.573242188" y="1400.0" type="curve" smooth="yes"/>
      <point x="565.573242188" y="1400.0" type="line" smooth="yes"/>
      <point x="569.573242188" y="1400.0"/>
      <point x="570.573242188" y="1399.0"/>
      <point x="569.573242188" y="1395.0" type="curve" smooth="yes"/>
      <point x="564.573242188" y="1375.0" type="line" smooth="yes"/>
      <point x="563.573242188" y="1371.0"/>
      <point x="562.573242188" y="1370.0"/>
      <point x="558.573242188" y="1370.0" type="curve" smooth="yes"/>
      <point x="408.573242188" y="1370.0" type="line"/>
      <point x="93.5732421875" y="5.0" type="line" smooth="yes"/>
      <point x="92.5732421875" y="1.0"/>
      <point x="91.5732421875" y="0.0"/>
      <point x="87.5732421875" y="0.0" type="curve" smooth="yes"/>
      <point x="62.5732421875" y="0.0" type="line" smooth="yes"/>
      <point x="58.5732421875" y="0.0"/>
      <point x="57.5732421875" y="1.0"/>
      <point x="58.5732421875" y="5.0" type="curve" smooth="yes"/>
      <point x="373.573242188" y="1370.0" type="line"/>
      <point x="223.573242188" y="1370.0" type="line" smooth="yes"/>
      <point x="219.573242188" y="1370.0"/>
      <point x="218.573242188" y="1371.0"/>
      <point x="219.573242188" y="1375.0" type="curve" smooth="yes"/>
      <point x="224.573242188" y="1395.0" type="line" smooth="yes"/>
      <point x="225.573242188" y="1399.0"/>
      <point x="226.573242188" y="1400.0"/>
    </contour>
  </outline>
</glyph>
<glyph name="U" format="2">
  <advance height="960" width="361"/>
  <unicode hex="0055"/>
  <anchor x="83.0" y="0.0" name="bottom"/>
  <anchor x="136.0" y="20.0" name="ogonek"/>
  <anchor x="406.0" y="1400.0" name="top"/>
  <outline>
    <contour>
      <point x="202.232421875" y="174.0" type="curve" smooth="yes"/>
      <point x="484.232421875" y="1395.0" type="line" smooth="yes"/>
      <point x="485.232421875" y="1399.0"/>
      <point x="486.232421875" y="1400.0"/>
      <point x="490.232421875" y="1400.0" type="curve" smooth="yes"/>
      <point x="510.232421875" y="1400.0" type="line" smooth="yes"/>
      <point x="514.232421875" y="1400.0"/>
      <point x="515.232421875" y="1399.0"/>
      <point x="514.232421875" y="1395.0" type="curve" smooth="yes"/>
      <point x="238.232421875" y="199.0" type="line" smooth="yes"/>
      <point x="206.232421875" y="59.0"/>
      <point x="151.2734375" y="-5.0"/>
      <point x="74.560546875" y="-5.0" type="curve" smooth="yes"/>
      <point x="6.873046875" y="-5.0"/>
      <point x="-35.505859375" y="28.0"/>
      <point x="5.494140625" y="204.0" type="curve" smooth="yes"/>
      <point x="280.494140625" y="1395.0" type="line" smooth="yes"/>
      <point x="281.494140625" y="1399.0"/>
      <point x="282.494140625" y="1400.0"/>
      <point x="286.494140625" y="1400.0" type="curve" smooth="yes"/>
      <point x="311.494140625" y="1400.0" type="line" smooth="yes"/>
      <point x="315.494140625" y="1400.0"/>
      <point x="316.446289062" y="1399.0"/>
      <point x="315.454101562" y="1395.0" type="curve" smooth="yes"/>
      <point x="35.494140625" y="184.0" type="line" smooth="yes"/>
      <point x="7.494140625" y="64.0"/>
      <point x="31.916015625" y="25.0"/>
      <point x="81.5537109375" y="25.0" type="curve" smooth="yes"/>
      <point x="135.703125" y="25.0"/>
      <point x="181.252929688" y="84.0"/>
    </contour>
  </outline>
</glyph>
<glyph name="V" format="2">
  <advance height="960" width="374"/>
  <unicode hex="0056"/>
  <anchor x="83.0" y="0.0" name="bottom"/>
  <anchor x="405.0" y="1400.0" name="top"/>
  <outline>
    <contour>
      <point x="104.045898438" y="55.0" type="line"/>
      <point x="537.045898438" y="1395.0" type="line" smooth="yes"/>
      <point x="539.045898438" y="1398.0"/>
      <point x="541.045898438" y="1400.0"/>
      <point x="545.045898438" y="1400.0" type="curve" smooth="yes"/>
      <point x="562.045898438" y="1400.0" type="line" smooth="yes"/>
      <point x="566.045898438" y="1400.0"/>
      <point x="566.045898438" y="1398.0"/>
      <point x="564.045898438" y="1395.0" type="curve" smooth="yes"/>
      <point x="114.045898438" y="5.0" type="line" smooth="yes"/>
      <point x="112.045898438" y="2.0"/>
      <point x="110.045898438" y="0.0"/>
      <point x="106.045898438" y="0.0" type="curve" smooth="yes"/>
      <point x="75.0458984375" y="0.0" type="line" smooth="yes"/>
      <point x="71.0458984375" y="0.0"/>
      <point x="70.0458984375" y="2.0"/>
      <point x="70.0458984375" y="5.0" type="curve" smooth="yes"/>
      <point x="248.045898438" y="1395.0" type="line" smooth="yes"/>
      <point x="248.045898438" y="1398.0"/>
      <point x="248.045898438" y="1400.0"/>
      <point x="252.045898438" y="1400.0" type="curve" smooth="yes"/>
      <point x="278.045898438" y="1400.0" type="line" smooth="yes"/>
      <point x="282.045898438" y="1400.0"/>
      <point x="284.045898438" y="1399.0"/>
      <point x="284.045898438" y="1395.0" type="curve" smooth="yes"/>
    </contour>
  </outline>
</glyph>
<glyph name="W" format="2">
  <advance height="960" width="615"/>
  <unicode hex="0057"/>
  <anchor x="217.0" y="0.0" name="bottom"/>
  <anchor x="540.0" y="1400.0" name="top"/>
  <outline>
    <contour>
      <point x="87.927734375" y="55.0" type="line"/>
      <point x="508.598632812" y="1395.0" type="line" smooth="yes"/>
      <point x="510.471679688" y="1398.0"/>
      <point x="511.419921875" y="1400.0"/>
      <point x="515.029296875" y="1400.0" type="curve" smooth="yes"/>
      <point x="552.032226562" y="1400.0" type="line" smooth="yes"/>
      <point x="555.641601562" y="1400.0"/>
      <point x="557.40234375" y="1398.0"/>
      <point x="557.334960938" y="1395.0" type="curve" smooth="yes"/>
      <point x="354.1640625" y="47.0" type="line"/>
      <point x="782.1640625" y="1395.0" type="line" smooth="yes"/>
      <point x="784.1640625" y="1398.0"/>
      <point x="786.1640625" y="1400.0"/>
      <point x="790.1640625" y="1400.0" type="curve" smooth="yes"/>
      <point x="808.1640625" y="1400.0" type="line" smooth="yes"/>
      <point x="812.1640625" y="1400.0"/>
      <point x="812.1640625" y="1398.0"/>
      <point x="810.1640625" y="1395.0" type="curve" smooth="yes"/>
      <point x="365.1640625" y="5.0" type="line" smooth="yes"/>
      <point x="363.1640625" y="1.0"/>
      <point x="362.1640625" y="0.0"/>
      <point x="358.1640625" y="0.0" type="curve" smooth="yes"/>
      <point x="320.1640625" y="0.0" type="line" smooth="yes"/>
      <point x="317.456054688" y="0.0"/>
      <point x="314.771484375" y="1.0"/>
      <point x="314.861328125" y="5.0" type="curve" smooth="yes"/>
      <point x="518.303710938" y="1345.0" type="line"/>
      <point x="97.3583984375" y="5.0" type="line" smooth="yes"/>
      <point x="95.462890625" y="1.0"/>
      <point x="94.5390625" y="0.0"/>
      <point x="90.927734375" y="0.0" type="curve" smooth="yes"/>
      <point x="52.927734375" y="0.0" type="line" smooth="yes"/>
      <point x="48.927734375" y="0.0"/>
      <point x="47.927734375" y="1.0"/>
      <point x="47.927734375" y="5.0" type="curve" smooth="yes"/>
      <point x="248.927734375" y="1395.0" type="line" smooth="yes"/>
      <point x="248.927734375" y="1398.0"/>
      <point x="249.927734375" y="1400.0"/>
      <point x="253.927734375" y="1400.0" type="curve" smooth="yes"/>
      <point x="276.927734375" y="1400.0" type="line" smooth="yes"/>
      <point x="280.927734375" y="1400.0"/>
      <point x="282.927734375" y="1398.0"/>
      <point x="282.927734375" y="1395.0" type="curve" smooth="yes"/>
    </contour>
  </outline>
</glyph>
<glyph name="X" format="2">
  <advance height="960" width="347"/>
  <unicode hex="0058"/>
  <anchor x="71.0" y="0.0" name="bottom"/>
  <anchor x="393.0" y="1400.0" name="top"/>
  <outline>
    <contour>
      <point x="491.33984375" y="1400.0" type="curve" smooth="yes"/>
      <point x="504.877929688" y="1400.0" type="line" smooth="yes"/>
      <point x="508.856445312" y="1400.0"/>
      <point x="519.856445312" y="1399.0"/>
      <point x="517.856445312" y="1395.0" type="curve" smooth="yes"/>
      <point x="251.830078125" y="703.0" type="line"/>
      <point x="212.856445312" y="5.0" type="line" smooth="yes"/>
      <point x="212.856445312" y="1.0"/>
      <point x="211.856445312" y="0.0"/>
      <point x="207.856445312" y="0.0" type="curve" smooth="yes"/>
      <point x="181.856445312" y="0.0" type="line" smooth="yes"/>
      <point x="178.24609375" y="0.0"/>
      <point x="176.463867188" y="1.0"/>
      <point x="175.651367188" y="5.0" type="curve" smooth="yes"/>
      <point x="223.922851562" y="666.0" type="line"/>
      <point x="-31.0205078125" y="5.0" type="line" smooth="yes"/>
      <point x="-34.7216796875" y="1.0"/>
      <point x="-35.6455078125" y="0.0"/>
      <point x="-39.255859375" y="0.0" type="curve" smooth="yes"/>
      <point x="-66.255859375" y="0.0" type="line" smooth="yes"/>
      <point x="-70.255859375" y="0.0"/>
      <point x="-72.255859375" y="1.0"/>
      <point x="-70.255859375" y="5.0" type="curve" smooth="yes"/>
      <point x="218.482421875" y="705.0" type="line"/>
      <point x="266.744140625" y="1395.0" type="line" smooth="yes"/>
      <point x="266.744140625" y="1399.0"/>
      <point x="267.744140625" y="1400.0"/>
      <point x="271.744140625" y="1400.0" type="curve" smooth="yes"/>
      <point x="295.497070312" y="1400.0" type="line" smooth="yes"/>
      <point x="299.107421875" y="1400.0"/>
      <point x="301.79296875" y="1399.0"/>
      <point x="302.604492188" y="1395.0" type="curve" smooth="yes"/>
      <point x="246.368164062" y="741.0" type="line"/>
      <point x="484.006835938" y="1395.0" type="line" smooth="yes"/>
      <point x="487.708007812" y="1399.0"/>
      <point x="487.729492188" y="1400.0"/>
    </contour>
  </outline>
</glyph>
<glyph name="Y" format="2">
  <advance height="960" width="374"/>
  <unicode hex="0059"/>
  <anchor x="77.0" y="0.0" name="bottom"/>
  <anchor x="400.0" y="1400.0" name="top"/>
  <outline>
    <contour>
      <point x="545.034179688" y="1400.0" type="curve" smooth="yes"/>
      <point x="562.034179688" y="1400.0" type="line" smooth="yes"/>
      <point x="566.034179688" y="1400.0"/>
      <point x="566.034179688" y="1399.0"/>
      <point x="563.034179688" y="1395.0" type="curve" smooth="yes"/>
      <point x="246.034179688" y="625.0" type="line"/>
      <point x="103.034179688" y="5.0" type="line" smooth="yes"/>
      <point x="102.034179688" y="1.0"/>
      <point x="100.034179688" y="0.0"/>
      <point x="96.0341796875" y="0.0" type="curve" smooth="yes"/>
      <point x="72.0341796875" y="0.0" type="line" smooth="yes"/>
      <point x="68.0341796875" y="0.0"/>
      <point x="66.0341796875" y="1.0"/>
      <point x="67.0341796875" y="5.0" type="curve" smooth="yes"/>
      <point x="210.034179688" y="625.0" type="line"/>
      <point x="249.034179688" y="1395.0" type="line" smooth="yes"/>
      <point x="248.034179688" y="1399.0"/>
      <point x="248.034179688" y="1400.0"/>
      <point x="252.034179688" y="1400.0" type="curve" smooth="yes"/>
      <point x="275.034179688" y="1400.0" type="line" smooth="yes"/>
      <point x="279.034179688" y="1400.0"/>
      <point x="281.034179688" y="1399.0"/>
      <point x="282.034179688" y="1395.0" type="curve" smooth="yes"/>
      <point x="243.034179688" y="675.0" type="line"/>
      <point x="536.034179688" y="1395.0" type="line" smooth="yes"/>
      <point x="539.034179688" y="1399.0"/>
      <point x="541.034179688" y="1400.0"/>
    </contour>
  </outline>
</glyph>
<glyph name="Z" format="2">
  <advance height="960" width="351"/>
  <unicode hex="005A"/>
  <anchor x="85.0" y="0.0" name="bottom"/>
  <anchor x="407.0" y="1400.0" name="top"/>
  <outline>
    <contour>
      <point x="-102.736328125" y="5.0" type="curve" smooth="yes"/>
      <point x="512.263671875" y="1370.0" type="line"/>
      <point x="274.263671875" y="1370.0" type="line" smooth="yes"/>
      <point x="270.263671875" y="1370.0"/>
      <point x="269.263671875" y="1371.0"/>
      <point x="270.263671875" y="1375.0" type="curve" smooth="yes"/>
      <point x="275.263671875" y="1395.0" type="line" smooth="yes"/>
      <point x="276.263671875" y="1399.0"/>
      <point x="277.263671875" y="1400.0"/>
      <point x="281.263671875" y="1400.0" type="curve" smooth="yes"/>
      <point x="553.263671875" y="1400.0" type="line" smooth="yes"/>
      <point x="557.263671875" y="1400.0"/>
      <point x="558.263671875" y="1399.0"/>
      <point x="556.263671875" y="1395.0" type="curve" smooth="yes"/>
      <point x="-56.736328125" y="30.0" type="line"/>
      <point x="220.263671875" y="30.0" type="line" smooth="yes"/>
      <point x="224.263671875" y="30.0"/>
      <point x="225.263671875" y="29.0"/>
      <point x="224.263671875" y="25.0" type="curve" smooth="yes"/>
      <point x="219.263671875" y="5.0" type="line" smooth="yes"/>
      <point x="218.263671875" y="1.0"/>
      <point x="217.263671875" y="0.0"/>
      <point x="213.263671875" y="0.0" type="curve" smooth="yes"/>
      <point x="-99.736328125" y="0.0" type="line" smooth="yes"/>
      <point x="-103.736328125" y="0.0"/>
      <point x="-104.736328125" y="1.0"/>
    </contour>
  </outline>
</glyph>
<glyph name="bracketleft" format="2">
  <advance height="1920" width="275"/>
  <unicode hex="005B"/>
  <outline>
    <contour>
      <point x="349.0" y="1575.0" type="line"/>
      <point x="-92.0" y="-335.0" type="line"/>
      <point x="48.0" y="-335.0" type="line" smooth="yes"/>
      <point x="52.0" y="-335.0"/>
      <point x="53.0" y="-336.0"/>
      <point x="52.0" y="-340.0" type="curve" smooth="yes"/>
      <point x="48.0" y="-355.0" type="line" smooth="yes"/>
      <point x="47.0" y="-359.0"/>
      <point x="46.0" y="-360.0"/>
      <point x="42.0" y="-360.0" type="curve" smooth="yes"/>
      <point x="-123.0" y="-360.0" type="line" smooth="yes"/>
      <point x="-127.0" y="-360.0"/>
      <point x="-128.0" y="-359.0"/>
      <point x="-127.0" y="-355.0" type="curve" smooth="yes"/>
      <point x="323.0" y="1595.0" type="line" smooth="yes"/>
      <point x="324.0" y="1599.0"/>
      <point x="325.0" y="1600.0"/>
      <point x="329.0" y="1600.0" type="curve" smooth="yes"/>
      <point x="494.0" y="1600.0" type="line" smooth="yes"/>
      <point x="498.0" y="1600.0"/>
      <point x="499.0" y="1599.0"/>
      <point x="498.0" y="1595.0" type="curve" smooth="yes"/>
      <point x="495.0" y="1580.0" type="line" smooth="yes"/>
      <point x="494.0" y="1576.0"/>
      <point x="493.0" y="1575.0"/>
      <point x="489.0" y="1575.0" type="curve" smooth="yes"/>
    </contour>
  </outline>
</glyph>
<glyph name="backslash" format="2">
  <advance height="2048" width="379"/>
  <unicode hex="005C"/>
  <outline>
    <contour>
      <point x="215.0" y="-95.0" type="line" smooth="yes"/>
      <point x="215.0" y="-99.0"/>
      <point x="213.0" y="-100.0"/>
      <point x="209.0" y="-100.0" type="curve" smooth="yes"/>
      <point x="191.0" y="-100.0" type="line" smooth="yes"/>
      <point x="187.0" y="-100.0"/>
      <point x="186.0" y="-99.0"/>
      <point x="185.0" y="-95.0" type="curve" smooth="yes"/>
      <point x="220.0" y="1395.0" type="line" smooth="yes"/>
      <point x="220.0" y="1399.0"/>
      <point x="222.0" y="1400.0"/>
      <point x="226.0" y="1400.0" type="curve" smooth="yes"/>
      <point x="244.0" y="1400.0" type="line" smooth="yes"/>
      <point x="247.0" y="1400.0"/>
      <point x="250.0" y="1399.0"/>
      <point x="250.0" y="1395.0" type="curve" smooth="yes"/>
    </contour>
  </outline>
</glyph>
<glyph name="bracketright" format="2">
  <advance height="1920" width="275"/>
  <unicode hex="005D"/>
  <outline>
    <contour>
      <point x="-27.0" y="-335.0" type="line"/>
      <point x="414.0" y="1575.0" type="line"/>
      <point x="274.0" y="1575.0" type="line" smooth="yes"/>
      <point x="270.0" y="1575.0"/>
      <point x="269.0" y="1576.0"/>
      <point x="270.0" y="1580.0" type="curve" smooth="yes"/>
      <point x="273.0" y="1595.0" type="line" smooth="yes"/>
      <point x="274.0" y="1599.0"/>
      <point x="275.0" y="1600.0"/>
      <point x="279.0" y="1600.0" type="curve" smooth="yes"/>
      <point x="444.0" y="1600.0" type="line" smooth="yes"/>
      <point x="448.0" y="1600.0"/>
      <point x="449.0" y="1599.0"/>
      <point x="448.0" y="1595.0" type="curve" smooth="yes"/>
      <point x="-2.0" y="-355.0" type="line" smooth="yes"/>
      <point x="-3.0" y="-359.0"/>
      <point x="-4.0" y="-360.0"/>
      <point x="-8.0" y="-360.0" type="curve" smooth="yes"/>
      <point x="-173.0" y="-360.0" type="line" smooth="yes"/>
      <point x="-177.0" y="-360.0"/>
      <point x="-178.0" y="-359.0"/>
      <point x="-177.0" y="-355.0" type="curve" smooth="yes"/>
      <point x="-173.0" y="-340.0" type="line" smooth="yes"/>
      <point x="-172.0" y="-336.0"/>
      <point x="-171.0" y="-335.0"/>
      <point x="-167.0" y="-335.0" type="curve" smooth="yes"/>
    </contour>
  </outline>
</glyph>
<glyph name="asciicircum" format="2">
  <advance height="1920" width="386"/>
  <unicode hex="005E"/>
  <outline>
    <contour>
      <point x="377.0" y="1321.0" type="line"/>
      <point x="117.0" y="740.0" type="line" smooth="yes"/>
      <point x="114.0" y="734.0"/>
      <point x="108.0" y="730.0"/>
      <point x="101.0" y="730.0" type="curve" smooth="yes"/>
      <point x="91.0" y="730.0" type="line" smooth="yes"/>
      <point x="84.0" y="730.0"/>
      <point x="83.0" y="734.0"/>
      <point x="87.0" y="740.0" type="curve" smooth="yes"/>
      <point x="379.0" y="1390.0" type="line" smooth="yes"/>
      <point x="383.0" y="1399.0"/>
      <point x="387.0" y="1400.0"/>
      <point x="394.0" y="1400.0" type="curve" smooth="yes"/>
      <point x="396.0" y="1400.0" type="line" smooth="yes"/>
      <point x="403.0" y="1400.0"/>
      <point x="407.0" y="1399.0"/>
      <point x="407.0" y="1390.0" type="curve" smooth="yes"/>
      <point x="399.0" y="740.0" type="line" smooth="yes"/>
      <point x="401.0" y="734.0"/>
      <point x="403.0" y="730.0"/>
      <point x="391.0" y="730.0" type="curve" smooth="yes"/>
      <point x="381.0" y="730.0" type="line" smooth="yes"/>
      <point x="371.0" y="730.0"/>
      <point x="370.0" y="734.0"/>
      <point x="369.0" y="740.0" type="curve" smooth="yes"/>
    </contour>
  </outline>
</glyph>
<glyph name="underscore" format="2">
  <advance height="1920" width="450"/>
  <unicode hex="005F"/>
  <outline>
    <contour>
      <point x="-126.0" y="-24.0" type="curve" smooth="yes"/>
      <point x="-121.0" y="-5.0" type="line" smooth="yes"/>
      <point x="-120.0" y="-1.0"/>
      <point x="-119.0" y="0.0"/>
      <point x="-115.0" y="0.0" type="curve" smooth="yes"/>
      <point x="325.0" y="0.0" type="line" smooth="yes"/>
      <point x="329.0" y="0.0"/>
      <point x="330.0" y="-1.0"/>
      <point x="329.0" y="-5.0" type="curve" smooth="yes"/>
      <point x="324.0" y="-24.0" type="line" smooth="yes"/>
      <point x="323.0" y="-28.0"/>
      <point x="322.0" y="-30.0"/>
      <point x="318.0" y="-30.0" type="curve" smooth="yes"/>
      <point x="-122.0" y="-30.0" type="line" smooth="yes"/>
      <point x="-126.0" y="-30.0"/>
      <point x="-127.0" y="-28.0"/>
    </contour>
  </outline>
</glyph>
<glyph name="grave" format="2">
  <advance width="311"/>
  <unicode hex="0060"/>
  <outline>
    <contour>
      <point x="343.0" y="1104.0" type="curve" smooth="yes"/>
      <point x="333.0" y="1104.0" type="line" smooth="yes"/>
      <point x="329.0" y="1104.0"/>
      <point x="326.0" y="1109.0"/>
      <point x="325.0" y="1114.0" type="curve" smooth="yes"/>
      <point x="276.0" y="1390.0" type="line" smooth="yes"/>
      <point x="275.0" y="1395.0"/>
      <point x="274.0" y="1400.0"/>
      <point x="278.0" y="1400.0" type="curve" smooth="yes"/>
      <point x="304.0" y="1400.0" type="line" smooth="yes"/>
      <point x="308.0" y="1400.0"/>
      <point x="310.0" y="1397.0"/>
      <point x="310.0" y="1390.0" type="curve" smooth="yes"/>
      <point x="347.0" y="1114.0" type="line" smooth="yes"/>
      <point x="347.0" y="1107.0"/>
      <point x="347.0" y="1104.0"/>
    </contour>
  </outline>
</glyph>
<glyph name="b" format="2">
  <advance height="1104" width="326"/>
  <unicode hex="0062"/>
  <outline>
    <contour>
      <point x="295.911132812" y="1450.0" type="curve" smooth="yes"/>
      <point x="313.739257812" y="1450.0" type="line" smooth="yes"/>
      <point x="317.739257812" y="1450.0"/>
      <point x="318.739257812" y="1448.0"/>
      <point x="317.739257812" y="1444.0" type="curve" smooth="yes"/>
      <point x="19.7392578125" y="151.0" type="line"/>
      <point x="-31.0888671875" y="-3.0" type="line" smooth="yes"/>
      <point x="-33.0888671875" y="-8.0"/>
      <point x="-35.0888671875" y="-10.0"/>
      <point x="-39.0888671875" y="-10.0" type="curve" smooth="yes"/>
      <point x="-41.0888671875" y="-10.0" type="line" smooth="yes"/>
      <point x="-45.0888671875" y="-10.0"/>
      <point x="-47.0888671875" y="-7.0"/>
      <point x="-46.0888671875" y="-3.0" type="curve" smooth="yes"/>
      <point x="287.911132812" y="1444.0" type="line" smooth="yes"/>
      <point x="288.911132812" y="1448.0"/>
      <point x="291.911132812" y="1450.0"/>
    </contour>
    <contour>
      <point x="168.739257812" y="846.0" type="line"/>
      <point x="205.739257812" y="1005.0"/>
      <point x="265.780273438" y="1055.0"/>
      <point x="326.845703125" y="1055.0" type="curve" smooth="yes"/>
      <point x="388.911132812" y="1055.0"/>
      <point x="407.911132812" y="1009.0"/>
      <point x="373.911132812" y="861.0" type="curve" smooth="yes"/>
      <point x="226.911132812" y="227.0" type="line" smooth="yes"/>
      <point x="186.911132812" y="53.0"/>
      <point x="158.911132812" y="-3.0"/>
      <point x="88.8525390625" y="-3.0" type="curve" smooth="yes"/>
      <point x="0.7578125" y="-3.0"/>
      <point x="7.7392578125" y="149.0"/>
      <point x="40.7392578125" y="294.0" type="curve"/>
      <point x="54.7392578125" y="305.0" type="line"/>
      <point x="25.7392578125" y="180.0"/>
      <point x="20.7724609375" y="25.0"/>
      <point x="93.8505859375" y="25.0" type="curve" smooth="yes"/>
      <point x="137.8984375" y="25.0"/>
      <point x="162.911132812" y="80.0"/>
      <point x="193.911132812" y="214.0" type="curve" smooth="yes"/>
      <point x="346.911132812" y="873.0" type="line" smooth="yes"/>
      <point x="367.911132812" y="963.0"/>
      <point x="367.896484375" y="1026.0"/>
      <point x="310.8359375" y="1026.0" type="curve" smooth="yes"/>
      <point x="258.779296875" y="1026.0"/>
      <point x="205.740234375" y="954.0"/>
      <point x="179.740234375" y="843.0" type="curve"/>
    </contour>
  </outline>
</glyph>
<glyph name="c" format="2">
  <advance height="1104" width="284"/>
  <unicode hex="0063"/>
  <anchor x="61.0" y="0.0" name="bottom"/>
  <anchor x="289.0" y="1050.0" name="top"/>
  <outline>
    <contour>
      <point x="234.4921875" y="399.0" type="curve" smooth="yes"/>
      <point x="217.4921875" y="326.0"/>
      <point x="198.4921875" y="252.0"/>
      <point x="182.4921875" y="182.0" type="curve" smooth="yes"/>
      <point x="151.4921875" y="46.0"/>
      <point x="104.794921875" y="-5.0"/>
      <point x="39.8154296875" y="-5.0" type="curve" smooth="yes"/>
      <point x="-29.677734375" y="-5.0"/>
      <point x="-46.5693359375" y="55.0"/>
      <point x="-1.5693359375" y="251.0" type="curve" smooth="yes"/>
      <point x="125.430664062" y="801.0" type="line" smooth="yes"/>
      <point x="166.430664062" y="980.0"/>
      <point x="213.430664062" y="1054.0"/>
      <point x="287.47265625" y="1054.0" type="curve" smooth="yes"/>
      <point x="344.330078125" y="1054.0"/>
      <point x="367.4921875" y="1004.0"/>
      <point x="339.4921875" y="878.0" type="curve" smooth="yes"/>
      <point x="324.4921875" y="809.0"/>
      <point x="285.4921875" y="725.0"/>
      <point x="223.37109375" y="652.0" type="curve" smooth="yes"/>
      <point x="222.1171875" y="650.526367188"/>
      <point x="221.4765625" y="648.0"/>
      <point x="217.866210938" y="648.0" type="curve" smooth="yes"/>
      <point x="206.133789062" y="648.0" type="line" smooth="yes"/>
      <point x="202.524414062" y="648.0"/>
      <point x="198.647460938" y="649.508789062"/>
      <point x="199.883789062" y="651.0" type="curve" smooth="yes"/>
      <point x="262.040039062" y="726.0"/>
      <point x="299.015625" y="805.0"/>
      <point x="314.106445312" y="874.0" type="curve" smooth="yes"/>
      <point x="341.219726562" y="996.0"/>
      <point x="315.744140625" y="1027.0"/>
      <point x="278.743164062" y="1027.0" type="curve" smooth="yes"/>
      <point x="222.787109375" y="1027.0"/>
      <point x="189.3984375" y="947.0"/>
      <point x="158.40625" y="813.0" type="curve" smooth="yes"/>
      <point x="25.4306640625" y="238.0" type="line" smooth="yes"/>
      <point x="-14.5693359375" y="66.0"/>
      <point x="-3.7763671875" y="23.0"/>
      <point x="49.470703125" y="23.0" type="curve" smooth="yes"/>
      <point x="90.0830078125" y="23.0"/>
      <point x="128.4921875" y="44.0"/>
      <point x="160.4921875" y="184.0" type="curve" smooth="yes"/>
      <point x="176.5078125" y="254.0"/>
      <point x="193.493164062" y="327.0"/>
      <point x="212.4921875" y="400.0" type="curve" smooth="yes"/>
      <point x="212.4921875" y="402.0"/>
      <point x="214.4921875" y="404.0"/>
      <point x="218.4921875" y="404.0" type="curve" smooth="yes"/>
      <point x="228.4921875" y="404.0" type="line" smooth="yes"/>
      <point x="232.4921875" y="404.0"/>
      <point x="234.4921875" y="401.0"/>
    </contour>
  </outline>
</glyph>
<glyph name="d" format="2">
  <advance height="1104" width="309"/>
  <unicode hex="0064"/>
  <outline>
    <contour>
      <point x="177.926757812" y="231.0" type="line"/>
      <point x="140.918945312" y="70.0"/>
      <point x="96.912109375" y="-10.0"/>
      <point x="32.833984375" y="-10.0" type="curve" smooth="yes"/>
      <point x="-13.193359375" y="-10.0"/>
      <point x="-49.759765625" y="31.0"/>
      <point x="-7.759765625" y="215.0" type="curve" smooth="yes"/>
      <point x="135.240234375" y="836.0" type="line" smooth="yes"/>
      <point x="172.240234375" y="998.0"/>
      <point x="224.107421875" y="1070.0"/>
      <point x="283.671875" y="1070.0" type="curve" smooth="yes"/>
      <point x="344.138671875" y="1070.0"/>
      <point x="352.92578125" y="979.0"/>
      <point x="315.92578125" y="818.0" type="curve"/>
      <point x="304.115234375" y="815.0" type="line"/>
      <point x="332.111328125" y="936.0"/>
      <point x="326.338867188" y="1041.0"/>
      <point x="278.506835938" y="1041.0" type="curve" smooth="yes"/>
      <point x="233.381835938" y="1041.0"/>
      <point x="196.158203125" y="951.0"/>
      <point x="172.1796875" y="848.0" type="curve" smooth="yes"/>
      <point x="22.240234375" y="201.0" type="line" smooth="yes"/>
      <point x="-6.767578125" y="75.0"/>
      <point x="4.6064453125" y="19.0"/>
      <point x="49.7314453125" y="19.0" type="curve" smooth="yes"/>
      <point x="95.759765625" y="19.0"/>
      <point x="142.111328125" y="113.0"/>
      <point x="170.108398438" y="234.0" type="curve"/>
    </contour>
    <contour>
      <point x="479.92578125" y="1444.0" type="curve" smooth="yes"/>
      <point x="147.91015625" y="6.0" type="line" smooth="yes"/>
      <point x="146.91015625" y="2.0"/>
      <point x="144.91015625" y="0.0"/>
      <point x="140.91015625" y="0.0" type="curve" smooth="yes"/>
      <point x="124.91015625" y="0.0" type="line" smooth="yes"/>
      <point x="120.926757812" y="0.0"/>
      <point x="119.9296875" y="2.0"/>
      <point x="120.926757812" y="6.0" type="curve" smooth="yes"/>
      <point x="153.926757812" y="149.0" type="line"/>
      <point x="155.084960938" y="167.0" type="line"/>
      <point x="449.125976562" y="1444.0" type="line" smooth="yes"/>
      <point x="450.122070312" y="1448.0"/>
      <point x="453.9453125" y="1450.0"/>
      <point x="457.92578125" y="1450.0" type="curve" smooth="yes"/>
      <point x="475.92578125" y="1450.0" type="line" smooth="yes"/>
      <point x="479.92578125" y="1450.0"/>
      <point x="480.92578125" y="1448.0"/>
    </contour>
  </outline>
</glyph>
<glyph name="e" format="2">
  <advance height="1104" width="303"/>
  <unicode hex="0065"/>
  <anchor x="56.0" y="0.0" name="bottom"/>
  <anchor x="83.0" y="15.0" name="ogonek"/>
  <anchor x="296.0" y="1050.0" name="top"/>
  <outline>
    <contour>
      <point x="235.139648438" y="398.0" type="curve" smooth="yes"/>
      <point x="217.139648438" y="328.0"/>
      <point x="202.139648438" y="267.0"/>
      <point x="185.139648438" y="208.0" type="curve" smooth="yes"/>
      <point x="136.139648438" y="38.0"/>
      <point x="97.5126953125" y="-10.0"/>
      <point x="48.77734375" y="-10.0" type="curve" smooth="yes"/>
      <point x="-17.1044921875" y="-10.0"/>
      <point x="-30.6298828125" y="80.0"/>
      <point x="10.3701171875" y="258.0" type="curve" smooth="yes"/>
      <point x="133.370117188" y="793.0" type="line" smooth="yes"/>
      <point x="173.370117188" y="965.0"/>
      <point x="228.092773438" y="1060.0"/>
      <point x="296.682617188" y="1060.0" type="curve" smooth="yes"/>
      <point x="361.663085938" y="1060.0"/>
      <point x="361.139648438" y="979.0"/>
      <point x="332.139648438" y="824.0" type="curve" smooth="yes"/>
      <point x="309.139648438" y="698.0"/>
      <point x="292.139648438" y="628.0"/>
      <point x="263.139648438" y="502.0" type="curve" smooth="yes"/>
      <point x="263.139648438" y="500.0"/>
      <point x="261.139648438" y="497.0"/>
      <point x="257.139648438" y="497.0" type="curve" smooth="yes"/>
      <point x="82.3701171875" y="497.0" type="line"/>
      <point x="88.3701171875" y="523.0" type="line"/>
      <point x="241.275390625" y="523.0" type="line"/>
      <point x="342.490234375" y="970.0"/>
      <point x="338.493164062" y="1033.0"/>
      <point x="289.7578125" y="1033.0" type="curve" smooth="yes"/>
      <point x="239.217773438" y="1033.0"/>
      <point x="196.370117188" y="935.0"/>
      <point x="166.370117188" y="805.0" type="curve" smooth="yes"/>
      <point x="37.3701171875" y="245.0" type="line" smooth="yes"/>
      <point x="6.3701171875" y="111.0"/>
      <point x="5.1630859375" y="17.0"/>
      <point x="55.703125" y="17.0" type="curve" smooth="yes"/>
      <point x="108.950195312" y="17.0"/>
      <point x="140.939453125" y="115.0"/>
      <point x="214.139648438" y="400.0" type="curve" smooth="yes"/>
      <point x="214.18359375" y="402.0"/>
      <point x="218.139648438" y="403.0"/>
      <point x="222.139648438" y="403.0" type="curve" smooth="yes"/>
      <point x="232.139648438" y="403.0" type="line" smooth="yes"/>
      <point x="236.139648438" y="403.0"/>
      <point x="236.139648438" y="401.0"/>
    </contour>
  </outline>
</glyph>
<glyph name="f" format="2">
  <advance height="1104" width="204"/>
  <unicode hex="0066"/>
  <outline>
    <contour>
      <point x="329.290039062" y="1025.0" type="curve" smooth="yes"/>
      <point x="166.290039062" y="1025.0" type="line" smooth="yes"/>
      <point x="162.290039062" y="1025.0"/>
      <point x="160.290039062" y="1027.0"/>
      <point x="161.290039062" y="1031.0" type="curve" smooth="yes"/>
      <point x="164.290039062" y="1044.0" type="line" smooth="yes"/>
      <point x="165.290039062" y="1048.0"/>
      <point x="167.290039062" y="1050.0"/>
      <point x="171.290039062" y="1050.0" type="curve" smooth="yes"/>
      <point x="334.290039062" y="1050.0" type="line" smooth="yes"/>
      <point x="338.290039062" y="1050.0"/>
      <point x="340.290039062" y="1048.0"/>
      <point x="339.290039062" y="1044.0" type="curve" smooth="yes"/>
      <point x="336.290039062" y="1031.0" type="line" smooth="yes"/>
      <point x="335.290039062" y="1027.0"/>
      <point x="333.290039062" y="1025.0"/>
    </contour>
    <contour>
      <point x="285.290039062" y="1315.0" type="line" smooth="yes"/>
      <point x="312.290039062" y="1434.0"/>
      <point x="328.290039062" y="1476.0"/>
      <point x="428.290039062" y="1461.0" type="curve" smooth="yes"/>
      <point x="434.290039062" y="1460.0"/>
      <point x="435.290039062" y="1458.0"/>
      <point x="434.290039062" y="1454.0" type="curve" smooth="yes"/>
      <point x="431.290039062" y="1442.0" type="line" smooth="yes"/>
      <point x="430.290039062" y="1438.0"/>
      <point x="427.290039062" y="1436.0"/>
      <point x="420.290039062" y="1437.0" type="curve" smooth="yes"/>
      <point x="344.290039062" y="1448.0"/>
      <point x="335.290039062" y="1398.0"/>
      <point x="316.290039062" y="1315.0" type="curve" smooth="yes"/>
      <point x="-69.7099609375" y="-354.0" type="line" smooth="yes"/>
      <point x="-70.7099609375" y="-358.0"/>
      <point x="-73.7099609375" y="-360.0"/>
      <point x="-77.7099609375" y="-360.0" type="curve" smooth="yes"/>
      <point x="-95.7099609375" y="-360.0" type="line" smooth="yes"/>
      <point x="-99.7099609375" y="-360.0"/>
      <point x="-101.709960938" y="-358.0"/>
      <point x="-100.709960938" y="-354.0" type="curve" smooth="yes"/>
    </contour>
  </outline>
</glyph>
<glyph name="g" format="2">
  <advance height="1104" width="256"/>
  <unicode hex="0067"/>
  <anchor x="196.0" y="1050.0" name="top"/>
  <outline>
    <contour>
      <point x="406.635742188" y="1254.0" type="curve" smooth="yes"/>
      <point x="359.635742188" y="1084.0"/>
      <point x="331.635742188" y="1048.0"/>
      <point x="301.776367188" y="1031.0" type="curve"/>
      <point x="293.87890625" y="1041.0" type="line"/>
      <point x="318.44921875" y="1050.0"/>
      <point x="339.71484375" y="1092.0"/>
      <point x="380.635742188" y="1255.0" type="curve" smooth="yes"/>
      <point x="381.635742188" y="1258.0"/>
      <point x="384.635742188" y="1260.0"/>
      <point x="388.635742188" y="1260.0" type="curve" smooth="yes"/>
      <point x="401.635742188" y="1260.0" type="line" smooth="yes"/>
      <point x="405.635742188" y="1260.0"/>
      <point x="407.635742188" y="1258.0"/>
    </contour>
    <contour>
      <point x="75.33984375" y="153.0" type="line" smooth="yes"/>
      <point x="139.635742188" y="133.0"/>
      <point x="125.635742188" y="39.0"/>
      <point x="92.6357421875" y="-106.0" type="curve" smooth="yes"/>
      <point x="48.6357421875" y="-297.0"/>
      <point x="7.6357421875" y="-360.0"/>
      <point x="-52.6298828125" y="-360.0" type="curve" smooth="yes"/>
      <point x="-61.654296875" y="-360.0" type="line" smooth="yes"/>
      <point x="-115.8046875" y="-360.0"/>
      <point x="-133.426757812" y="-276.0"/>
      <point x="-96.4267578125" y="-114.0" type="curve" smooth="yes"/>
      <point x="-64.4267578125" y="25.0"/>
      <point x="-16.4267578125" y="118.0"/>
      <point x="42.015625" y="156.0" type="curve"/>
      <point x="39.783203125" y="137.0" type="line"/>
      <point x="-3.4677734375" y="100.0"/>
      <point x="-44.4296875" y="-20.0"/>
      <point x="-66.4267578125" y="-115.0" type="curve" smooth="yes"/>
      <point x="-102.427734375" y="-271.0"/>
      <point x="-83.7451171875" y="-339.0"/>
      <point x="-53.0595703125" y="-339.0" type="curve" smooth="yes"/>
      <point x="-47.64453125" y="-339.0" type="line" smooth="yes"/>
      <point x="1.1455078125" y="-339.0"/>
      <point x="34.6357421875" y="-238.0"/>
      <point x="64.6357421875" y="-106.0" type="curve" smooth="yes"/>
      <point x="87.6357421875" y="-7.0"/>
      <point x="112.670898438" y="105.0"/>
      <point x="59.27734375" y="121.0" type="curve" smooth="yes"/>
      <point x="30.6455078125" y="132.0" type="line" smooth="yes"/>
      <point x="-2.5556640625" y="151.0"/>
      <point x="-22.4267578125" y="164.0"/>
      <point x="-12.4267578125" y="209.0" type="curve" smooth="yes"/>
      <point x="-4.4267578125" y="244.0"/>
      <point x="33.119140625" y="282.0"/>
      <point x="91.9619140625" y="290.0" type="curve"/>
      <point x="90.8564453125" y="281.0" type="line"/>
      <point x="56.359375" y="272.0"/>
      <point x="28.923828125" y="256.0"/>
      <point x="19.96875" y="219.0" type="curve" smooth="yes"/>
      <point x="11.9384765625" y="183.0"/>
      <point x="26.2431640625" y="177.0"/>
      <point x="46.73046875" y="165.0" type="curve" smooth="yes"/>
    </contour>
    <contour>
      <point x="191.204101562" y="489.0" type="curve" smooth="yes"/>
      <point x="275.251953125" y="855.0" type="line" smooth="yes"/>
      <point x="295.283203125" y="943.0"/>
      <point x="301.12109375" y="1042.0"/>
      <point x="265.021484375" y="1042.0" type="curve" smooth="yes"/>
      <point x="227.116210938" y="1042.0"/>
      <point x="183.240234375" y="939.0"/>
      <point x="164.220703125" y="855.0" type="curve" smooth="yes"/>
      <point x="80.1953125" y="489.0" type="line" smooth="yes"/>
      <point x="62.150390625" y="409.0"/>
      <point x="58.8837890625" y="304.0"/>
      <point x="94.08203125" y="304.0" type="curve" smooth="yes"/>
      <point x="130.182617188" y="304.0"/>
      <point x="171.240234375" y="404.0"/>
    </contour>
    <contour>
      <point x="223.635742188" y="502.0" type="line" smooth="yes"/>
      <point x="194.635742188" y="378.0"/>
      <point x="143.122070312" y="274.0"/>
      <point x="86.1865234375" y="274.0" type="curve" smooth="yes"/>
      <point x="21.5732421875" y="274.0"/>
      <point x="24.5732421875" y="378.0"/>
      <point x="53.5732421875" y="502.0" type="curve" smooth="yes"/>
      <point x="131.573242188" y="842.0" type="line" smooth="yes"/>
      <point x="161.573242188" y="970.0"/>
      <point x="205.573242188" y="1070.0"/>
      <point x="270.1640625" y="1070.0" type="curve" smooth="yes"/>
      <point x="333.760742188" y="1070.0"/>
      <point x="331.635742188" y="970.0"/>
      <point x="301.635742188" y="842.0" type="curve" smooth="yes"/>
    </contour>
  </outline>
</glyph>
<glyph name="h" format="2">
  <advance height="1104" width="303"/>
  <unicode hex="0068"/>
  <anchor x="52.0" y="0.0" name="bottom"/>
  <anchor x="302.0" y="1450.0" name="top"/>
  <outline>
    <contour>
      <point x="297.717773438" y="1450.0" type="curve" smooth="yes"/>
      <point x="315.717773438" y="1450.0" type="line" smooth="yes"/>
      <point x="319.717773438" y="1450.0"/>
      <point x="320.708984375" y="1448.0"/>
      <point x="319.716796875" y="1444.0" type="curve" smooth="yes"/>
      <point x="-12.2822265625" y="6.0" type="line" smooth="yes"/>
      <point x="-13.2822265625" y="2.0"/>
      <point x="-15.2822265625" y="0.0"/>
      <point x="-19.2822265625" y="0.0" type="curve" smooth="yes"/>
      <point x="-37.2822265625" y="0.0" type="line" smooth="yes"/>
      <point x="-41.2822265625" y="0.0"/>
      <point x="-43.2822265625" y="2.0"/>
      <point x="-42.2822265625" y="6.0" type="curve" smooth="yes"/>
      <point x="289.717773438" y="1444.0" type="line" smooth="yes"/>
      <point x="290.717773438" y="1448.0"/>
      <point x="293.717773438" y="1450.0"/>
    </contour>
    <contour>
      <point x="172.717773438" y="839.0" type="line"/>
      <point x="202.717773438" y="967.0"/>
      <point x="252.41015625" y="1060.0"/>
      <point x="310.170898438" y="1060.0" type="curve" smooth="yes"/>
      <point x="364.45703125" y="1060.0"/>
      <point x="369.45703125" y="1001.0"/>
      <point x="341.45703125" y="881.0" type="curve" smooth="yes"/>
      <point x="139.45703125" y="6.0" type="line" smooth="yes"/>
      <point x="138.45703125" y="2.0"/>
      <point x="137.45703125" y="0.0"/>
      <point x="133.45703125" y="0.0" type="curve" smooth="yes"/>
      <point x="114.45703125" y="0.0" type="line" smooth="yes"/>
      <point x="110.45703125" y="0.0"/>
      <point x="109.46484375" y="2.0"/>
      <point x="110.45703125" y="6.0" type="curve" smooth="yes"/>
      <point x="312.458984375" y="881.0" type="line" smooth="yes"/>
      <point x="331.45703125" y="963.0"/>
      <point x="341.150390625" y="1033.0"/>
      <point x="296.025390625" y="1033.0" type="curve" smooth="yes"/>
      <point x="252.705078125" y="1033.0"/>
      <point x="200.659179688" y="926.0"/>
      <point x="172.665039062" y="805.0" type="curve"/>
    </contour>
  </outline>
</glyph>
<glyph name="i" format="2">
  <advance height="1104" width="149"/>
  <unicode hex="0069"/>
  <anchor x="-36.0" y="0.0" name="bottom"/>
  <anchor x="-36.0" y="0.0" name="ogonek"/>
  <outline>
    <contour>
      <point x="313.009765625" y="1426.0" type="curve" smooth="yes"/>
      <point x="265.009765625" y="1216.0" type="line" smooth="yes"/>
      <point x="264.009765625" y="1212.0"/>
      <point x="262.009765625" y="1210.0"/>
      <point x="258.009765625" y="1210.0" type="curve" smooth="yes"/>
      <point x="239.009765625" y="1210.0" type="line" smooth="yes"/>
      <point x="235.009765625" y="1210.0"/>
      <point x="234.009765625" y="1212.0"/>
      <point x="235.009765625" y="1216.0" type="curve" smooth="yes"/>
      <point x="283.009765625" y="1426.0" type="line" smooth="yes"/>
      <point x="284.009765625" y="1430.0"/>
      <point x="286.009765625" y="1431.0"/>
      <point x="290.009765625" y="1431.0" type="curve" smooth="yes"/>
      <point x="309.009765625" y="1431.0" type="line" smooth="yes"/>
      <point x="313.009765625" y="1431.0"/>
      <point x="314.009765625" y="1430.0"/>
    </contour>
    <contour>
      <point x="225.009765625" y="1044.0" type="curve" smooth="yes"/>
      <point x="-14.990234375" y="6.0" type="line" smooth="yes"/>
      <point x="-15.990234375" y="2.0"/>
      <point x="-16.990234375" y="0.0"/>
      <point x="-20.990234375" y="0.0" type="curve" smooth="yes"/>
      <point x="-39.990234375" y="0.0" type="line" smooth="yes"/>
      <point x="-43.990234375" y="0.0"/>
      <point x="-45.990234375" y="2.0"/>
      <point x="-44.990234375" y="6.0" type="curve" smooth="yes"/>
      <point x="195.009765625" y="1044.0" type="line" smooth="yes"/>
      <point x="196.009765625" y="1048.0"/>
      <point x="198.009765625" y="1050.0"/>
      <point x="202.009765625" y="1050.0" type="curve" smooth="yes"/>
      <point x="221.009765625" y="1050.0" type="line" smooth="yes"/>
      <point x="225.009765625" y="1050.0"/>
      <point x="226.009765625" y="1048.0"/>
    </contour>
  </outline>
</glyph>
<glyph name="j" format="2">
  <advance height="1104" width="149"/>
  <unicode hex="006A"/>
  <outline>
    <contour>
      <point x="-20.8486328125" y="-59.0" type="line" smooth="yes"/>
      <point x="-69.8486328125" y="-271.0"/>
      <point x="-109.848632812" y="-371.0"/>
      <point x="-158.848632812" y="-371.0" type="curve" smooth="yes"/>
      <point x="-227.848632812" y="-371.0"/>
      <point x="-168.848632812" y="-199.0"/>
      <point x="-128.848632812" y="-107.0" type="curve" smooth="yes"/>
      <point x="-126.848632812" y="-102.0"/>
      <point x="-124.848632812" y="-99.0"/>
      <point x="-119.848632812" y="-100.0" type="curve" smooth="yes"/>
      <point x="-113.848632812" y="-101.0" type="line" smooth="yes"/>
      <point x="-110.848632812" y="-102.0"/>
      <point x="-110.848632812" y="-103.0"/>
      <point x="-112.848632812" y="-107.0" type="curve" smooth="yes"/>
      <point x="-151.848632812" y="-199.0"/>
      <point x="-196.848632812" y="-345.0"/>
      <point x="-156.848632812" y="-345.0" type="curve" smooth="yes"/>
      <point x="-123.848632812" y="-345.0"/>
      <point x="-95.8486328125" y="-255.0"/>
      <point x="-50.8486328125" y="-60.0" type="curve" smooth="yes"/>
      <point x="203.151367188" y="1040.0" type="line" smooth="yes"/>
      <point x="205.151367188" y="1047.0"/>
      <point x="208.151367188" y="1050.0"/>
      <point x="215.151367188" y="1050.0" type="curve" smooth="yes"/>
      <point x="225.151367188" y="1050.0" type="line" smooth="yes"/>
      <point x="232.151367188" y="1050.0"/>
      <point x="235.151367188" y="1047.0"/>
      <point x="233.151367188" y="1040.0" type="curve" smooth="yes"/>
    </contour>
    <contour>
      <point x="322.151367188" y="1426.0" type="curve" smooth="yes"/>
      <point x="274.151367188" y="1216.0" type="line" smooth="yes"/>
      <point x="273.151367188" y="1212.0"/>
      <point x="270.151367188" y="1210.0"/>
      <point x="266.151367188" y="1210.0" type="curve" smooth="yes"/>
      <point x="247.151367188" y="1210.0" type="line" smooth="yes"/>
      <point x="243.151367188" y="1210.0"/>
      <point x="243.151367188" y="1212.0"/>
      <point x="244.151367188" y="1216.0" type="curve" smooth="yes"/>
      <point x="292.151367188" y="1426.0" type="line" smooth="yes"/>
      <point x="293.151367188" y="1430.0"/>
      <point x="294.151367188" y="1431.0"/>
      <point x="298.151367188" y="1431.0" type="curve" smooth="yes"/>
      <point x="317.151367188" y="1431.0" type="line" smooth="yes"/>
      <point x="321.151367188" y="1431.0"/>
      <point x="323.151367188" y="1430.0"/>
    </contour>
  </outline>
</glyph>
<glyph name="k" format="2">
  <advance height="1104" width="269"/>
  <unicode hex="006B"/>
  <outline>
    <contour>
      <point x="295.913085938" y="1450.0" type="curve" smooth="yes"/>
      <point x="313.913085938" y="1450.0" type="line" smooth="yes"/>
      <point x="317.913085938" y="1450.0"/>
      <point x="318.904296875" y="1448.0"/>
      <point x="317.911132812" y="1444.0" type="curve" smooth="yes"/>
      <point x="-14.0869140625" y="6.0" type="line" smooth="yes"/>
      <point x="-15.0869140625" y="2.0"/>
      <point x="-17.0869140625" y="0.0"/>
      <point x="-21.0869140625" y="0.0" type="curve" smooth="yes"/>
      <point x="-39.0869140625" y="0.0" type="line" smooth="yes"/>
      <point x="-43.0869140625" y="0.0"/>
      <point x="-45.0869140625" y="2.0"/>
      <point x="-44.0869140625" y="6.0" type="curve" smooth="yes"/>
      <point x="287.913085938" y="1444.0" type="line" smooth="yes"/>
      <point x="288.913085938" y="1448.0"/>
      <point x="291.913085938" y="1450.0"/>
    </contour>
    <contour>
      <point x="62.9130859375" y="412.0" type="line"/>
      <point x="346.813476562" y="1044.0" type="line" smooth="yes"/>
      <point x="349.6328125" y="1049.0"/>
      <point x="353.360351562" y="1050.0"/>
      <point x="357.360351562" y="1050.0" type="curve" smooth="yes"/>
      <point x="371.360351562" y="1050.0" type="line" smooth="yes"/>
      <point x="375.360351562" y="1050.0"/>
      <point x="378.360351562" y="1049.0"/>
      <point x="374.360351562" y="1044.0" type="curve" smooth="yes"/>
      <point x="59.9130859375" y="367.0" type="line"/>
    </contour>
    <contour>
      <point x="178.44921875" y="661.0" type="line"/>
      <point x="202.091796875" y="709.0" type="line"/>
      <point x="142.360351562" y="6.0" type="line" smooth="yes"/>
      <point x="143.360351562" y="2.0"/>
      <point x="143.360351562" y="1.0"/>
      <point x="139.360351562" y="0.0" type="curve" smooth="yes"/>
      <point x="119.360351562" y="0.0" type="line" smooth="yes"/>
      <point x="114.360351562" y="0.0"/>
      <point x="111.360351562" y="2.0"/>
      <point x="111.360351562" y="6.0" type="curve" smooth="yes"/>
    </contour>
  </outline>
</glyph>
<glyph name="l" format="2">
  <advance height="1104" width="155"/>
  <unicode hex="006C"/>
  <outline>
    <contour>
      <point x="297.717773438" y="1450.0" type="curve" smooth="yes"/>
      <point x="316.717773438" y="1450.0" type="line" smooth="yes"/>
      <point x="320.717773438" y="1450.0"/>
      <point x="320.717773438" y="1448.0"/>
      <point x="319.717773438" y="1444.0" type="curve" smooth="yes"/>
      <point x="-12.2822265625" y="6.0" type="line" smooth="yes"/>
      <point x="-13.2822265625" y="2.0"/>
      <point x="-14.2822265625" y="0.0"/>
      <point x="-18.2822265625" y="0.0" type="curve" smooth="yes"/>
      <point x="-37.2822265625" y="0.0" type="line" smooth="yes"/>
      <point x="-41.2822265625" y="0.0"/>
      <point x="-43.2822265625" y="2.0"/>
      <point x="-42.2822265625" y="6.0" type="curve" smooth="yes"/>
      <point x="289.717773438" y="1444.0" type="line" smooth="yes"/>
      <point x="290.717773438" y="1448.0"/>
      <point x="293.717773438" y="1450.0"/>
    </contour>
  </outline>
</glyph>
<glyph name="m" format="2">
  <advance height="1104" width="423"/>
  <unicode hex="006D"/>
  <outline>
    <contour>
      <point x="309.407226562" y="839.0" type="line"/>
      <point x="342.407226562" y="983.0"/>
      <point x="380.879882812" y="1060.0"/>
      <point x="434.127929688" y="1060.0" type="curve" smooth="yes"/>
      <point x="478.09765625" y="1060.0"/>
      <point x="488.09765625" y="1000.0"/>
      <point x="461.09765625" y="885.0" type="curve" smooth="yes"/>
      <point x="258.09765625" y="6.0" type="line" smooth="yes"/>
      <point x="257.09765625" y="2.0"/>
      <point x="255.09765625" y="0.0"/>
      <point x="251.09765625" y="0.0" type="curve" smooth="yes"/>
      <point x="232.09765625" y="0.0" type="line" smooth="yes"/>
      <point x="228.09765625" y="0.0"/>
      <point x="227.10546875" y="2.0"/>
      <point x="228.09765625" y="6.0" type="curve" smooth="yes"/>
      <point x="431.09765625" y="885.0" type="line" smooth="yes"/>
      <point x="449.137695312" y="965.0"/>
      <point x="451.525390625" y="1031.0"/>
      <point x="418.1328125" y="1031.0" type="curve" smooth="yes"/>
      <point x="385.642578125" y="1031.0"/>
      <point x="339.348632812" y="939.0"/>
      <point x="308.35546875" y="805.0" type="curve"/>
    </contour>
    <contour>
      <point x="204.717773438" y="1050.0" type="curve" smooth="yes"/>
      <point x="218.717773438" y="1050.0" type="line" smooth="yes"/>
      <point x="222.717773438" y="1050.0"/>
      <point x="224.717773438" y="1048.0"/>
      <point x="223.717773438" y="1044.0" type="curve" smooth="yes"/>
      <point x="194.717773438" y="917.0" type="line"/>
      <point x="195.680664062" y="901.0" type="line"/>
      <point x="-11.2822265625" y="6.0" type="line" smooth="yes"/>
      <point x="-12.2822265625" y="2.0"/>
      <point x="-13.2822265625" y="0.0"/>
      <point x="-17.2822265625" y="0.0" type="curve" smooth="yes"/>
      <point x="-37.2822265625" y="0.0" type="line" smooth="yes"/>
      <point x="-41.2822265625" y="0.0"/>
      <point x="-43.2822265625" y="2.0"/>
      <point x="-42.2822265625" y="6.0" type="curve" smooth="yes"/>
      <point x="197.717773438" y="1044.0" type="line" smooth="yes"/>
      <point x="198.717773438" y="1048.0"/>
      <point x="200.717773438" y="1050.0"/>
    </contour>
    <contour>
      <point x="171.717773438" y="842.0" type="line"/>
      <point x="203.717773438" y="979.0"/>
      <point x="248.8984375" y="1060.0"/>
      <point x="300.33984375" y="1060.0" type="curve" smooth="yes"/>
      <point x="347.407226562" y="1060.0"/>
      <point x="353.357421875" y="1000.0"/>
      <point x="326.401367188" y="885.0" type="curve" smooth="yes"/>
      <point x="123.407226562" y="6.0" type="line" smooth="yes"/>
      <point x="122.407226562" y="2.0"/>
      <point x="120.407226562" y="0.0"/>
      <point x="116.407226562" y="0.0" type="curve" smooth="yes"/>
      <point x="98.4072265625" y="0.0" type="line" smooth="yes"/>
      <point x="94.4072265625" y="0.0"/>
      <point x="92.4150390625" y="2.0"/>
      <point x="93.4072265625" y="6.0" type="curve" smooth="yes"/>
      <point x="296.407226562" y="885.0" type="line" smooth="yes"/>
      <point x="314.407226562" y="963.0"/>
      <point x="318.639648438" y="1031.0"/>
      <point x="285.248046875" y="1031.0" type="curve" smooth="yes"/>
      <point x="252.7578125" y="1031.0"/>
      <point x="203.688476562" y="936.0"/>
      <point x="173.665039062" y="805.0" type="curve"/>
    </contour>
  </outline>
</glyph>
<glyph name="n" format="2">
  <advance height="1104" width="303"/>
  <unicode hex="006E"/>
  <anchor x="48.0" y="0.0" name="bottom"/>
  <anchor x="312.0" y="1050.0" name="top"/>
  <outline>
    <contour>
      <point x="204.717773438" y="1050.0" type="curve" smooth="yes"/>
      <point x="220.717773438" y="1050.0" type="line" smooth="yes"/>
      <point x="224.717773438" y="1050.0"/>
      <point x="225.709960938" y="1048.0"/>
      <point x="224.717773438" y="1044.0" type="curve" smooth="yes"/>
      <point x="191.717773438" y="902.0" type="line"/>
      <point x="191.377929688" y="886.0" type="line"/>
      <point x="-12.5400390625" y="6.0" type="line" smooth="yes"/>
      <point x="-13.5322265625" y="2.0"/>
      <point x="-15.3818359375" y="0.0"/>
      <point x="-19.2822265625" y="0.0" type="curve" smooth="yes"/>
      <point x="-37.2822265625" y="0.0" type="line" smooth="yes"/>
      <point x="-41.2822265625" y="0.0"/>
      <point x="-43.2822265625" y="2.0"/>
      <point x="-42.2822265625" y="6.0" type="curve" smooth="yes"/>
      <point x="197.717773438" y="1044.0" type="line" smooth="yes"/>
      <point x="198.717773438" y="1048.0"/>
      <point x="200.717773438" y="1050.0"/>
    </contour>
    <contour>
      <point x="172.717773438" y="839.0" type="line"/>
      <point x="202.717773438" y="967.0"/>
      <point x="244.932617188" y="1060.0"/>
      <point x="309.913085938" y="1060.0" type="curve" smooth="yes"/>
      <point x="364.200195312" y="1060.0"/>
      <point x="369.200195312" y="1001.0"/>
      <point x="341.200195312" y="881.0" type="curve" smooth="yes"/>
      <point x="139.200195312" y="6.0" type="line" smooth="yes"/>
      <point x="138.200195312" y="2.0"/>
      <point x="137.200195312" y="0.0"/>
      <point x="133.200195312" y="0.0" type="curve" smooth="yes"/>
      <point x="114.200195312" y="0.0" type="line" smooth="yes"/>
      <point x="110.200195312" y="0.0"/>
      <point x="109.208007812" y="2.0"/>
      <point x="110.200195312" y="6.0" type="curve" smooth="yes"/>
      <point x="312.200195312" y="881.0" type="line" smooth="yes"/>
      <point x="331.200195312" y="963.0"/>
      <point x="340.892578125" y="1033.0"/>
      <point x="295.767578125" y="1033.0" type="curve" smooth="yes"/>
      <point x="252.447265625" y="1033.0"/>
      <point x="200.401367188" y="926.0"/>
      <point x="172.408203125" y="805.0" type="curve"/>
    </contour>
  </outline>
</glyph>
<glyph name="p" format="2">
  <advance height="1104" width="311"/>
  <unicode hex="0070"/>
  <outline>
    <contour>
      <point x="167.916992188" y="829.0" type="line"/>
      <point x="204.916992188" y="990.0"/>
      <point x="250.06640625" y="1070.0"/>
      <point x="314.14453125" y="1070.0" type="curve" smooth="yes"/>
      <point x="360.170898438" y="1070.0"/>
      <point x="396.797851562" y="1029.0"/>
      <point x="354.797851562" y="845.0" type="curve" smooth="yes"/>
      <point x="211.797851562" y="224.0" type="line" smooth="yes"/>
      <point x="174.797851562" y="62.0"/>
      <point x="122.87109375" y="-10.0"/>
      <point x="63.306640625" y="-10.0" type="curve" smooth="yes"/>
      <point x="2.837890625" y="-10.0"/>
      <point x="-6.0830078125" y="81.0"/>
      <point x="30.9169921875" y="242.0" type="curve"/>
      <point x="42.8740234375" y="245.0" type="line"/>
      <point x="14.876953125" y="124.0"/>
      <point x="19.736328125" y="19.0"/>
      <point x="67.5693359375" y="19.0" type="curve" smooth="yes"/>
      <point x="112.694335938" y="19.0"/>
      <point x="150.8203125" y="109.0"/>
      <point x="174.797851562" y="212.0" type="curve" smooth="yes"/>
      <point x="323.833984375" y="859.0" type="line" smooth="yes"/>
      <point x="352.842773438" y="985.0"/>
      <point x="341.46875" y="1041.0"/>
      <point x="296.34375" y="1041.0" type="curve" smooth="yes"/>
      <point x="250.31640625" y="1041.0"/>
      <point x="204.876953125" y="947.0"/>
      <point x="176.879882812" y="826.0" type="curve"/>
    </contour>
    <contour>
      <point x="-135.083007812" y="-388.0" type="curve" smooth="yes"/>
      <point x="195.916992188" y="1044.0" type="line" smooth="yes"/>
      <point x="196.916992188" y="1048.0"/>
      <point x="198.916992188" y="1050.0"/>
      <point x="202.916992188" y="1050.0" type="curve" smooth="yes"/>
      <point x="218.916992188" y="1050.0" type="line" smooth="yes"/>
      <point x="222.916992188" y="1050.0"/>
      <point x="224.916992188" y="1048.0"/>
      <point x="223.916992188" y="1044.0" type="curve" smooth="yes"/>
      <point x="190.916992188" y="901.0" type="line"/>
      <point x="189.888671875" y="883.0" type="line"/>
      <point x="-104.083007812" y="-388.0" type="line" smooth="yes"/>
      <point x="-105.083007812" y="-392.0"/>
      <point x="-108.083007812" y="-394.0"/>
      <point x="-112.083007812" y="-394.0" type="curve" smooth="yes"/>
      <point x="-129.083007812" y="-394.0" type="line" smooth="yes"/>
      <point x="-133.083007812" y="-394.0"/>
      <point x="-136.083007812" y="-392.0"/>
    </contour>
  </outline>
</glyph>
<glyph name="q" format="2">
  <advance height="1104" width="309"/>
  <unicode hex="0071"/>
  <outline>
    <contour>
      <point x="57.6806640625" y="-360.0" type="curve" smooth="yes"/>
      <point x="39.6806640625" y="-360.0" type="line" smooth="yes"/>
      <point x="35.6806640625" y="-360.0"/>
      <point x="33.6875" y="-358.0"/>
      <point x="34.6806640625" y="-354.0" type="curve" smooth="yes"/>
      <point x="324.680664062" y="899.0" type="line"/>
      <point x="374.680664062" y="1053.0" type="line" smooth="yes"/>
      <point x="376.680664062" y="1058.0"/>
      <point x="379.680664062" y="1060.0"/>
      <point x="383.680664062" y="1060.0" type="curve" smooth="yes"/>
      <point x="385.680664062" y="1060.0" type="line" smooth="yes"/>
      <point x="389.680664062" y="1060.0"/>
      <point x="390.680664062" y="1057.0"/>
      <point x="389.680664062" y="1053.0" type="curve" smooth="yes"/>
      <point x="64.6806640625" y="-354.0" type="line" smooth="yes"/>
      <point x="63.6806640625" y="-358.0"/>
      <point x="61.6806640625" y="-360.0"/>
    </contour>
    <contour>
      <point x="175.680664062" y="206.0" type="line"/>
      <point x="138.680664062" y="47.0"/>
      <point x="82.291015625" y="-3.0"/>
      <point x="27.23828125" y="-3.0" type="curve" smooth="yes"/>
      <point x="-28.7158203125" y="-3.0"/>
      <point x="-47.7138671875" y="43.0"/>
      <point x="-13.7138671875" y="191.0" type="curve" smooth="yes"/>
      <point x="132.286132812" y="825.0" type="line" smooth="yes"/>
      <point x="172.286132812" y="999.0"/>
      <point x="201.286132812" y="1055.0"/>
      <point x="265.849609375" y="1055.0" type="curve" smooth="yes"/>
      <point x="345.268554688" y="1055.0"/>
      <point x="336.680664062" y="903.0"/>
      <point x="303.680664062" y="758.0" type="curve"/>
      <point x="288.69921875" y="747.0" type="line"/>
      <point x="317.684570312" y="872.0"/>
      <point x="326.588867188" y="1027.0"/>
      <point x="260.706054688" y="1027.0" type="curve" smooth="yes"/>
      <point x="220.99609375" y="1027.0"/>
      <point x="196.286132812" y="972.0"/>
      <point x="165.286132812" y="838.0" type="curve" smooth="yes"/>
      <point x="13.2861328125" y="179.0" type="line" smooth="yes"/>
      <point x="-7.7138671875" y="89.0"/>
      <point x="-9.111328125" y="26.0"/>
      <point x="42.33203125" y="26.0" type="curve" smooth="yes"/>
      <point x="89.26171875" y="26.0"/>
      <point x="138.71484375" y="98.0"/>
      <point x="164.680664062" y="209.0" type="curve"/>
    </contour>
  </outline>
</glyph>
<glyph name="r" format="2">
  <advance height="1104" width="260"/>
  <unicode hex="0072"/>
  <anchor x="-35.0" y="0.0" name="bottom"/>
  <anchor x="274.0" y="1050.0" name="top"/>
  <outline>
    <contour>
      <point x="149.913085938" y="713.0" type="curve"/>
      <point x="152.913085938" y="770.0" type="line"/>
      <point x="191.913085938" y="940.0"/>
      <point x="265.913085938" y="1060.0"/>
      <point x="327.913085938" y="1060.0" type="curve" smooth="yes"/>
      <point x="405.913085938" y="1060.0"/>
      <point x="405.913085938" y="933.0"/>
      <point x="231.913085938" y="670.0" type="curve" smooth="yes"/>
      <point x="228.913085938" y="666.0"/>
      <point x="226.913085938" y="663.0"/>
      <point x="222.913085938" y="663.0" type="curve" smooth="yes"/>
      <point x="219.913085938" y="663.0" type="line" smooth="yes"/>
      <point x="213.913085938" y="663.0"/>
      <point x="216.913085938" y="666.0"/>
      <point x="218.913085938" y="670.0" type="curve" smooth="yes"/>
      <point x="356.913085938" y="904.0"/>
      <point x="381.913085938" y="1031.0"/>
      <point x="319.913085938" y="1031.0" type="curve" smooth="yes"/>
      <point x="266.913085938" y="1031.0"/>
      <point x="199.913085938" y="928.0"/>
    </contour>
    <contour>
      <point x="202.913085938" y="1050.0" type="curve" smooth="yes"/>
      <point x="215.913085938" y="1050.0" type="line" smooth="yes"/>
      <point x="219.913085938" y="1050.0"/>
      <point x="222.913085938" y="1048.0"/>
      <point x="221.913085938" y="1044.0" type="curve" smooth="yes"/>
      <point x="152.913085938" y="746.0" type="line"/>
      <point x="155.913085938" y="741.0" type="line"/>
      <point x="-14.0869140625" y="6.0" type="line" smooth="yes"/>
      <point x="-15.0869140625" y="2.0"/>
      <point x="-17.0869140625" y="0.0"/>
      <point x="-21.0869140625" y="0.0" type="curve" smooth="yes"/>
      <point x="-39.0869140625" y="0.0" type="line" smooth="yes"/>
      <point x="-43.0869140625" y="0.0"/>
      <point x="-45.0869140625" y="2.0"/>
      <point x="-44.0869140625" y="6.0" type="curve" smooth="yes"/>
      <point x="195.913085938" y="1044.0" type="line" smooth="yes"/>
      <point x="196.913085938" y="1048.0"/>
      <point x="198.913085938" y="1050.0"/>
    </contour>
  </outline>
</glyph>
<glyph name="t" format="2">
  <advance height="1104" width="202"/>
  <unicode hex="0074"/>
  <anchor x="25.0" y="0.0" name="bottom"/>
  <outline>
    <contour>
      <point x="324.166992188" y="1025.0" type="curve" smooth="yes"/>
      <point x="158.166992188" y="1025.0" type="line" smooth="yes"/>
      <point x="154.166992188" y="1025.0"/>
      <point x="152.166992188" y="1027.0"/>
      <point x="153.166992188" y="1031.0" type="curve" smooth="yes"/>
      <point x="156.166992188" y="1044.0" type="line" smooth="yes"/>
      <point x="157.166992188" y="1048.0"/>
      <point x="159.166992188" y="1050.0"/>
      <point x="163.166992188" y="1050.0" type="curve" smooth="yes"/>
      <point x="329.166992188" y="1050.0" type="line" smooth="yes"/>
      <point x="333.166992188" y="1050.0"/>
      <point x="335.166992188" y="1048.0"/>
      <point x="334.166992188" y="1044.0" type="curve" smooth="yes"/>
      <point x="331.166992188" y="1031.0" type="line" smooth="yes"/>
      <point x="330.166992188" y="1027.0"/>
      <point x="328.166992188" y="1025.0"/>
    </contour>
    <contour>
      <point x="97.1669921875" y="18.0" type="curve" smooth="yes"/>
      <point x="94.1669921875" y="6.0" type="line" smooth="yes"/>
      <point x="93.1669921875" y="2.0"/>
      <point x="92.1669921875" y="1.0"/>
      <point x="87.1669921875" y="0.0" type="curve" smooth="yes"/>
      <point x="-9.8330078125" y="-14.0"/>
      <point x="-15.8330078125" y="26.0"/>
      <point x="12.1669921875" y="146.0" type="curve" smooth="yes"/>
      <point x="300.166992188" y="1393.0" type="line" smooth="yes"/>
      <point x="301.166992188" y="1397.0"/>
      <point x="302.166992188" y="1399.0"/>
      <point x="306.166992188" y="1399.0" type="curve" smooth="yes"/>
      <point x="323.166992188" y="1399.0" type="line" smooth="yes"/>
      <point x="327.166992188" y="1399.0"/>
      <point x="330.166992188" y="1397.0"/>
      <point x="329.166992188" y="1393.0" type="curve" smooth="yes"/>
      <point x="41.1669921875" y="146.0" type="line" smooth="yes"/>
      <point x="22.1669921875" y="63.0"/>
      <point x="7.1669921875" y="10.0"/>
      <point x="90.1669921875" y="22.0" type="curve" smooth="yes"/>
      <point x="96.1669921875" y="23.0"/>
      <point x="98.1669921875" y="21.0"/>
    </contour>
  </outline>
</glyph>
<glyph name="u" format="2">
  <advance height="1104" width="303"/>
  <unicode hex="0075"/>
  <anchor x="42.0" y="0.0" name="bottom"/>
  <anchor x="115.0" y="0.0" name="ogonek"/>
  <anchor x="292.0" y="1050.0" name="top"/>
  <outline>
    <contour>
      <point x="131.388671875" y="0.0" type="curve" smooth="yes"/>
      <point x="115.388671875" y="0.0" type="line" smooth="yes"/>
      <point x="111.388671875" y="0.0"/>
      <point x="110.392578125" y="2.0"/>
      <point x="111.388671875" y="6.0" type="curve" smooth="yes"/>
      <point x="144.388671875" y="148.0" type="line"/>
      <point x="145.512695312" y="164.0" type="line"/>
      <point x="348.520507812" y="1044.0" type="line" smooth="yes"/>
      <point x="349.517578125" y="1048.0"/>
      <point x="352.390625" y="1050.0"/>
      <point x="356.388671875" y="1050.0" type="curve" smooth="yes"/>
      <point x="373.388671875" y="1050.0" type="line" smooth="yes"/>
      <point x="377.388671875" y="1050.0"/>
      <point x="380.388671875" y="1048.0"/>
      <point x="379.388671875" y="1044.0" type="curve" smooth="yes"/>
      <point x="139.388671875" y="6.0" type="line" smooth="yes"/>
      <point x="138.388671875" y="2.0"/>
      <point x="135.388671875" y="0.0"/>
    </contour>
    <contour>
      <point x="164.388671875" y="211.0" type="line"/>
      <point x="134.388671875" y="83.0"/>
      <point x="91.9501953125" y="-10.0"/>
      <point x="26.970703125" y="-10.0" type="curve" smooth="yes"/>
      <point x="-27.3173828125" y="-10.0"/>
      <point x="-32.3173828125" y="49.0"/>
      <point x="-4.3173828125" y="169.0" type="curve" smooth="yes"/>
      <point x="197.682617188" y="1044.0" type="line" smooth="yes"/>
      <point x="198.682617188" y="1048.0"/>
      <point x="198.682617188" y="1050.0"/>
      <point x="202.682617188" y="1050.0" type="curve" smooth="yes"/>
      <point x="222.682617188" y="1050.0" type="line" smooth="yes"/>
      <point x="226.682617188" y="1050.0"/>
      <point x="227.676757812" y="1048.0"/>
      <point x="226.682617188" y="1044.0" type="curve" smooth="yes"/>
      <point x="24.6826171875" y="169.0" type="line" smooth="yes"/>
      <point x="5.6826171875" y="87.0"/>
      <point x="-4.9111328125" y="17.0"/>
      <point x="40.2138671875" y="17.0" type="curve" smooth="yes"/>
      <point x="83.533203125" y="17.0"/>
      <point x="136.500976562" y="124.0"/>
      <point x="164.498046875" y="245.0" type="curve"/>
    </contour>
  </outline>
</glyph>
<glyph name="v" format="2">
  <advance height="1104" width="257"/>
  <unicode hex="0076"/>
  <outline>
    <contour>
      <point x="49.4599609375" y="73.0" type="line"/>
      <point x="354.459960938" y="1044.0" type="line" smooth="yes"/>
      <point x="356.459960938" y="1048.0"/>
      <point x="359.459960938" y="1050.0"/>
      <point x="363.459960938" y="1050.0" type="curve" smooth="yes"/>
      <point x="375.459960938" y="1050.0" type="line" smooth="yes"/>
      <point x="379.459960938" y="1050.0"/>
      <point x="381.459960938" y="1048.0"/>
      <point x="380.459960938" y="1044.0" type="curve" smooth="yes"/>
      <point x="51.4599609375" y="6.0" type="line" smooth="yes"/>
      <point x="48.4599609375" y="1.0"/>
      <point x="46.4599609375" y="0.0"/>
      <point x="42.4599609375" y="0.0" type="curve" smooth="yes"/>
      <point x="15.4599609375" y="0.0" type="line" smooth="yes"/>
      <point x="11.4599609375" y="0.0"/>
      <point x="9.4599609375" y="2.0"/>
      <point x="8.4599609375" y="6.0" type="curve" smooth="yes"/>
      <point x="153.459960938" y="1044.0" type="line" smooth="yes"/>
      <point x="154.459960938" y="1048.0"/>
      <point x="155.459960938" y="1050.0"/>
      <point x="159.459960938" y="1050.0" type="curve" smooth="yes"/>
      <point x="174.459960938" y="1050.0" type="line" smooth="yes"/>
      <point x="178.459960938" y="1050.0"/>
      <point x="180.459960938" y="1048.0"/>
      <point x="179.459960938" y="1044.0" type="curve" smooth="yes"/>
    </contour>
  </outline>
</glyph>
<glyph name="w" format="2">
  <advance height="1104" width="411"/>
  <unicode hex="0077"/>
  <outline>
    <contour>
      <point x="204.311523438" y="56.0" type="line"/>
      <point x="502.311523438" y="1044.0" type="line" smooth="yes"/>
      <point x="504.311523438" y="1048.0"/>
      <point x="506.311523438" y="1050.0"/>
      <point x="510.311523438" y="1050.0" type="curve" smooth="yes"/>
      <point x="524.311523438" y="1050.0" type="line" smooth="yes"/>
      <point x="528.311523438" y="1050.0"/>
      <point x="530.311523438" y="1048.0"/>
      <point x="528.311523438" y="1044.0" type="curve" smooth="yes"/>
      <point x="211.311523438" y="6.0" type="line" smooth="yes"/>
      <point x="209.311523438" y="2.0"/>
      <point x="207.311523438" y="0.0"/>
      <point x="203.311523438" y="0.0" type="curve" smooth="yes"/>
      <point x="175.311523438" y="0.0" type="line" smooth="yes"/>
      <point x="172.604492188" y="0.0"/>
      <point x="169.016601562" y="1.0"/>
      <point x="169.12890625" y="6.0" type="curve" smooth="yes"/>
      <point x="329.8359375" y="971.0" type="line"/>
      <point x="47.2919921875" y="6.0" type="line" smooth="yes"/>
      <point x="45.375" y="1.0"/>
      <point x="43.546875" y="0.0"/>
      <point x="39.9365234375" y="0.0" type="curve" smooth="yes"/>
      <point x="9.9365234375" y="0.0" type="line" smooth="yes"/>
      <point x="5.9365234375" y="0.0"/>
      <point x="3.9365234375" y="1.0"/>
      <point x="3.9365234375" y="6.0" type="curve" smooth="yes"/>
      <point x="158.936523438" y="1044.0" type="line" smooth="yes"/>
      <point x="158.936523438" y="1048.0"/>
      <point x="158.936523438" y="1050.0"/>
      <point x="162.936523438" y="1050.0" type="curve" smooth="yes"/>
      <point x="177.936523438" y="1050.0" type="line" smooth="yes"/>
      <point x="181.936523438" y="1050.0"/>
      <point x="183.936523438" y="1048.0"/>
      <point x="183.936523438" y="1044.0" type="curve" smooth="yes"/>
      <point x="39.9365234375" y="56.0" type="line"/>
      <point x="330.576171875" y="1044.0" type="line" smooth="yes"/>
      <point x="332.471679688" y="1048.0"/>
      <point x="334.321289062" y="1050.0"/>
      <point x="337.932617188" y="1050.0" type="curve" smooth="yes"/>
      <point x="355.982421875" y="1050.0" type="line" smooth="yes"/>
      <point x="358.689453125" y="1050.0"/>
      <point x="362.254882812" y="1048.0"/>
      <point x="361.262695312" y="1044.0" type="curve" smooth="yes"/>
    </contour>
  </outline>
</glyph>
<glyph name="x" format="2">
  <advance height="1104" width="255"/>
  <unicode hex="0078"/>
  <outline>
    <contour>
      <point x="-57.162109375" y="0.0" type="curve" smooth="yes"/>
      <point x="-77.162109375" y="0.0" type="line" smooth="yes"/>
      <point x="-81.162109375" y="0.0"/>
      <point x="-82.162109375" y="1.0"/>
      <point x="-80.162109375" y="6.0" type="curve" smooth="yes"/>
      <point x="131.881835938" y="540.0" type="line"/>
      <point x="161.837890625" y="1044.0" type="line" smooth="yes"/>
      <point x="161.837890625" y="1049.0"/>
      <point x="163.837890625" y="1050.0"/>
      <point x="167.837890625" y="1050.0" type="curve" smooth="yes"/>
      <point x="187.584960938" y="1050.0" type="line" smooth="yes"/>
      <point x="191.194335938" y="1050.0"/>
      <point x="191.171875" y="1049.0"/>
      <point x="191.059570312" y="1044.0" type="curve" smooth="yes"/>
      <point x="160.060546875" y="589.0" type="line"/>
      <point x="335.5546875" y="1044.0" type="line" smooth="yes"/>
      <point x="337.5546875" y="1049.0"/>
      <point x="338.5546875" y="1050.0"/>
      <point x="342.5546875" y="1050.0" type="curve" smooth="yes"/>
      <point x="363.5546875" y="1050.0" type="line" smooth="yes"/>
      <point x="367.5546875" y="1050.0"/>
      <point x="368.5546875" y="1049.0"/>
      <point x="366.5546875" y="1044.0" type="curve" smooth="yes"/>
      <point x="168.162109375" y="548.0" type="line"/>
      <point x="122.5546875" y="6.0" type="line" smooth="yes"/>
      <point x="122.5546875" y="1.0"/>
      <point x="120.5546875" y="0.0"/>
      <point x="116.5546875" y="0.0" type="curve" smooth="yes"/>
      <point x="93.5546875" y="0.0" type="line" smooth="yes"/>
      <point x="89.9443359375" y="0.0"/>
      <point x="89.064453125" y="1.0"/>
      <point x="89.1767578125" y="6.0" type="curve" smooth="yes"/>
      <point x="141.06640625" y="507.0" type="line"/>
      <point x="-50.7109375" y="6.0" type="line" smooth="yes"/>
      <point x="-52.6279296875" y="1.0"/>
      <point x="-53.552734375" y="0.0"/>
    </contour>
  </outline>
</glyph>
<glyph name="y" format="2">
  <advance height="1104" width="285"/>
  <unicode hex="0079"/>
  <anchor x="291.0" y="1050.0" name="top"/>
  <outline>
    <contour>
      <point x="64.8603515625" y="58.0" type="line"/>
      <point x="373.860351562" y="1044.0" type="line" smooth="yes"/>
      <point x="375.860351562" y="1048.0"/>
      <point x="377.860351562" y="1050.0"/>
      <point x="381.860351562" y="1050.0" type="curve" smooth="yes"/>
      <point x="397.860351562" y="1050.0" type="line" smooth="yes"/>
      <point x="401.860351562" y="1050.0"/>
      <point x="400.860351562" y="1048.0"/>
      <point x="399.860351562" y="1044.0" type="curve" smooth="yes"/>
      <point x="47.8603515625" y="-64.0" type="line" smooth="yes"/>
      <point x="-19.1396484375" y="-271.0"/>
      <point x="-70.1396484375" y="-371.0"/>
      <point x="-119.139648438" y="-371.0" type="curve" smooth="yes"/>
      <point x="-188.139648438" y="-371.0"/>
      <point x="-129.139648438" y="-199.0"/>
      <point x="-89.1396484375" y="-107.0" type="curve" smooth="yes"/>
      <point x="-87.1396484375" y="-102.0"/>
      <point x="-85.1396484375" y="-99.0"/>
      <point x="-80.1396484375" y="-100.0" type="curve" smooth="yes"/>
      <point x="-74.1396484375" y="-101.0" type="line" smooth="yes"/>
      <point x="-71.1396484375" y="-102.0"/>
      <point x="-71.1396484375" y="-103.0"/>
      <point x="-73.1396484375" y="-107.0" type="curve" smooth="yes"/>
      <point x="-112.139648438" y="-199.0"/>
      <point x="-157.139648438" y="-345.0"/>
      <point x="-117.139648438" y="-345.0" type="curve" smooth="yes"/>
      <point x="-72.1396484375" y="-345.0"/>
      <point x="-16.1396484375" y="-171.0"/>
      <point x="33.8603515625" y="-14.0" type="curve"/>
      <point x="174.860351562" y="1044.0" type="line" smooth="yes"/>
      <point x="174.860351562" y="1048.0"/>
      <point x="174.860351562" y="1050.0"/>
      <point x="178.860351562" y="1050.0" type="curve" smooth="yes"/>
      <point x="194.860351562" y="1050.0" type="line" smooth="yes"/>
      <point x="198.860351562" y="1050.0"/>
      <point x="200.860351562" y="1048.0"/>
      <point x="200.860351562" y="1044.0" type="curve" smooth="yes"/>
    </contour>
  </outline>
</glyph>
<glyph name="z" format="2">
  <advance height="1104" width="254"/>
  <unicode hex="007A"/>
  <anchor x="275.0" y="1050.0" name="top"/>
  <outline>
    <contour>
      <point x="-74.748046875" y="6.0" type="curve" smooth="yes"/>
      <point x="330.251953125" y="1022.0" type="line"/>
      <point x="192.251953125" y="1022.0" type="line" smooth="yes"/>
      <point x="187.251953125" y="1022.0"/>
      <point x="186.251953125" y="1022.0"/>
      <point x="187.251953125" y="1027.0" type="curve" smooth="yes"/>
      <point x="191.251953125" y="1044.0" type="line" smooth="yes"/>
      <point x="192.251953125" y="1047.0"/>
      <point x="193.251953125" y="1050.0"/>
      <point x="198.251953125" y="1050.0" type="curve" smooth="yes"/>
      <point x="363.251953125" y="1050.0" type="line" smooth="yes"/>
      <point x="367.251953125" y="1050.0"/>
      <point x="369.251953125" y="1049.0"/>
      <point x="367.251953125" y="1044.0" type="curve" smooth="yes"/>
      <point x="-36.748046875" y="28.0" type="line"/>
      <point x="123.251953125" y="28.0" type="line" smooth="yes"/>
      <point x="127.251953125" y="28.0"/>
      <point x="129.251953125" y="27.0"/>
      <point x="128.251953125" y="23.0" type="curve" smooth="yes"/>
      <point x="124.251953125" y="6.0" type="line" smooth="yes"/>
      <point x="123.251953125" y="2.0"/>
      <point x="121.251953125" y="0.0"/>
      <point x="117.251953125" y="0.0" type="curve" smooth="yes"/>
      <point x="-71.748046875" y="0.0" type="line" smooth="yes"/>
      <point x="-75.748046875" y="0.0"/>
      <point x="-76.748046875" y="1.0"/>
    </contour>
  </outline>
</glyph>
<glyph name="braceleft" format="2">
  <advance height="2048" width="288"/>
  <unicode hex="007B"/>
  <outline>
    <contour>
      <point x="330.0" y="1439.0" type="line" smooth="yes"/>
      <point x="356.0" y="1553.0"/>
      <point x="377.0" y="1599.0"/>
      <point x="481.0" y="1600.0" type="curve" smooth="yes"/>
      <point x="485.0" y="1600.0"/>
      <point x="487.0" y="1599.0"/>
      <point x="486.0" y="1595.0" type="curve" smooth="yes"/>
      <point x="483.0" y="1580.0" type="line" smooth="yes"/>
      <point x="482.0" y="1576.0"/>
      <point x="480.0" y="1575.0"/>
      <point x="476.0" y="1575.0" type="curve" smooth="yes"/>
      <point x="416.0" y="1573.0"/>
      <point x="387.0" y="1556.0"/>
      <point x="360.0" y="1439.0" type="curve" smooth="yes"/>
      <point x="210.0" y="788.0" type="line" smooth="yes"/>
      <point x="189.0" y="696.0"/>
      <point x="160.0" y="644.0"/>
      <point x="96.0" y="620.0" type="curve"/>
      <point x="148.0" y="596.0"/>
      <point x="153.0" y="544.0"/>
      <point x="132.0" y="452.0" type="curve" smooth="yes"/>
      <point x="-18.0" y="-199.0" type="line" smooth="yes"/>
      <point x="-42.0" y="-305.0"/>
      <point x="-23.0" y="-332.0"/>
      <point x="34.0" y="-335.0" type="curve" smooth="yes"/>
      <point x="39.0" y="-335.0"/>
      <point x="41.0" y="-336.0"/>
      <point x="40.0" y="-340.0" type="curve" smooth="yes"/>
      <point x="36.0" y="-355.0" type="line" smooth="yes"/>
      <point x="35.0" y="-359.0"/>
      <point x="33.0" y="-360.0"/>
      <point x="29.0" y="-360.0" type="curve" smooth="yes"/>
      <point x="-74.0" y="-358.0"/>
      <point x="-74.0" y="-313.0"/>
      <point x="-48.0" y="-199.0" type="curve" smooth="yes"/>
      <point x="102.0" y="452.0" type="line" smooth="yes"/>
      <point x="122.0" y="538.0"/>
      <point x="115.0" y="590.0"/>
      <point x="71.0" y="606.0" type="curve" smooth="yes"/>
      <point x="67.0" y="608.0"/>
      <point x="66.0" y="609.0"/>
      <point x="67.0" y="613.0" type="curve" smooth="yes"/>
      <point x="70.0" y="627.0" type="line" smooth="yes"/>
      <point x="71.0" y="631.0"/>
      <point x="72.0" y="633.0"/>
      <point x="76.0" y="634.0" type="curve" smooth="yes"/>
      <point x="130.0" y="650.0"/>
      <point x="160.0" y="701.0"/>
      <point x="180.0" y="788.0" type="curve" smooth="yes"/>
    </contour>
  </outline>
</glyph>
<glyph name="braceright" format="2">
  <advance height="2048" width="288"/>
  <unicode hex="007D"/>
  <outline>
    <contour>
      <point x="4.0" y="-199.0" type="line" smooth="yes"/>
      <point x="-22.0" y="-313.0"/>
      <point x="-43.0" y="-359.0"/>
      <point x="-147.0" y="-360.0" type="curve" smooth="yes"/>
      <point x="-151.0" y="-360.0"/>
      <point x="-153.0" y="-359.0"/>
      <point x="-152.0" y="-355.0" type="curve" smooth="yes"/>
      <point x="-148.0" y="-340.0" type="line" smooth="yes"/>
      <point x="-147.0" y="-336.0"/>
      <point x="-145.0" y="-335.0"/>
      <point x="-141.0" y="-335.0" type="curve" smooth="yes"/>
      <point x="-81.0" y="-333.0"/>
      <point x="-53.0" y="-316.0"/>
      <point x="-26.0" y="-199.0" type="curve" smooth="yes"/>
      <point x="124.0" y="452.0" type="line" smooth="yes"/>
      <point x="145.0" y="544.0"/>
      <point x="174.0" y="596.0"/>
      <point x="238.0" y="620.0" type="curve"/>
      <point x="186.0" y="644.0"/>
      <point x="181.0" y="696.0"/>
      <point x="202.0" y="788.0" type="curve" smooth="yes"/>
      <point x="352.0" y="1439.0" type="line" smooth="yes"/>
      <point x="376.0" y="1545.0"/>
      <point x="358.0" y="1572.0"/>
      <point x="301.0" y="1575.0" type="curve" smooth="yes"/>
      <point x="296.0" y="1575.0"/>
      <point x="294.0" y="1576.0"/>
      <point x="295.0" y="1580.0" type="curve" smooth="yes"/>
      <point x="298.0" y="1595.0" type="line" smooth="yes"/>
      <point x="299.0" y="1599.0"/>
      <point x="301.0" y="1600.0"/>
      <point x="305.0" y="1600.0" type="curve" smooth="yes"/>
      <point x="408.0" y="1598.0"/>
      <point x="408.0" y="1553.0"/>
      <point x="382.0" y="1439.0" type="curve" smooth="yes"/>
      <point x="232.0" y="788.0" type="line" smooth="yes"/>
      <point x="212.0" y="702.0"/>
      <point x="219.0" y="650.0"/>
      <point x="263.0" y="634.0" type="curve" smooth="yes"/>
      <point x="267.0" y="632.0"/>
      <point x="269.0" y="631.0"/>
      <point x="268.0" y="627.0" type="curve" smooth="yes"/>
      <point x="265.0" y="613.0" type="line" smooth="yes"/>
      <point x="264.0" y="609.0"/>
      <point x="262.0" y="607.0"/>
      <point x="258.0" y="606.0" type="curve" smooth="yes"/>
      <point x="204.0" y="590.0"/>
      <point x="174.0" y="539.0"/>
      <point x="154.0" y="452.0" type="curve" smooth="yes"/>
    </contour>
  </outline>
</glyph>
<glyph name="asciitilde" format="2">
  <advance height="2048" width="664"/>
  <unicode hex="007E"/>
  <outline>
    <contour>
      <point x="243.0" y="677.0" type="curve" smooth="yes"/>
      <point x="187.0" y="677.0"/>
      <point x="142.0" y="617.0"/>
      <point x="121.0" y="526.0" type="curve" smooth="yes"/>
      <point x="120.0" y="523.0"/>
      <point x="118.0" y="522.0"/>
      <point x="115.0" y="522.0" type="curve" smooth="yes"/>
      <point x="95.0" y="522.0" type="line" smooth="yes"/>
      <point x="91.0" y="522.0"/>
      <point x="90.0" y="523.0"/>
      <point x="91.0" y="526.0" type="curve" smooth="yes"/>
      <point x="117.0" y="630.0"/>
      <point x="168.0" y="707.0"/>
      <point x="253.0" y="707.0" type="curve" smooth="yes"/>
      <point x="368.0" y="707.0"/>
      <point x="364.0" y="534.0"/>
      <point x="460.0" y="534.0" type="curve" smooth="yes"/>
      <point x="516.0" y="534.0"/>
      <point x="562.0" y="593.0"/>
      <point x="583.0" y="684.0" type="curve" smooth="yes"/>
      <point x="584.0" y="688.0"/>
      <point x="586.0" y="689.0"/>
      <point x="589.0" y="689.0" type="curve" smooth="yes"/>
      <point x="608.0" y="689.0" type="line" smooth="yes"/>
      <point x="612.0" y="689.0"/>
      <point x="613.0" y="688.0"/>
      <point x="612.0" y="684.0" type="curve" smooth="yes"/>
      <point x="586.0" y="580.0"/>
      <point x="535.0" y="504.0"/>
      <point x="450.0" y="504.0" type="curve" smooth="yes"/>
      <point x="335.0" y="504.0"/>
      <point x="339.0" y="677.0"/>
    </contour>
  </outline>
</glyph>
<glyph name="exclamdown" format="2">
  <advance height="1920" width="275"/>
  <unicode hex="00A1"/>
  <outline>
    <contour>
      <point x="250.0" y="1050.0" type="curve" smooth="yes"/>
      <point x="270.0" y="1050.0" type="line" smooth="yes"/>
      <point x="277.0" y="1050.0"/>
      <point x="280.0" y="1047.0"/>
      <point x="278.0" y="1040.0" type="curve" smooth="yes"/>
      <point x="234.0" y="850.0" type="line" smooth="yes"/>
      <point x="232.0" y="843.0"/>
      <point x="229.0" y="840.0"/>
      <point x="222.0" y="840.0" type="curve" smooth="yes"/>
      <point x="202.0" y="840.0" type="line" smooth="yes"/>
      <point x="195.0" y="840.0"/>
      <point x="192.0" y="843.0"/>
      <point x="194.0" y="850.0" type="curve" smooth="yes"/>
      <point x="238.0" y="1040.0" type="line" smooth="yes"/>
      <point x="240.0" y="1047.0"/>
      <point x="243.0" y="1050.0"/>
    </contour>
    <contour>
      <point x="57.0" y="100.0" type="curve" smooth="yes"/>
      <point x="-56.0" y="-390.0" type="line" smooth="yes"/>
      <point x="-58.0" y="-397.0"/>
      <point x="-61.0" y="-400.0"/>
      <point x="-68.0" y="-400.0" type="curve" smooth="yes"/>
      <point x="-78.0" y="-400.0" type="line" smooth="yes"/>
      <point x="-85.0" y="-400.0"/>
      <point x="-88.0" y="-397.0"/>
      <point x="-86.0" y="-390.0" type="curve" smooth="yes"/>
      <point x="27.0" y="100.0" type="line" smooth="yes"/>
      <point x="29.0" y="107.0"/>
      <point x="47.0" y="193.0"/>
      <point x="50.0" y="200.0" type="curve" smooth="yes"/>
      <point x="149.0" y="610.0" type="line" smooth="yes"/>
      <point x="151.0" y="617.0"/>
      <point x="154.0" y="620.0"/>
      <point x="161.0" y="620.0" type="curve" smooth="yes"/>
      <point x="163.0" y="620.0" type="line" smooth="yes"/>
      <point x="170.0" y="620.0"/>
      <point x="173.0" y="617.0"/>
      <point x="171.0" y="610.0" type="curve" smooth="yes"/>
      <point x="78.0" y="200.0" type="line" smooth="yes"/>
      <point x="76.0" y="193.0"/>
      <point x="59.0" y="107.0"/>
    </contour>
  </outline>
</glyph>
<glyph name="cent" format="2">
  <advance height="1920" width="284"/>
  <unicode hex="00A2"/>
  <outline>
    <contour>
      <point x="316.03125" y="1240.0" type="curve" smooth="yes"/>
      <point x="326.03125" y="1240.0" type="line" smooth="yes"/>
      <point x="330.03125" y="1240.0"/>
      <point x="331.03125" y="1240.0"/>
      <point x="330.03125" y="1236.0" type="curve" smooth="yes"/>
      <point x="2.03125" y="-186.0" type="line" smooth="yes"/>
      <point x="1.03125" y="-190.0"/>
      <point x="0.03125" y="-190.0"/>
      <point x="-3.96875" y="-190.0" type="curve" smooth="yes"/>
      <point x="-13.96875" y="-190.0" type="line" smooth="yes"/>
      <point x="-17.96875" y="-190.0"/>
      <point x="-18.96875" y="-190.0"/>
      <point x="-17.96875" y="-186.0" type="curve" smooth="yes"/>
      <point x="310.03125" y="1236.0" type="line" smooth="yes"/>
      <point x="311.03125" y="1240.0"/>
      <point x="312.03125" y="1240.0"/>
    </contour>
    <component base="c"/>
  </outline>
</glyph>
<glyph name="sterling" format="2">
  <advance height="1920" width="470"/>
  <unicode hex="00A3"/>
  <outline>
    <contour>
      <point x="104.0" y="689.0" type="curve" smooth="yes"/>
      <point x="109.0" y="710.0" type="line" smooth="yes"/>
      <point x="110.0" y="714.0"/>
      <point x="111.0" y="715.0"/>
      <point x="115.0" y="715.0" type="curve" smooth="yes"/>
      <point x="355.0" y="715.0" type="line" smooth="yes"/>
      <point x="359.0" y="715.0"/>
      <point x="360.0" y="714.0"/>
      <point x="359.0" y="710.0" type="curve" smooth="yes"/>
      <point x="354.0" y="689.0" type="line" smooth="yes"/>
      <point x="353.0" y="685.0"/>
      <point x="352.0" y="685.0"/>
      <point x="348.0" y="685.0" type="curve" smooth="yes"/>
      <point x="108.0" y="685.0" type="line" smooth="yes"/>
      <point x="104.0" y="685.0"/>
      <point x="103.0" y="685.0"/>
    </contour>
    <contour>
      <point x="-31.0" y="29.0" type="curve" smooth="yes"/>
      <point x="40.0" y="87.0"/>
      <point x="168.0" y="362.0"/>
      <point x="222.0" y="597.0" type="curve" smooth="yes"/>
      <point x="268.0" y="796.0"/>
      <point x="199.0" y="907.0"/>
      <point x="253.0" y="1141.0" type="curve" smooth="yes"/>
      <point x="291.0" y="1306.0"/>
      <point x="331.0" y="1417.0"/>
      <point x="445.0" y="1417.0" type="curve" smooth="yes"/>
      <point x="562.0" y="1417.0"/>
      <point x="541.0" y="1285.0"/>
      <point x="468.0" y="967.0" type="curve" smooth="yes"/>
      <point x="467.0" y="963.0"/>
      <point x="466.0" y="963.0"/>
      <point x="462.0" y="963.0" type="curve" smooth="yes"/>
      <point x="440.0" y="963.0" type="line" smooth="yes"/>
      <point x="437.0" y="963.0"/>
      <point x="435.0" y="963.0"/>
      <point x="436.0" y="967.0" type="curve" smooth="yes"/>
      <point x="490.0" y="1210.0"/>
      <point x="535.0" y="1387.0"/>
      <point x="438.0" y="1387.0" type="curve" smooth="yes"/>
      <point x="351.0" y="1387.0"/>
      <point x="316.0" y="1281.0"/>
      <point x="286.0" y="1151.0" type="curve" smooth="yes"/>
      <point x="232.0" y="915.0"/>
      <point x="301.0" y="810.0"/>
      <point x="252.0" y="597.0" type="curve" smooth="yes"/>
      <point x="201.0" y="376.0"/>
      <point x="65.0" y="73.0"/>
      <point x="-4.0" y="30.0" type="curve"/>
      <point x="302.0" y="30.0" type="line" smooth="yes"/>
      <point x="306.0" y="30.0"/>
      <point x="307.0" y="28.0"/>
      <point x="306.0" y="24.0" type="curve" smooth="yes"/>
      <point x="301.0" y="5.0" type="line" smooth="yes"/>
      <point x="300.0" y="1.0"/>
      <point x="299.0" y="0.0"/>
      <point x="295.0" y="0.0" type="curve" smooth="yes"/>
      <point x="-35.0" y="0.0" type="line" smooth="yes"/>
      <point x="-39.0" y="0.0"/>
      <point x="-40.0" y="1.0"/>
      <point x="-39.0" y="5.0" type="curve" smooth="yes"/>
      <point x="-34.0" y="24.0" type="line" smooth="yes"/>
      <point x="-34.0" y="26.0"/>
      <point x="-33.0" y="27.0"/>
    </contour>
  </outline>
</glyph>
<glyph name="currency" format="2">
  <advance width="1112"/>
  <unicode hex="00A4"/>
  <outline>
    <contour>
      <point x="866.0" y="941.0" type="curve" smooth="yes"/>
      <point x="877.0" y="927.0" type="line" smooth="yes"/>
      <point x="879.0" y="925.0"/>
      <point x="877.0" y="922.0"/>
      <point x="875.0" y="920.0" type="curve" smooth="yes"/>
      <point x="800.0" y="858.0" type="line" smooth="yes"/>
      <point x="798.0" y="856.0"/>
      <point x="795.0" y="856.0"/>
      <point x="793.0" y="858.0" type="curve" smooth="yes"/>
      <point x="782.0" y="872.0" type="line" smooth="yes"/>
      <point x="780.0" y="874.0"/>
      <point x="782.0" y="878.0"/>
      <point x="784.0" y="880.0" type="curve" smooth="yes"/>
      <point x="859.0" y="941.0" type="line" smooth="yes"/>
      <point x="861.0" y="943.0"/>
      <point x="864.0" y="943.0"/>
    </contour>
    <contour>
      <point x="394.0" y="557.0" type="curve" smooth="yes"/>
      <point x="404.0" y="543.0" type="line" smooth="yes"/>
      <point x="406.0" y="541.0"/>
      <point x="405.0" y="537.0"/>
      <point x="403.0" y="535.0" type="curve" smooth="yes"/>
      <point x="327.0" y="474.0" type="line" smooth="yes"/>
      <point x="325.0" y="472.0"/>
      <point x="322.0" y="472.0"/>
      <point x="320.0" y="474.0" type="curve" smooth="yes"/>
      <point x="310.0" y="488.0" type="line" smooth="yes"/>
      <point x="308.0" y="490.0"/>
      <point x="309.0" y="493.0"/>
      <point x="311.0" y="495.0" type="curve" smooth="yes"/>
      <point x="387.0" y="557.0" type="line" smooth="yes"/>
      <point x="389.0" y="559.0"/>
      <point x="392.0" y="559.0"/>
    </contour>
    <contour>
      <point x="411.0" y="927.0" type="curve" smooth="yes"/>
      <point x="428.0" y="941.0" type="line" smooth="yes"/>
      <point x="430.0" y="943.0"/>
      <point x="433.0" y="943.0"/>
      <point x="435.0" y="941.0" type="curve" smooth="yes"/>
      <point x="482.0" y="880.0" type="line" smooth="yes"/>
      <point x="484.0" y="878.0"/>
      <point x="482.0" y="874.0"/>
      <point x="480.0" y="872.0" type="curve" smooth="yes"/>
      <point x="463.0" y="858.0" type="line" smooth="yes"/>
      <point x="461.0" y="856.0"/>
      <point x="458.0" y="856.0"/>
      <point x="456.0" y="858.0" type="curve" smooth="yes"/>
      <point x="409.0" y="920.0" type="line" smooth="yes"/>
      <point x="407.0" y="922.0"/>
      <point x="409.0" y="925.0"/>
    </contour>
    <contour>
      <point x="706.0" y="543.0" type="curve" smooth="yes"/>
      <point x="724.0" y="557.0" type="line" smooth="yes"/>
      <point x="726.0" y="559.0"/>
      <point x="729.0" y="559.0"/>
      <point x="731.0" y="557.0" type="curve" smooth="yes"/>
      <point x="777.0" y="495.0" type="line" smooth="yes"/>
      <point x="779.0" y="493.0"/>
      <point x="778.0" y="490.0"/>
      <point x="776.0" y="488.0" type="curve" smooth="yes"/>
      <point x="758.0" y="474.0" type="line" smooth="yes"/>
      <point x="756.0" y="472.0"/>
      <point x="753.0" y="472.0"/>
      <point x="751.0" y="474.0" type="curve" smooth="yes"/>
      <point x="705.0" y="535.0" type="line" smooth="yes"/>
      <point x="703.0" y="537.0"/>
      <point x="704.0" y="541.0"/>
    </contour>
    <contour>
      <point x="350.0" y="709.0" type="curve" smooth="yes"/>
      <point x="381.0" y="843.0"/>
      <point x="518.0" y="954.0"/>
      <point x="652.0" y="954.0" type="curve" smooth="yes"/>
      <point x="786.0" y="954.0"/>
      <point x="871.0" y="843.0"/>
      <point x="840.0" y="709.0" type="curve" smooth="yes"/>
      <point x="809.0" y="575.0"/>
      <point x="673.0" y="464.0"/>
      <point x="539.0" y="464.0" type="curve" smooth="yes"/>
      <point x="405.0" y="464.0"/>
      <point x="319.0" y="575.0"/>
    </contour>
    <contour>
      <point x="380.0" y="709.0" type="curve" smooth="yes"/>
      <point x="354.0" y="595.0"/>
      <point x="422.0" y="494.0"/>
      <point x="546.0" y="494.0" type="curve" smooth="yes"/>
      <point x="670.0" y="494.0"/>
      <point x="784.0" y="595.0"/>
      <point x="810.0" y="709.0" type="curve" smooth="yes"/>
      <point x="836.0" y="823.0"/>
      <point x="769.0" y="924.0"/>
      <point x="645.0" y="924.0" type="curve" smooth="yes"/>
      <point x="521.0" y="924.0"/>
      <point x="406.0" y="823.0"/>
    </contour>
  </outline>
</glyph>
<glyph name="yen" format="2">
  <advance height="1920" width="374"/>
  <unicode hex="00A5"/>
  <outline>
    <contour>
      <point x="3.0" y="489.0" type="curve" smooth="yes"/>
      <point x="8.0" y="509.0" type="line" smooth="yes"/>
      <point x="9.0" y="513.0"/>
      <point x="10.0" y="514.0"/>
      <point x="14.0" y="514.0" type="curve" smooth="yes"/>
      <point x="374.0" y="514.0" type="line" smooth="yes"/>
      <point x="378.0" y="514.0"/>
      <point x="379.0" y="513.0"/>
      <point x="378.0" y="509.0" type="curve" smooth="yes"/>
      <point x="373.0" y="489.0" type="line" smooth="yes"/>
      <point x="372.0" y="485.0"/>
      <point x="371.0" y="484.0"/>
      <point x="367.0" y="484.0" type="curve" smooth="yes"/>
      <point x="7.0" y="484.0" type="line" smooth="yes"/>
      <point x="3.0" y="484.0"/>
      <point x="2.0" y="485.0"/>
    </contour>
    <contour>
      <point x="32.0" y="616.0" type="curve" smooth="yes"/>
      <point x="37.0" y="636.0" type="line" smooth="yes"/>
      <point x="38.0" y="640.0"/>
      <point x="39.0" y="641.0"/>
      <point x="43.0" y="641.0" type="curve" smooth="yes"/>
      <point x="403.0" y="641.0" type="line" smooth="yes"/>
      <point x="407.0" y="641.0"/>
      <point x="408.0" y="640.0"/>
      <point x="407.0" y="636.0" type="curve" smooth="yes"/>
      <point x="402.0" y="616.0" type="line" smooth="yes"/>
      <point x="401.0" y="612.0"/>
      <point x="400.0" y="611.0"/>
      <point x="396.0" y="611.0" type="curve" smooth="yes"/>
      <point x="36.0" y="611.0" type="line" smooth="yes"/>
      <point x="32.0" y="611.0"/>
      <point x="31.0" y="612.0"/>
    </contour>
    <component base="Y"/>
  </outline>
</glyph>
<glyph name="brokenbar" format="2">
  <advance height="1920" width="365"/>
  <unicode hex="00A6"/>
  <outline>
    <contour>
      <point x="152.0" y="430.0" type="curve" smooth="yes"/>
      <point x="172.0" y="430.0" type="line" smooth="yes"/>
      <point x="176.0" y="430.0"/>
      <point x="177.0" y="427.0"/>
      <point x="175.0" y="420.0" type="curve" smooth="yes"/>
      <point x="-3.0" y="-350.0" type="line" smooth="yes"/>
      <point x="-5.0" y="-357.0"/>
      <point x="-6.0" y="-360.0"/>
      <point x="-10.0" y="-360.0" type="curve" smooth="yes"/>
      <point x="-30.0" y="-360.0" type="line" smooth="yes"/>
      <point x="-34.0" y="-360.0"/>
      <point x="-35.0" y="-357.0"/>
      <point x="-33.0" y="-350.0" type="curve" smooth="yes"/>
      <point x="145.0" y="420.0" type="line" smooth="yes"/>
      <point x="147.0" y="427.0"/>
      <point x="148.0" y="430.0"/>
    </contour>
    <contour>
      <point x="422.0" y="1600.0" type="curve" smooth="yes"/>
      <point x="442.0" y="1600.0" type="line" smooth="yes"/>
      <point x="446.0" y="1600.0"/>
      <point x="447.0" y="1597.0"/>
      <point x="445.0" y="1590.0" type="curve" smooth="yes"/>
      <point x="267.0" y="820.0" type="line" smooth="yes"/>
      <point x="265.0" y="813.0"/>
      <point x="264.0" y="810.0"/>
      <point x="260.0" y="810.0" type="curve" smooth="yes"/>
      <point x="240.0" y="810.0" type="line" smooth="yes"/>
      <point x="236.0" y="810.0"/>
      <point x="235.0" y="813.0"/>
      <point x="237.0" y="820.0" type="curve" smooth="yes"/>
      <point x="415.0" y="1590.0" type="line" smooth="yes"/>
      <point x="417.0" y="1597.0"/>
      <point x="418.0" y="1600.0"/>
    </contour>
  </outline>
</glyph>
<glyph name="section" format="2">
  <advance height="1920" width="568"/>
  <unicode hex="00A7"/>
  <outline>
    <contour>
      <point x="339.0" y="890.0" type="line"/>
      <point x="267.0" y="890.0"/>
      <point x="178.0" y="776.0"/>
      <point x="137.0" y="598.0" type="curve" smooth="yes"/>
      <point x="98.0" y="431.0"/>
      <point x="127.0" y="344.0"/>
      <point x="194.0" y="241.0" type="curve" smooth="yes"/>
      <point x="283.0" y="105.0"/>
      <point x="301.0" y="47.0"/>
      <point x="269.0" y="-93.0" type="curve" smooth="yes"/>
      <point x="229.0" y="-265.0"/>
      <point x="158.0" y="-370.0"/>
      <point x="64.0" y="-370.0" type="curve" smooth="yes"/>
      <point x="-33.0" y="-370.0"/>
      <point x="-42.0" y="-267.0"/>
      <point x="-1.0" y="-57.0" type="curve" smooth="yes"/>
      <point x="0.0" y="-51.0"/>
      <point x="3.0" y="-48.0"/>
      <point x="7.0" y="-48.0" type="curve" smooth="yes"/>
      <point x="28.0" y="-48.0" type="line" smooth="yes"/>
      <point x="32.0" y="-48.0"/>
      <point x="33.0" y="-51.0"/>
      <point x="31.0" y="-58.0" type="curve" smooth="yes"/>
      <point x="-4.0" y="-238.0"/>
      <point x="-1.0" y="-340.0"/>
      <point x="71.0" y="-340.0" type="curve" smooth="yes"/>
      <point x="145.0" y="-340.0"/>
      <point x="204.0" y="-243.0"/>
      <point x="239.0" y="-93.0" type="curve" smooth="yes"/>
      <point x="271.0" y="45.0"/>
      <point x="232.0" y="121.0"/>
      <point x="171.0" y="212.0" type="curve" smooth="yes"/>
      <point x="80.0" y="347.0"/>
      <point x="75.0" y="456.0"/>
      <point x="107.0" y="593.0" type="curve" smooth="yes"/>
      <point x="154.0" y="795.0"/>
      <point x="246.0" y="900.0"/>
      <point x="348.0" y="900.0" type="curve"/>
    </contour>
    <contour>
      <point x="227.0" y="145.0" type="line"/>
      <point x="299.0" y="145.0"/>
      <point x="389.0" y="259.0"/>
      <point x="430.0" y="437.0" type="curve" smooth="yes"/>
      <point x="469.0" y="604.0"/>
      <point x="440.0" y="691.0"/>
      <point x="373.0" y="794.0" type="curve" smooth="yes"/>
      <point x="284.0" y="930.0"/>
      <point x="266.0" y="988.0"/>
      <point x="298.0" y="1128.0" type="curve" smooth="yes"/>
      <point x="338.0" y="1300.0"/>
      <point x="409.0" y="1405.0"/>
      <point x="503.0" y="1405.0" type="curve" smooth="yes"/>
      <point x="600.0" y="1405.0"/>
      <point x="609.0" y="1302.0"/>
      <point x="568.0" y="1092.0" type="curve" smooth="yes"/>
      <point x="567.0" y="1086.0"/>
      <point x="564.0" y="1083.0"/>
      <point x="560.0" y="1083.0" type="curve" smooth="yes"/>
      <point x="539.0" y="1083.0" type="line" smooth="yes"/>
      <point x="535.0" y="1083.0"/>
      <point x="534.0" y="1086.0"/>
      <point x="536.0" y="1093.0" type="curve" smooth="yes"/>
      <point x="571.0" y="1273.0"/>
      <point x="568.0" y="1375.0"/>
      <point x="496.0" y="1375.0" type="curve" smooth="yes"/>
      <point x="422.0" y="1375.0"/>
      <point x="363.0" y="1278.0"/>
      <point x="328.0" y="1128.0" type="curve" smooth="yes"/>
      <point x="296.0" y="990.0"/>
      <point x="335.0" y="914.0"/>
      <point x="396.0" y="823.0" type="curve" smooth="yes"/>
      <point x="487.0" y="688.0"/>
      <point x="492.0" y="579.0"/>
      <point x="460.0" y="442.0" type="curve" smooth="yes"/>
      <point x="413.0" y="240.0"/>
      <point x="321.0" y="135.0"/>
      <point x="219.0" y="135.0" type="curve"/>
    </contour>
  </outline>
</glyph>
<glyph name="copyright" format="2">
  <advance width="844"/>
  <unicode hex="00A9"/>
  <outline>
    <contour>
      <point x="533.0" y="612.0" type="curve" smooth="yes"/>
      <point x="466.0" y="323.0"/>
      <point x="447.0" y="247.0"/>
      <point x="351.0" y="247.0" type="curve" smooth="yes"/>
      <point x="268.0" y="247.0"/>
      <point x="283.0" y="327.0"/>
      <point x="315.0" y="465.0" type="curve" smooth="yes"/>
      <point x="410.0" y="875.0" type="line" smooth="yes"/>
      <point x="445.0" y="1025.0"/>
      <point x="481.0" y="1093.0"/>
      <point x="555.0" y="1093.0" type="curve" smooth="yes"/>
      <point x="638.0" y="1093.0"/>
      <point x="616.0" y="983.0"/>
      <point x="567.0" y="770.0" type="curve" smooth="yes"/>
      <point x="567.0" y="768.0"/>
      <point x="565.0" y="767.0"/>
      <point x="563.0" y="767.0" type="curve" smooth="yes"/>
      <point x="551.0" y="767.0" type="line" smooth="yes"/>
      <point x="549.0" y="767.0"/>
      <point x="549.0" y="768.0"/>
      <point x="549.0" y="770.0" type="curve" smooth="yes"/>
      <point x="598.0" y="988.0"/>
      <point x="610.0" y="1075.0"/>
      <point x="551.0" y="1075.0" type="curve" smooth="yes"/>
      <point x="480.0" y="1075.0"/>
      <point x="456.0" y="995.0"/>
      <point x="429.0" y="878.0" type="curve" smooth="yes"/>
      <point x="333.0" y="462.0" type="line" smooth="yes"/>
      <point x="307.0" y="351.0"/>
      <point x="288.0" y="265.0"/>
      <point x="355.0" y="265.0" type="curve" smooth="yes"/>
      <point x="431.0" y="265.0"/>
      <point x="452.0" y="332.0"/>
      <point x="515.0" y="612.0" type="curve" smooth="yes"/>
      <point x="515.0" y="614.0"/>
      <point x="517.0" y="615.0"/>
      <point x="519.0" y="615.0" type="curve" smooth="yes"/>
      <point x="531.0" y="615.0" type="line" smooth="yes"/>
      <point x="533.0" y="615.0"/>
      <point x="533.0" y="614.0"/>
    </contour>
    <contour>
      <point x="803.0" y="668.0" type="curve" smooth="yes"/>
      <point x="714.0" y="284.0"/>
      <point x="609.0" y="-28.0"/>
      <point x="295.0" y="-28.0" type="curve" smooth="yes"/>
      <point x="-19.0" y="-28.0"/>
      <point x="20.0" y="284.0"/>
      <point x="109.0" y="668.0" type="curve" smooth="yes"/>
      <point x="198.0" y="1052.0"/>
      <point x="302.0" y="1366.0"/>
      <point x="616.0" y="1366.0" type="curve" smooth="yes"/>
      <point x="930.0" y="1366.0"/>
      <point x="892.0" y="1052.0"/>
    </contour>
    <contour>
      <point x="773.0" y="668.0" type="curve" smooth="yes"/>
      <point x="851.0" y="1006.0"/>
      <point x="917.0" y="1336.0"/>
      <point x="609.0" y="1336.0" type="curve" smooth="yes"/>
      <point x="301.0" y="1336.0"/>
      <point x="217.0" y="1006.0"/>
      <point x="139.0" y="668.0" type="curve" smooth="yes"/>
      <point x="61.0" y="330.0"/>
      <point x="-7.0" y="2.0"/>
      <point x="301.0" y="2.0" type="curve" smooth="yes"/>
      <point x="609.0" y="2.0"/>
      <point x="695.0" y="330.0"/>
    </contour>
  </outline>
</glyph>
